<svg width="571" height="386" viewBox="0 0 571 386" fill="none" xmlns="http://www.w3.org/2000/svg">
<g filter="url(#filter0_ii_32_709)">
<rect x="212.705" y="257.563" width="130" height="130" rx="26.6842" transform="rotate(-9.99506 212.705 257.563)" fill="white" fill-opacity="0.1"/>
<rect x="213.101" y="257.841" width="129.316" height="129.316" rx="26.3421" transform="rotate(-9.99506 213.101 257.841)" stroke="white" stroke-opacity="0.1" stroke-width="0.684211"/>
<line x1="223.927" y1="321.24" x2="351.954" y2="298.676" stroke="white" stroke-opacity="0.1" stroke-width="0.684211"/>
<line x1="277.055" y1="246.222" x2="299.619" y2="374.249" stroke="white" stroke-opacity="0.1" stroke-width="0.684211"/>
<g clip-path="url(#clip0_32_709)">
<mask id="mask0_32_709" style="mask-type:luminance" maskUnits="userSpaceOnUse" x="228" y="250" width="120" height="120">
<path d="M228.557 268.664L329.631 250.851L347.444 351.925L246.37 369.738L228.557 268.664Z" fill="white"/>
</mask>
<g mask="url(#mask0_32_709)">
<path d="M329.631 250.851L228.557 268.664L246.37 369.738L347.444 351.925L329.631 250.851Z" fill="#009393"/>
<path d="M292.75 337.248L253.201 309.949L262.412 287.014L304.088 279.669L320.584 298.074L292.75 337.248ZM290.775 306.332L290.051 302.222C296.169 301.456 302.037 301.638 304.059 302.862C302.335 305.007 295.27 307.589 287.757 308.913C280.243 310.238 272.721 310.226 270.368 308.8C271.833 306.961 277.305 304.798 283.31 303.392L284.037 307.519L290.775 306.332ZM270.365 308.783L270.801 311.259C272.806 312.486 278.671 312.651 284.812 311.916L286.412 320.996L293.15 319.808L291.547 310.712C297.558 309.34 303.027 307.16 304.492 305.321L303.623 300.386C301.617 299.158 295.732 298.98 289.612 299.728L288.994 296.224L299.101 294.443L298.211 289.389L271.258 294.14L272.148 299.193L282.256 297.412L282.873 300.916C276.848 302.308 271.396 304.484 269.931 306.323L270.365 308.783Z" fill="white"/>
</g>
</g>
<rect x="228.16" y="268.387" width="103.316" height="103.316" rx="51.6579" transform="rotate(-9.99506 228.16 268.387)" stroke="white" stroke-opacity="0.1" stroke-width="0.684211"/>
</g>
<g opacity="0.7" filter="url(#filter1_ii_32_709)">
<rect x="414.88" y="41.8511" width="130" height="130" rx="26.6842" transform="rotate(-12.7543 414.88 41.8511)" fill="white" fill-opacity="0.1"/>
<rect x="415.29" y="42.1092" width="129.316" height="129.316" rx="26.3421" transform="rotate(-12.7543 415.29 42.1092)" stroke="white" stroke-opacity="0.1" stroke-width="0.684211"/>
<line x1="429.155" y1="104.914" x2="555.947" y2="76.2134" stroke="white" stroke-opacity="0.1" stroke-width="0.684211"/>
<line x1="478.61" y1="27.4255" x2="507.31" y2="154.218" stroke="white" stroke-opacity="0.1" stroke-width="0.684211"/>
<g clip-path="url(#clip1_32_709)">
<mask id="mask1_32_709" style="mask-type:luminance" maskUnits="userSpaceOnUse" x="431" y="29" width="124" height="124">
<path d="M431.248 52.1766L531.347 29.5186L554.005 129.618L453.906 152.276L431.248 52.1766Z" fill="white"/>
</mask>
<g mask="url(#mask1_32_709)">
<path d="M531.347 29.5186L431.248 52.1766L453.906 152.276L554.005 129.618L531.347 29.5186Z" fill="#FDC134"/>
<path fill-rule="evenodd" clip-rule="evenodd" d="M484.598 61.0297L458.893 66.8481L463.28 86.2257L456.823 87.6871L458.773 96.2998L465.229 94.8384L466.203 99.1426L459.747 100.604L461.697 109.217L468.153 107.755L472.538 127.129L498.243 121.31C504.364 119.93 509.923 116.729 514.19 112.128C518.456 107.527 521.229 101.742 522.144 95.5342L528.429 94.1114L526.48 85.4987L522.088 86.4928C521.87 85.0361 521.544 83.5974 521.114 82.1886L525.506 81.1944L523.555 72.5776L517.27 74.0003C513.769 68.7941 508.774 64.7691 502.943 62.4541C497.112 60.1391 490.717 59.6426 484.598 61.0297ZM513.433 88.4476C513.257 86.9831 512.931 85.5407 512.458 84.1434L473.837 92.8856L474.811 97.1899L513.458 88.442L513.433 88.4476ZM476.761 105.803L479.196 116.563L495.817 112.801C504 110.949 510.187 105.002 512.542 97.7033L476.761 105.803ZM471.887 84.2729L507.689 76.1689C504.955 73.3192 501.528 71.2288 497.742 70.1026C493.957 68.9763 489.944 68.8529 486.097 69.7444L469.456 73.5113L471.887 84.2729Z" fill="white"/>
</g>
</g>
<rect x="430.838" y="51.9185" width="103.316" height="103.316" rx="51.6579" transform="rotate(-12.7543 430.838 51.9185)" stroke="white" stroke-opacity="0.1" stroke-width="0.684211"/>
</g>
<g opacity="0.8" filter="url(#filter2_ii_32_709)">
<rect x="24.3628" y="87.9839" width="130" height="130" rx="26.6842" transform="rotate(10.5282 24.3628 87.9839)" fill="white" fill-opacity="0.1"/>
<rect x="24.6366" y="88.3827" width="129.316" height="129.316" rx="26.3421" transform="rotate(10.5282 24.6366 88.3827)" stroke="white" stroke-opacity="0.1" stroke-width="0.684211"/>
<line x1="12.5486" y1="151.553" x2="140.36" y2="175.307" stroke="white" stroke-opacity="0.1" stroke-width="0.684211"/>
<line x1="88.6049" y1="99.9233" x2="64.8514" y2="227.735" stroke="white" stroke-opacity="0.1" stroke-width="0.684211"/>
<g clip-path="url(#clip2_32_709)">
<mask id="mask2_32_709" style="mask-type:luminance" maskUnits="userSpaceOnUse" x="16" y="103" width="121" height="121">
<path d="M35.3164 103.938L136.22 122.691L117.467 223.595L16.5636 204.842L35.3164 103.938Z" fill="white"/>
</mask>
<g mask="url(#mask2_32_709)">
<path d="M136.22 122.691L35.3164 103.938L16.5636 204.842L117.467 223.595L136.22 122.691Z" fill="#2775CA"/>
<path fill-rule="evenodd" clip-rule="evenodd" d="M70.1413 197.401C88.7875 200.866 106.561 188.663 110.027 170.017C113.492 151.371 101.289 133.597 82.6431 130.132C63.997 126.666 46.223 138.869 42.7576 157.515C39.2923 176.162 51.4951 193.936 70.1413 197.401ZM84.6533 170.804C85.5636 165.906 82.9331 163.677 77.176 161.889C73.0771 160.54 72.4433 159.27 72.8106 157.294C73.1739 155.339 74.8168 154.339 77.6126 154.859C80.1352 155.328 81.3874 156.431 81.6904 158.662C81.7595 159.109 82.1291 159.461 82.5495 159.539L84.7778 159.953C85.3454 160.059 85.844 159.716 85.9456 159.17L85.9737 159.018C85.9796 155.827 84.004 152.415 80.8393 151.54L81.4128 148.454C81.5183 147.886 81.176 147.388 80.5057 147.133L78.6558 146.789C78.0882 146.683 77.4845 147.006 77.2085 147.672L76.6341 150.763C72.3243 150.549 68.9307 153.246 68.2783 156.756C67.4188 161.381 69.8787 163.708 75.6319 165.517C79.434 166.941 80.539 168.017 80.121 170.266C79.7069 172.494 77.4417 173.683 74.793 173.19C71.1352 172.511 70.1631 170.721 70.1333 168.54C70.1088 167.97 69.743 167.598 69.3226 167.52L66.9261 167.074C66.3796 166.973 65.881 167.315 65.7755 167.883L65.7482 168.03C65.6462 171.621 67.4501 174.435 71.946 175.989L71.3677 179.1C71.2623 179.667 71.6131 180.12 72.2787 180.4L74.2968 180.775C74.8434 180.877 75.2921 180.569 75.5721 179.881L76.1503 176.77C80.4835 176.858 83.9501 174.588 84.6533 170.804ZM59.3064 176.923C60.991 179.163 63.1068 181.049 65.5217 182.472C65.8874 182.844 66.2062 183.469 66.1281 183.889L65.7609 185.865C65.7109 186.134 65.6827 186.286 65.5121 186.384C65.2813 186.924 64.6621 187.096 64.1461 186.713C59.3465 184.142 55.4893 180.11 53.1327 175.202C50.776 170.293 50.0421 164.762 51.037 159.409C52.0319 154.055 54.7041 149.157 58.667 145.423C62.6299 141.689 67.678 139.312 73.0811 138.637C73.2516 138.538 73.5249 138.589 73.6721 138.616C74.2162 138.848 74.4114 139.319 74.3059 139.887L73.9425 141.842C73.8097 142.556 73.4583 142.926 72.8399 143.094C69.7814 143.595 66.8709 144.764 64.3159 146.518C61.7608 148.273 59.6239 150.569 58.0574 153.243C55.8862 156.867 54.8453 161.055 55.0679 165.274C55.2904 169.492 56.7661 173.548 59.3064 176.923ZM87.1434 141.842C87.375 141.298 87.9933 141.13 88.5101 141.509C92.1305 143.477 95.2283 146.282 97.5456 149.69C99.8628 153.098 101.333 157.01 101.832 161.1C103.564 175.188 93.6359 188.001 79.5479 189.732C79.3773 189.831 79.104 189.78 78.9569 189.753C78.4127 189.521 78.2176 189.05 78.323 188.483L78.6864 186.528C78.8192 185.813 79.1706 185.443 79.789 185.275C82.8475 184.774 85.758 183.605 88.3131 181.851C90.8682 180.097 93.0051 177.801 94.5716 175.126C96.012 172.72 96.9617 170.053 97.366 167.278C97.7703 164.503 97.6211 161.676 96.9271 158.959C96.2331 156.242 95.008 153.689 93.3225 151.448C91.6369 149.207 89.5243 147.322 87.1065 145.902C86.7408 145.529 86.4219 144.905 86.5274 144.337L86.8907 142.382C86.9454 142.088 86.9689 141.962 87.1434 141.842Z" fill="white"/>
</g>
</g>
<rect x="35.0426" y="103.539" width="103.316" height="103.316" rx="51.6579" transform="rotate(10.5282 35.0426 103.539)" stroke="white" stroke-opacity="0.1" stroke-width="0.684211"/>
</g>
<g opacity="0.6" filter="url(#filter3_ii_32_709)">
<rect x="242.165" y="0.910156" width="110" height="110" rx="22.5789" transform="rotate(20.7935 242.165 0.910156)" fill="white" fill-opacity="0.1"/>
<rect x="242.332" y="1.28354" width="109.421" height="109.421" rx="22.2895" transform="rotate(20.7935 242.332 1.28354)" stroke="white" stroke-opacity="0.1" stroke-width="0.578947"/>
<line x1="222.742" y1="52.0572" x2="325.577" y2="91.1073" stroke="white" stroke-opacity="0.1" stroke-width="0.578947"/>
<line x1="293.852" y1="20.5379" x2="254.802" y2="123.373" stroke="white" stroke-opacity="0.1" stroke-width="0.578947"/>
<g clip-path="url(#clip3_32_709)">
<mask id="mask3_32_709" style="mask-type:luminance" maskUnits="userSpaceOnUse" x="218" y="15" width="113" height="113">
<path d="M248.879 15.8455L330.064 46.6745L299.235 127.86L218.05 97.0312L248.879 15.8455Z" fill="white"/>
</mask>
<g mask="url(#mask3_32_709)">
<path d="M330.064 46.6745L248.879 15.8455L218.05 97.0312L299.235 127.86L330.064 46.6745Z" fill="#00E98D"/>
<path d="M244.478 76.6366L274.34 87.9765L269.379 101.041L239.517 89.7007L244.478 76.6366ZM308.598 54.0049L276.868 41.9559L264.819 73.686L296.549 85.735L300.801 74.5382L282.135 67.45L285.68 58.1137L304.346 65.2018L308.598 54.0049Z" fill="white"/>
</g>
</g>
<rect x="248.711" y="15.4721" width="87.4211" height="87.4211" rx="43.7105" transform="rotate(20.7935 248.711 15.4721)" stroke="white" stroke-opacity="0.1" stroke-width="0.578947"/>
</g>
<defs>
<filter id="filter0_ii_32_709" x="196.284" y="218.579" width="183.432" height="183.432" filterUnits="userSpaceOnUse" color-interpolation-filters="sRGB">
<feFlood flood-opacity="0" result="BackgroundImageFix"/>
<feBlend mode="normal" in="SourceGraphic" in2="BackgroundImageFix" result="shape"/>
<feColorMatrix in="SourceAlpha" type="matrix" values="0 0 0 0 0 0 0 0 0 0 0 0 0 0 0 0 0 0 127 0" result="hardAlpha"/>
<feOffset/>
<feGaussianBlur stdDeviation="5.43947"/>
<feComposite in2="hardAlpha" operator="arithmetic" k2="-1" k3="1"/>
<feColorMatrix type="matrix" values="0 0 0 0 1 0 0 0 0 1 0 0 0 0 1 0 0 0 0.25 0"/>
<feBlend mode="normal" in2="shape" result="effect1_innerShadow_32_709"/>
<feColorMatrix in="SourceAlpha" type="matrix" values="0 0 0 0 0 0 0 0 0 0 0 0 0 0 0 0 0 0 127 0" result="hardAlpha"/>
<feOffset dy="4.10526"/>
<feGaussianBlur stdDeviation="3.25"/>
<feComposite in2="hardAlpha" operator="arithmetic" k2="-1" k3="1"/>
<feColorMatrix type="matrix" values="0 0 0 0 1 0 0 0 0 1 0 0 0 0 1 0 0 0 0.25 0"/>
<feBlend mode="normal" in2="effect1_innerShadow_32_709" result="effect2_innerShadow_32_709"/>
</filter>
<filter id="filter1_ii_32_709" x="398.459" y="-3.27017" width="188.335" height="188.335" filterUnits="userSpaceOnUse" color-interpolation-filters="sRGB">
<feFlood flood-opacity="0" result="BackgroundImageFix"/>
<feBlend mode="normal" in="SourceGraphic" in2="BackgroundImageFix" result="shape"/>
<feColorMatrix in="SourceAlpha" type="matrix" values="0 0 0 0 0 0 0 0 0 0 0 0 0 0 0 0 0 0 127 0" result="hardAlpha"/>
<feOffset/>
<feGaussianBlur stdDeviation="5.43947"/>
<feComposite in2="hardAlpha" operator="arithmetic" k2="-1" k3="1"/>
<feColorMatrix type="matrix" values="0 0 0 0 1 0 0 0 0 1 0 0 0 0 1 0 0 0 0.25 0"/>
<feBlend mode="normal" in2="shape" result="effect1_innerShadow_32_709"/>
<feColorMatrix in="SourceAlpha" type="matrix" values="0 0 0 0 0 0 0 0 0 0 0 0 0 0 0 0 0 0 127 0" result="hardAlpha"/>
<feOffset dy="4.10526"/>
<feGaussianBlur stdDeviation="3.25"/>
<feComposite in2="hardAlpha" operator="arithmetic" k2="-1" k3="1"/>
<feColorMatrix type="matrix" values="0 0 0 0 1 0 0 0 0 1 0 0 0 0 1 0 0 0 0.25 0"/>
<feBlend mode="normal" in2="effect1_innerShadow_32_709" result="effect2_innerShadow_32_709"/>
</filter>
<filter id="filter2_ii_32_709" x="-15.8117" y="71.5628" width="184.407" height="184.407" filterUnits="userSpaceOnUse" color-interpolation-filters="sRGB">
<feFlood flood-opacity="0" result="BackgroundImageFix"/>
<feBlend mode="normal" in="SourceGraphic" in2="BackgroundImageFix" result="shape"/>
<feColorMatrix in="SourceAlpha" type="matrix" values="0 0 0 0 0 0 0 0 0 0 0 0 0 0 0 0 0 0 127 0" result="hardAlpha"/>
<feOffset/>
<feGaussianBlur stdDeviation="5.43947"/>
<feComposite in2="hardAlpha" operator="arithmetic" k2="-1" k3="1"/>
<feColorMatrix type="matrix" values="0 0 0 0 1 0 0 0 0 1 0 0 0 0 1 0 0 0 0.25 0"/>
<feBlend mode="normal" in2="shape" result="effect1_innerShadow_32_709"/>
<feColorMatrix in="SourceAlpha" type="matrix" values="0 0 0 0 0 0 0 0 0 0 0 0 0 0 0 0 0 0 127 0" result="hardAlpha"/>
<feOffset dy="4.10526"/>
<feGaussianBlur stdDeviation="3.25"/>
<feComposite in2="hardAlpha" operator="arithmetic" k2="-1" k3="1"/>
<feColorMatrix type="matrix" values="0 0 0 0 1 0 0 0 0 1 0 0 0 0 1 0 0 0 0.25 0"/>
<feBlend mode="normal" in2="effect1_innerShadow_32_709" result="effect2_innerShadow_32_709"/>
</filter>
<filter id="filter3_ii_32_709" x="189.22" y="-12.9846" width="169.675" height="169.675" filterUnits="userSpaceOnUse" color-interpolation-filters="sRGB">
<feFlood flood-opacity="0" result="BackgroundImageFix"/>
<feBlend mode="normal" in="SourceGraphic" in2="BackgroundImageFix" result="shape"/>
<feColorMatrix in="SourceAlpha" type="matrix" values="0 0 0 0 0 0 0 0 0 0 0 0 0 0 0 0 0 0 127 0" result="hardAlpha"/>
<feOffset/>
<feGaussianBlur stdDeviation="4.60263"/>
<feComposite in2="hardAlpha" operator="arithmetic" k2="-1" k3="1"/>
<feColorMatrix type="matrix" values="0 0 0 0 1 0 0 0 0 1 0 0 0 0 1 0 0 0 0.25 0"/>
<feBlend mode="normal" in2="shape" result="effect1_innerShadow_32_709"/>
<feColorMatrix in="SourceAlpha" type="matrix" values="0 0 0 0 0 0 0 0 0 0 0 0 0 0 0 0 0 0 127 0" result="hardAlpha"/>
<feOffset dy="3.47368"/>
<feGaussianBlur stdDeviation="2.75"/>
<feComposite in2="hardAlpha" operator="arithmetic" k2="-1" k3="1"/>
<feColorMatrix type="matrix" values="0 0 0 0 1 0 0 0 0 1 0 0 0 0 1 0 0 0 0.25 0"/>
<feBlend mode="normal" in2="effect1_innerShadow_32_709" result="effect2_innerShadow_32_709"/>
</filter>
<clipPath id="clip0_32_709">
<rect x="228.557" y="268.664" width="102.632" height="102.632" rx="51.3158" transform="rotate(-9.99506 228.557 268.664)" fill="white"/>
</clipPath>
<clipPath id="clip1_32_709">
<rect x="431.248" y="52.1766" width="102.632" height="102.632" rx="51.3158" transform="rotate(-12.7543 431.248 52.1766)" fill="white"/>
</clipPath>
<clipPath id="clip2_32_709">
<rect x="35.3164" y="103.938" width="102.632" height="102.632" rx="51.3158" transform="rotate(10.5282 35.3164 103.938)" fill="white"/>
</clipPath>
<clipPath id="clip3_32_709">
<rect x="248.879" y="15.8455" width="86.8421" height="86.8421" rx="43.4211" transform="rotate(20.7935 248.879 15.8455)" fill="white"/>
</clipPath>
</defs>
</svg>
