<svg width="153" height="153" viewBox="0 0 153 153" fill="none" xmlns="http://www.w3.org/2000/svg">
<g opacity="0.8" filter="url(#filter0_ii_24_129)">
<rect x="24.3628" y="0.983887" width="130" height="130" rx="26.6842" transform="rotate(10.5282 24.3628 0.983887)" fill="white" fill-opacity="0.1"/>
<rect x="24.6366" y="1.38274" width="129.316" height="129.316" rx="26.3421" transform="rotate(10.5282 24.6366 1.38274)" stroke="white" stroke-opacity="0.1" stroke-width="0.684211"/>
<line x1="12.5486" y1="64.5533" x2="140.36" y2="88.3068" stroke="white" stroke-opacity="0.1" stroke-width="0.684211"/>
<line x1="88.6049" y1="12.9233" x2="64.8514" y2="140.735" stroke="white" stroke-opacity="0.1" stroke-width="0.684211"/>
<g clip-path="url(#clip0_24_129)">
<mask id="mask0_24_129" style="mask-type:luminance" maskUnits="userSpaceOnUse" x="16" y="16" width="121" height="121">
<path d="M35.3164 16.9381L136.22 35.6909L117.467 136.595L16.5636 117.842L35.3164 16.9381Z" fill="white"/>
</mask>
<g mask="url(#mask0_24_129)">
<path d="M136.22 35.6909L35.3164 16.9381L16.5636 117.842L117.467 136.595L136.22 35.6909Z" fill="#2775CA"/>
<path fill-rule="evenodd" clip-rule="evenodd" d="M70.1413 110.401C88.7875 113.866 106.561 101.663 110.027 83.0172C113.492 64.3711 101.289 46.5971 82.6431 43.1317C63.997 39.6664 46.223 51.8692 42.7576 70.5154C39.2923 89.1616 51.4951 106.936 70.1413 110.401ZM84.6533 83.8038C85.5636 78.9058 82.9331 76.6771 77.176 74.8894C73.0771 73.5405 72.4433 72.2701 72.8106 70.294C73.1739 68.339 74.8168 67.3395 77.6126 67.8591C80.1352 68.3279 81.3874 69.4305 81.6904 71.6616C81.7595 72.1094 82.1291 72.4608 82.5495 72.539L84.7778 72.9531C85.3454 73.0586 85.844 72.7163 85.9456 72.1697L85.9737 72.0184C85.9796 68.8269 84.004 65.4151 80.8393 64.5398L81.4128 61.4539C81.5183 60.8863 81.176 60.3877 80.5057 60.1326L78.6558 59.7888C78.0882 59.6834 77.4845 60.0061 77.2085 60.6725L76.6341 63.7627C72.3243 63.5489 68.9307 66.2456 68.2783 69.7562C67.4188 74.3809 69.8787 76.7084 75.6319 78.5171C79.434 79.9414 80.539 81.0166 80.121 83.2659C79.7069 85.4942 77.4417 86.6826 74.793 86.1903C71.1352 85.5105 70.1631 83.7205 70.1333 81.5402C70.1088 80.9702 69.743 80.5978 69.3226 80.5197L66.9261 80.0743C66.3796 79.9727 65.881 80.315 65.7755 80.8826L65.7482 81.0297C65.6462 84.6209 67.4501 87.4354 71.946 88.9886L71.3677 92.0998C71.2623 92.6674 71.6131 93.1197 72.2787 93.4L74.2968 93.7751C74.8434 93.8766 75.2921 93.5686 75.5721 92.8812L76.1503 89.77C80.4835 89.8576 83.9501 87.5877 84.6533 83.8038ZM59.3064 89.9235C60.991 92.1634 63.1068 94.0485 65.5217 95.4716C65.8874 95.844 66.2062 96.4687 66.1281 96.8892L65.7609 98.8652C65.7109 99.1343 65.6827 99.2856 65.5121 99.3844C65.2813 99.9244 64.6621 100.096 64.1461 99.7134C59.3465 97.142 55.4893 93.1104 53.1327 88.2017C50.776 83.2931 50.0421 77.762 51.037 72.4086C52.0319 67.0552 54.7041 62.1571 58.667 58.423C62.6299 54.6888 67.678 52.3122 73.0811 51.6369C73.2516 51.5382 73.5249 51.5889 73.6721 51.6163C74.2162 51.8479 74.4114 52.3191 74.3059 52.8867L73.9425 54.8417C73.8097 55.5565 73.4583 55.9261 72.8399 56.0939C69.7814 56.595 66.8709 57.7643 64.3159 59.5185C61.7608 61.2727 59.6239 63.5687 58.0574 66.243C55.8862 69.8666 54.8453 74.0555 55.0679 78.2739C55.2904 82.4922 56.7661 86.5484 59.3064 89.9235ZM87.1434 54.8419C87.375 54.2978 87.9933 54.13 88.5101 54.5088C92.1305 56.4773 95.2283 59.2822 97.5456 62.6899C99.8628 66.0976 101.333 70.0096 101.832 74.1001C103.564 88.1882 93.6359 101.001 79.5479 102.732C79.3773 102.831 79.104 102.78 78.9569 102.753C78.4127 102.521 78.2176 102.05 78.323 101.483L78.6864 99.5276C78.8192 98.8128 79.1706 98.4432 79.789 98.2754C82.8475 97.7743 85.758 96.605 88.3131 94.8508C90.8682 93.0966 93.0051 90.8006 94.5716 88.1263C96.012 85.7204 96.9617 83.0531 97.366 80.2782C97.7703 77.5033 97.6211 74.6759 96.9271 71.959C96.2331 69.2421 95.008 66.6895 93.3225 64.4484C91.6369 62.2074 89.5243 60.3223 87.1065 58.9019C86.7408 58.5295 86.4219 57.9048 86.5274 57.3372L86.8907 55.3822C86.9454 55.0879 86.9689 54.9617 87.1434 54.8419Z" fill="white"/>
</g>
</g>
<rect x="35.0426" y="16.5393" width="103.316" height="103.316" rx="51.6579" transform="rotate(10.5282 35.0426 16.5393)" stroke="white" stroke-opacity="0.1" stroke-width="0.684211"/>
</g>
<defs>
<filter id="filter0_ii_24_129" x="-15.8117" y="-15.4372" width="184.407" height="184.407" filterUnits="userSpaceOnUse" color-interpolation-filters="sRGB">
<feFlood flood-opacity="0" result="BackgroundImageFix"/>
<feBlend mode="normal" in="SourceGraphic" in2="BackgroundImageFix" result="shape"/>
<feColorMatrix in="SourceAlpha" type="matrix" values="0 0 0 0 0 0 0 0 0 0 0 0 0 0 0 0 0 0 127 0" result="hardAlpha"/>
<feOffset/>
<feGaussianBlur stdDeviation="5.43947"/>
<feComposite in2="hardAlpha" operator="arithmetic" k2="-1" k3="1"/>
<feColorMatrix type="matrix" values="0 0 0 0 1 0 0 0 0 1 0 0 0 0 1 0 0 0 0.25 0"/>
<feBlend mode="normal" in2="shape" result="effect1_innerShadow_24_129"/>
<feColorMatrix in="SourceAlpha" type="matrix" values="0 0 0 0 0 0 0 0 0 0 0 0 0 0 0 0 0 0 127 0" result="hardAlpha"/>
<feOffset dy="4.10526"/>
<feGaussianBlur stdDeviation="3.25"/>
<feComposite in2="hardAlpha" operator="arithmetic" k2="-1" k3="1"/>
<feColorMatrix type="matrix" values="0 0 0 0 1 0 0 0 0 1 0 0 0 0 1 0 0 0 0.25 0"/>
<feBlend mode="normal" in2="effect1_innerShadow_24_129" result="effect2_innerShadow_24_129"/>
</filter>
<clipPath id="clip0_24_129">
<rect x="35.3164" y="16.9381" width="102.632" height="102.632" rx="51.3158" transform="rotate(10.5282 35.3164 16.9381)" fill="white"/>
</clipPath>
</defs>
</svg>
