<svg width="222" height="222" viewBox="0 0 222 222" fill="none" xmlns="http://www.w3.org/2000/svg">
<path d="M113.52 72.2141C112.779 71.403 111.731 70.9409 110.633 70.9409C131.234 70.9409 148.17 86.6366 150.135 106.722H128.65C127.542 93.9046 122.245 81.7656 113.52 72.2141Z" fill="white"/>
<path d="M150.135 114.543H128.65C127.542 127.361 122.245 139.5 113.52 149.052C112.779 149.863 111.731 150.325 110.633 150.325C109.534 150.325 108.486 149.863 107.745 149.052C99.0208 139.5 93.723 127.361 92.6155 114.543H71.1309C73.0951 134.629 90.0309 150.325 110.633 150.325C131.234 150.325 148.17 134.629 150.135 114.543Z" fill="white"/>
<path d="M71.1309 106.722C73.0951 86.6366 90.0309 70.9409 110.633 70.9409C109.534 70.9409 108.486 71.403 107.745 72.2141C99.0208 81.7656 93.723 93.9046 92.6155 106.722H71.1309Z" fill="white"/>
<path d="M110.633 140.32C104.926 132.838 101.406 123.913 100.47 114.543H120.795C119.86 123.913 116.339 132.838 110.633 140.32Z" fill="white"/>
<path d="M110.633 80.9455C104.926 88.4274 101.406 97.3528 100.47 106.722H120.795C119.86 97.3528 116.339 88.4274 110.633 80.9455Z" fill="white"/>
</svg>
