<svg width="428" height="428" viewBox="0 0 428 428" fill="none" xmlns="http://www.w3.org/2000/svg">
<g clip-path="url(#clip0_173_175)">
<mask id="mask0_173_175" style="mask-type:luminance" maskUnits="userSpaceOnUse" x="35" y="135" width="88" height="87">
<path d="M35.5557 203.647L53.5955 135.016L122.226 153.056L104.186 221.687L35.5557 203.647Z" fill="white"/>
</mask>
<g mask="url(#mask0_173_175)">
<path d="M53.5955 135.016L35.5557 203.647L104.186 221.687L122.226 153.056L53.5955 135.016Z" fill="#009393" fill-opacity="0.2"/>
<path d="M98.454 183.162L68.5138 200.912L56.2147 187.905L64.0067 158.261L81.1121 152.983L98.454 183.162ZM77.5158 175.096L74.5921 174.327C75.9417 170.071 77.8387 166.265 79.2566 165.305C80.1457 167.089 79.7045 172.52 78.2998 177.864C76.8951 183.208 74.6087 188.154 72.9575 189.27C72.1915 187.749 72.4261 183.494 73.3203 179.117L76.256 179.889L77.5158 175.096ZM72.9455 189.267L74.7069 189.73C76.1217 188.782 78.0067 184.974 79.3834 180.711L85.8418 182.409L87.1017 177.616L80.6312 175.915C81.5494 171.545 81.772 167.286 81.0061 165.765L77.4952 164.842C76.0805 165.79 74.1803 169.608 72.8188 173.861L70.3264 173.206L72.2162 166.017L68.6215 165.072L63.5822 184.244L67.1769 185.189L69.0666 177.999L71.5589 178.654C70.6496 183.04 70.4301 187.286 71.1961 188.807L72.9455 189.267Z" fill="#009393"/>
</g>
</g>
<rect x="36.7006" y="202.979" width="69.0888" height="69.0888" rx="22.8509" transform="rotate(-75.2728 36.7006 202.979)" stroke="white" stroke-width="1.87327"/>
<g clip-path="url(#clip1_173_175)">
<mask id="mask1_173_175" style="mask-type:luminance" maskUnits="userSpaceOnUse" x="206" y="35" width="88" height="88">
<path d="M224.637 35.6289L293.197 53.9335L274.893 122.494L206.332 104.19L224.637 35.6289Z" fill="white"/>
</mask>
<g mask="url(#mask1_173_175)">
<path d="M293.197 53.9335L224.637 35.6289L206.332 104.19L274.893 122.494L293.197 53.9335Z" fill="#FDC134" fill-opacity="0.2"/>
<path fill-rule="evenodd" clip-rule="evenodd" d="M253.382 62.9539L239.79 59.3251L237.054 69.5715L233.64 68.66L232.424 73.2142L235.838 74.1257L235.231 76.4017L231.817 75.4903L230.601 80.0445L234.015 80.956L231.28 91.2002L244.872 94.8291C248.107 95.6957 251.529 95.5623 254.687 94.4465C257.845 93.3308 260.591 91.2849 262.564 88.5782L265.888 89.4655L267.104 84.9113L264.781 84.2913C265.04 83.5486 265.243 82.7879 265.389 82.0153L267.711 82.6353L268.928 78.0789L265.604 77.1915C265.242 73.8622 263.88 70.7206 261.699 68.1795C259.517 65.6384 256.618 63.8167 253.382 62.9539ZM260.206 83.0673C260.486 82.3316 260.69 81.5689 260.813 80.7913L240.391 75.3388L239.783 77.6149L260.219 83.0708L260.206 83.0673ZM238.567 82.1691L237.048 87.8591L245.837 90.2055C250.164 91.3608 254.564 90.0853 257.488 87.2205L238.567 82.1691ZM241.607 70.7846L260.538 75.839C259.953 73.8138 258.852 71.9752 257.343 70.5037C255.833 69.0321 253.967 67.978 251.928 67.4446L243.128 65.0952L241.607 70.7846Z" fill="#FDC134"/>
</g>
</g>
<rect x="225.3" y="36.7764" width="69.0888" height="69.0888" rx="22.8509" transform="rotate(14.9484 225.3 36.7764)" stroke="white" stroke-width="1.87327"/>
<g clip-path="url(#clip2_173_175)">
<mask id="mask2_173_175" style="mask-type:luminance" maskUnits="userSpaceOnUse" x="304" y="206" width="88" height="88">
<path d="M391.91 225.363L373.341 293.853L304.852 275.284L323.421 206.794L391.91 225.363Z" fill="white"/>
</mask>
<g mask="url(#mask2_173_175)">
<path d="M373.341 293.853L391.91 225.363L323.421 206.794L304.852 275.284L373.341 293.853Z" fill="#2EB6EA" fill-opacity="0.2"/>
<g clip-path="url(#clip3_173_175)">
<path d="M332.026 249.023C331.45 256.587 336.57 263.828 344.161 265.887C351.753 267.945 359.553 264.207 362.876 257.387L358.754 256.269C357.765 257.575 356.193 258.675 353.63 259.352C353.496 259.316 352.429 256.249 351.93 254.802C355.99 254.28 356.664 251.946 355.614 250.614C354.111 248.708 352.202 250.808 350.402 253.318C348.369 256.159 344.941 257.793 341.407 256.786C337.953 255.803 336.809 252.835 336.55 250.249L332.026 249.023Z" fill="#745DDF"/>
<path d="M364.472 252.598L368.164 238.98L352.321 234.684C344.453 232.702 336.327 236.79 333.346 244.159L337.755 245.354C339.096 242.887 341.775 240.853 345.958 241.666L346.042 246.355C344.697 245.961 341.836 245.811 341.161 248.368C340.487 250.925 342.177 251.977 343.104 252.184C343.68 252.444 345.265 252.362 347.022 249.957C349.214 246.95 352.477 244.59 355.792 245.488C359.363 246.457 360.132 248.967 360.194 251.438L364.472 252.598Z" fill="#2EB6EA"/>
</g>
</g>
</g>
<rect x="390.76" y="226.022" width="69.0888" height="69.0888" rx="22.8509" transform="rotate(105.17 390.76 226.022)" stroke="white" stroke-width="1.87327"/>
<g clip-path="url(#clip4_173_175)">
<mask id="mask3_173_175" style="mask-type:luminance" maskUnits="userSpaceOnUse" x="133" y="304" width="88" height="88">
<path d="M201.526 391.89L133.109 373.057L151.942 304.639L220.36 323.473L201.526 391.89Z" fill="white"/>
</mask>
<g mask="url(#mask3_173_175)">
<path d="M133.109 373.057L201.526 391.89L220.36 323.473L151.942 304.639L133.109 373.057Z" fill="#2775CA" fill-opacity="0.2"/>
<path fill-rule="evenodd" clip-rule="evenodd" d="M181.771 328.757C171.176 325.84 160.315 332.013 157.398 342.608C154.482 353.203 160.654 364.064 171.249 366.981C181.845 369.898 192.706 363.725 195.622 353.13C198.539 342.535 192.367 331.673 181.771 328.757ZM172.086 343.4C171.32 346.183 172.73 347.599 175.966 348.914C178.266 349.894 178.569 350.659 178.26 351.782C177.954 352.893 176.957 353.389 175.368 352.952C173.935 352.557 173.266 351.859 173.201 350.556C173.183 350.294 172.987 350.073 172.748 350.007L171.482 349.659C171.159 349.57 170.854 349.743 170.769 350.054L170.745 350.14C170.585 351.982 171.558 354.049 173.342 354.709L172.86 356.463C172.771 356.786 172.944 357.09 173.318 357.27L174.37 357.56C174.692 357.649 175.056 357.492 175.249 357.121L175.732 355.365C178.21 355.7 180.301 354.31 180.851 352.315C181.574 349.687 180.268 348.222 177.035 346.895C174.91 345.886 174.325 345.211 174.677 343.933C175.025 342.667 176.391 342.092 177.896 342.506C179.975 343.079 180.448 344.16 180.358 345.42C180.345 345.75 180.537 345.983 180.776 346.049L182.138 346.424C182.449 346.509 182.753 346.336 182.842 346.014L182.865 345.93C183.1 343.862 182.197 342.148 179.678 341.031L180.164 339.263C180.253 338.94 180.073 338.662 179.702 338.467L178.556 338.152C178.245 338.066 177.971 338.222 177.775 338.605L177.289 340.373C174.791 340.11 172.678 341.25 172.086 343.4ZM187.021 341.112C186.159 339.736 185.03 338.544 183.705 337.603C183.512 337.37 183.359 336.994 183.425 336.755L183.734 335.632C183.776 335.479 183.8 335.393 183.903 335.345C184.063 335.044 184.429 334.975 184.708 335.222C187.352 336.942 189.381 339.459 190.501 342.409C191.62 345.359 191.773 348.588 190.935 351.63C190.098 354.672 188.314 357.369 185.843 359.33C183.372 361.291 180.34 362.416 177.188 362.54C177.084 362.589 176.929 362.546 176.846 362.523C176.543 362.363 176.453 362.081 176.542 361.758L176.848 360.647C176.96 360.241 177.181 360.045 177.546 359.979C179.336 359.84 181.074 359.307 182.635 358.42C184.197 357.533 185.543 356.312 186.579 354.845C188.011 352.86 188.817 350.492 188.896 348.046C188.975 345.599 188.322 343.185 187.021 341.112ZM169.226 359.999C169.066 360.302 168.701 360.368 168.421 360.124C166.427 358.81 164.776 357.038 163.606 354.957C162.435 352.876 161.779 350.545 161.691 348.159C161.384 339.94 167.745 333.03 175.964 332.722C176.067 332.674 176.222 332.716 176.306 332.739C176.609 332.9 176.698 333.182 176.61 333.504L176.304 334.615C176.192 335.021 175.971 335.217 175.606 335.284C173.815 335.423 172.077 335.955 170.516 336.842C168.955 337.73 167.608 338.95 166.572 340.417C165.623 341.736 164.943 343.229 164.574 344.811C164.204 346.393 164.151 348.033 164.418 349.636C164.686 351.239 165.267 352.772 166.131 354.149C166.994 355.526 168.121 356.718 169.447 357.657C169.64 357.89 169.793 358.266 169.704 358.589L169.399 359.699C169.353 359.867 169.333 359.938 169.226 359.999Z" fill="#2775CA"/>
</g>
</g>
<rect x="200.871" y="390.738" width="69.0888" height="69.0888" rx="22.8509" transform="rotate(-164.609 200.871 390.738)" stroke="white" stroke-width="1.87327"/>
<defs>
<clipPath id="clip0_173_175">
<rect x="35.5566" y="203.647" width="70.9621" height="70.9621" rx="23.7875" transform="rotate(-75.2728 35.5566 203.647)" fill="white"/>
</clipPath>
<clipPath id="clip1_173_175">
<rect x="224.637" y="35.6299" width="70.9621" height="70.9621" rx="23.7875" transform="rotate(14.9484 224.637 35.6299)" fill="white"/>
</clipPath>
<clipPath id="clip2_173_175">
<rect x="391.909" y="225.364" width="70.9621" height="70.9621" rx="23.7875" transform="rotate(105.17 391.909 225.364)" fill="white"/>
</clipPath>
<clipPath id="clip3_173_175">
<rect width="43" height="43" fill="white" transform="translate(374.758 235.199) rotate(105.17)"/>
</clipPath>
<clipPath id="clip4_173_175">
<rect x="201.525" y="391.889" width="70.9621" height="70.9621" rx="23.7875" transform="rotate(-164.609 201.525 391.889)" fill="white"/>
</clipPath>
</defs>
</svg>
