<svg width="429" height="429" viewBox="0 0 429 429" fill="none" xmlns="http://www.w3.org/2000/svg">
<g clip-path="url(#clip0_181_665)">
<mask id="mask0_181_665" style="mask-type:luminance" maskUnits="userSpaceOnUse" x="36" y="135" width="88" height="87">
<path d="M36.4658 203.767L54.5056 135.136L123.136 153.176L105.097 221.806L36.4658 203.767Z" fill="white"/>
</mask>
<g mask="url(#mask0_181_665)">
<path d="M54.5056 135.136L36.4658 203.767L105.097 221.806L123.136 153.176L54.5056 135.136Z" fill="#009393" fill-opacity="0.2"/>
<path d="M99.3642 183.281L69.424 201.032L57.1248 188.025L64.9169 158.38L82.0223 153.102L99.3642 183.281ZM78.426 175.215L75.5023 174.447C76.8518 170.19 78.7489 166.384 80.1668 165.425C81.0558 167.209 80.6147 172.639 79.21 177.983C77.8053 183.328 75.5189 188.273 73.8676 189.389C73.1016 187.869 73.3363 183.613 74.2305 179.237L77.1661 180.008L78.426 175.215ZM73.8556 189.386L75.617 189.849C77.0318 188.902 78.9169 185.093 80.2935 180.83L86.752 182.528L88.0118 177.735L81.5414 176.034C82.4595 171.664 82.6822 167.405 81.9162 165.885L78.4054 164.962C76.9906 165.909 75.0904 169.727 73.7289 173.981L71.2366 173.326L73.1264 166.136L69.5317 165.191L64.4923 184.363L68.087 185.308L69.9768 178.119L72.4691 178.774C71.5598 183.159 71.3403 187.406 72.1062 188.926L73.8556 189.386Z" fill="#009393"/>
</g>
</g>
<rect x="37.6108" y="203.099" width="69.0888" height="69.0888" rx="22.8509" transform="rotate(-75.2728 37.6108 203.099)" stroke="white" stroke-width="1.87327"/>
<g clip-path="url(#clip1_181_665)">
<mask id="mask1_181_665" style="mask-type:luminance" maskUnits="userSpaceOnUse" x="207" y="35" width="88" height="88">
<path d="M225.546 35.7483L294.107 54.0529L275.802 122.614L207.241 104.309L225.546 35.7483Z" fill="white"/>
</mask>
<g mask="url(#mask1_181_665)">
<path d="M294.107 54.0529L225.546 35.7483L207.241 104.309L275.802 122.614L294.107 54.0529Z" fill="#FDC134" fill-opacity="0.2"/>
<path fill-rule="evenodd" clip-rule="evenodd" d="M254.292 63.0733L240.7 59.4444L237.964 69.6909L234.55 68.7794L233.334 73.3336L236.748 74.2451L236.14 76.5211L232.726 75.6096L231.511 80.1639L234.925 81.0754L232.189 91.3196L245.782 94.9485C249.017 95.8151 252.439 95.6817 255.597 94.5659C258.755 93.4501 261.501 91.4043 263.474 88.6976L266.797 89.5849L268.013 85.0307L265.691 84.4107C265.949 83.668 266.152 82.9073 266.299 82.1347L268.621 82.7547L269.838 78.1983L266.514 77.3109C266.151 73.9816 264.79 70.84 262.608 68.2989C260.427 65.7578 257.528 63.9361 254.292 63.0733ZM261.115 83.1867C261.396 82.451 261.6 81.6883 261.723 80.9107L241.301 75.4582L240.693 77.7342L261.129 83.1902L261.115 83.1867ZM239.477 82.2885L237.958 87.9785L246.747 90.3249C251.074 91.4802 255.473 90.2047 258.398 87.3399L239.477 82.2885ZM242.517 70.904L261.448 75.9584C260.863 73.9331 259.762 72.0946 258.252 70.6231C256.743 69.1515 254.877 68.0973 252.838 67.564L244.038 65.2146L242.517 70.904Z" fill="#FDC134"/>
</g>
</g>
<rect x="226.21" y="36.8958" width="69.0888" height="69.0888" rx="22.8509" transform="rotate(14.9484 226.21 36.8958)" stroke="white" stroke-width="1.87327"/>
<g clip-path="url(#clip2_181_665)">
<mask id="mask2_181_665" style="mask-type:luminance" maskUnits="userSpaceOnUse" x="305" y="206" width="88" height="88">
<path d="M392.82 225.483L374.251 293.972L305.761 275.403L324.33 206.914L392.82 225.483Z" fill="white"/>
</mask>
<g mask="url(#mask2_181_665)">
<path d="M374.251 293.972L392.82 225.483L324.33 206.914L305.761 275.403L374.251 293.972Z" fill="#2EB6EA" fill-opacity="0.2"/>
<g clip-path="url(#clip3_181_665)">
<path d="M332.936 249.143C332.359 256.707 337.48 263.948 345.071 266.006C352.662 268.064 360.463 264.326 363.786 257.507L359.663 256.389C358.674 257.695 357.103 258.795 354.539 259.472C354.406 259.435 353.338 256.369 352.84 254.921C356.9 254.4 357.574 252.065 356.524 250.734C355.021 248.828 353.111 250.928 351.312 253.438C349.279 256.278 345.851 257.912 342.317 256.906C338.863 255.923 337.719 252.954 337.46 250.369L332.936 249.143Z" fill="#745DDF"/>
<path d="M365.381 252.717L369.073 239.1L353.23 234.804C345.362 232.821 337.237 236.909 334.255 244.278L338.664 245.474C340.005 243.006 342.684 240.972 346.867 241.785L346.951 246.475C345.606 246.081 342.745 245.93 342.071 248.488C341.396 251.045 343.086 252.097 344.013 252.304C344.589 252.564 346.174 252.481 347.931 250.076C350.124 247.07 353.387 244.709 356.701 245.608C360.272 246.576 361.041 249.087 361.103 251.557L365.381 252.717Z" fill="#2EB6EA"/>
</g>
</g>
</g>
<rect x="391.67" y="226.142" width="69.0888" height="69.0888" rx="22.8509" transform="rotate(105.17 391.67 226.142)" stroke="white" stroke-width="1.87327"/>
<g clip-path="url(#clip4_181_665)">
<mask id="mask3_181_665" style="mask-type:luminance" maskUnits="userSpaceOnUse" x="134" y="304" width="88" height="89">
<path d="M202.436 392.009L134.018 373.176L152.852 304.759L221.269 323.592L202.436 392.009Z" fill="white"/>
</mask>
<g mask="url(#mask3_181_665)">
<path d="M134.018 373.176L202.436 392.009L221.269 323.592L152.852 304.759L134.018 373.176Z" fill="#2775CA" fill-opacity="0.2"/>
<path fill-rule="evenodd" clip-rule="evenodd" d="M182.68 328.876C172.085 325.96 161.224 332.132 158.307 342.727C155.391 353.323 161.563 364.184 172.158 367.1C182.754 370.017 193.615 363.845 196.532 353.249C199.448 342.654 193.276 331.793 182.68 328.876ZM172.996 343.519C172.229 346.303 173.639 347.719 176.875 349.033C179.175 350.014 179.479 350.778 179.169 351.901C178.864 353.012 177.866 353.508 176.277 353.071C174.844 352.676 174.175 351.978 174.11 350.675C174.092 350.413 173.896 350.192 173.657 350.127L172.391 349.778C172.068 349.689 171.764 349.862 171.678 350.173L171.654 350.259C171.494 352.101 172.467 354.168 174.251 354.829L173.769 356.582C173.68 356.905 173.853 357.21 174.228 357.39L175.279 357.679C175.601 357.768 175.966 357.611 176.158 357.24L176.641 355.484C179.119 355.819 181.211 354.429 181.76 352.434C182.483 349.806 181.177 348.342 177.944 347.015C175.819 346.006 175.234 345.331 175.586 344.053C175.934 342.786 177.301 342.212 178.806 342.626C180.884 343.198 181.357 344.279 181.268 345.539C181.254 345.87 181.447 346.103 181.686 346.169L183.047 346.543C183.358 346.629 183.662 346.456 183.751 346.133L183.774 346.05C184.01 343.981 183.106 342.268 180.587 341.15L181.074 339.382C181.162 339.06 180.982 338.781 180.611 338.587L179.465 338.271C179.154 338.186 178.88 338.341 178.685 338.725L178.198 340.492C175.7 340.229 173.587 341.369 172.996 343.519ZM187.93 341.231C187.068 339.855 185.939 338.663 184.614 337.723C184.422 337.49 184.268 337.113 184.334 336.874L184.643 335.752C184.685 335.599 184.709 335.513 184.812 335.464C184.972 335.164 185.338 335.095 185.617 335.341C188.262 337.062 190.291 339.579 191.41 342.528C192.53 345.478 192.682 348.708 191.844 351.75C191.007 354.792 189.224 357.488 186.752 359.449C184.281 361.411 181.25 362.535 178.097 362.659C177.994 362.708 177.838 362.665 177.755 362.642C177.452 362.482 177.362 362.2 177.451 361.878L177.757 360.767C177.869 360.361 178.09 360.165 178.455 360.098C180.246 359.959 181.983 359.427 183.545 358.54C185.106 357.652 186.453 356.432 187.488 354.965C188.92 352.979 189.727 350.612 189.805 348.165C189.884 345.719 189.231 343.305 187.93 341.231ZM170.135 360.118C169.975 360.421 169.61 360.488 169.33 360.244C167.336 358.929 165.686 357.158 164.515 355.076C163.345 352.995 162.688 350.664 162.601 348.278C162.293 340.059 168.654 333.149 176.873 332.842C176.976 332.793 177.132 332.836 177.215 332.859C177.518 333.019 177.607 333.301 177.519 333.623L177.213 334.734C177.101 335.14 176.88 335.337 176.515 335.403C174.724 335.542 172.987 336.074 171.425 336.962C169.864 337.849 168.517 339.07 167.482 340.537C166.532 341.855 165.852 343.348 165.483 344.931C165.113 346.513 165.06 348.153 165.327 349.755C165.595 351.358 166.177 352.892 167.04 354.269C167.903 355.645 169.03 356.837 170.356 357.776C170.549 358.009 170.702 358.385 170.614 358.708L170.308 359.819C170.262 359.986 170.242 360.058 170.135 360.118Z" fill="#2775CA"/>
</g>
</g>
<rect x="201.781" y="390.857" width="69.0888" height="69.0888" rx="22.8509" transform="rotate(-164.609 201.781 390.857)" stroke="white" stroke-width="1.87327"/>
<defs>
<clipPath id="clip0_181_665">
<rect x="36.4668" y="203.766" width="70.9621" height="70.9621" rx="23.7875" transform="rotate(-75.2728 36.4668 203.766)" fill="white"/>
</clipPath>
<clipPath id="clip1_181_665">
<rect x="225.546" y="35.7493" width="70.9621" height="70.9621" rx="23.7875" transform="rotate(14.9484 225.546 35.7493)" fill="white"/>
</clipPath>
<clipPath id="clip2_181_665">
<rect x="392.819" y="225.483" width="70.9621" height="70.9621" rx="23.7875" transform="rotate(105.17 392.819 225.483)" fill="white"/>
</clipPath>
<clipPath id="clip3_181_665">
<rect width="43" height="43" fill="white" transform="translate(375.667 235.318) rotate(105.17)"/>
</clipPath>
<clipPath id="clip4_181_665">
<rect x="202.435" y="392.009" width="70.9621" height="70.9621" rx="23.7875" transform="rotate(-164.609 202.435 392.009)" fill="white"/>
</clipPath>
</defs>
</svg>
