<svg width="484" height="484" viewBox="0 0 484 484" fill="none" xmlns="http://www.w3.org/2000/svg">
<g clip-path="url(#clip0_173_163)">
<mask id="mask0_173_163" style="mask-type:luminance" maskUnits="userSpaceOnUse" x="390" y="201" width="83" height="82">
<path d="M472.284 201.206L472.284 282.623H390.867V201.206H472.284Z" fill="white"/>
</mask>
<g mask="url(#mask0_173_163)">
<path d="M472.284 282.623L472.284 201.206H390.867V282.623H472.284Z" fill="#2775CA" fill-opacity="0.2"/>
<path fill-rule="evenodd" clip-rule="evenodd" d="M407.619 243.126C407.619 255.734 417.755 265.869 430.363 265.869C442.971 265.869 453.106 255.734 453.106 243.126C453.106 230.517 442.971 220.382 430.363 220.382C417.755 220.382 407.619 230.517 407.619 243.126ZM426.767 249.38C430.079 249.38 431.216 247.39 431.685 243.41C432.069 240.567 432.822 239.998 434.158 239.998C435.48 239.998 436.333 240.951 436.333 242.841C436.333 244.547 435.765 245.499 434.343 245.969C434.059 246.068 433.874 246.352 433.874 246.637V248.143C433.874 248.527 434.158 248.811 434.528 248.811H434.63C436.717 248.428 438.707 246.722 438.895 244.547H440.981C441.365 244.547 441.649 244.263 441.735 243.794V242.543C441.735 242.159 441.45 241.804 440.981 241.704H438.892C438.508 238.861 436.333 236.971 433.959 236.971C430.832 236.971 429.61 238.861 429.126 242.841C428.657 245.499 428.089 246.352 426.568 246.352C425.061 246.352 424.009 245.016 424.009 243.225C424.009 240.752 425.061 239.899 426.482 239.615C426.852 239.529 427.051 239.245 427.051 238.961V237.34C427.051 236.971 426.767 236.686 426.383 236.686H426.283C423.924 237.056 422.303 238.577 421.834 241.704H419.73C419.347 241.704 419.094 241.988 418.991 242.457V243.822C418.991 244.192 419.247 244.448 419.73 244.547H421.834C422.303 247.39 424.208 249.38 426.767 249.38ZM419.688 233.556C418.428 234.929 417.453 236.541 416.816 238.293C416.617 238.577 416.248 238.861 415.963 238.861H414.627C414.445 238.861 414.343 238.861 414.258 238.762C413.877 238.676 413.689 238.293 413.877 237.909C414.974 234.459 417.141 231.448 420.063 229.312C422.985 227.175 426.511 226.024 430.131 226.024C433.751 226.024 437.277 227.175 440.199 229.312C443.121 231.448 445.288 234.459 446.386 237.909C446.471 238.008 446.471 238.193 446.471 238.293C446.386 238.676 446.101 238.861 445.718 238.861H444.396C443.912 238.861 443.628 238.676 443.443 238.293C442.744 236.354 441.626 234.594 440.169 233.137C438.713 231.68 436.952 230.562 435.014 229.863C432.382 228.884 429.517 228.713 426.787 229.371C424.057 230.029 421.585 231.486 419.688 233.556ZM445.999 247.489C446.383 247.575 446.568 247.959 446.383 248.342C445.536 250.948 444.079 253.313 442.133 255.242C440.187 257.17 437.809 258.606 435.196 259.43C426.198 262.273 416.617 257.34 413.774 248.342C413.689 248.243 413.689 248.058 413.689 247.959C413.774 247.575 414.059 247.39 414.442 247.39H415.764C416.248 247.39 416.532 247.575 416.717 247.959C417.416 249.897 418.534 251.657 419.991 253.114C421.448 254.571 423.208 255.689 425.146 256.388C426.894 257.037 428.752 257.334 430.615 257.261C432.478 257.188 434.308 256.747 436 255.964C437.691 255.18 439.211 254.069 440.471 252.695C441.731 251.321 442.706 249.711 443.341 247.959C443.54 247.674 443.91 247.39 444.293 247.39H445.615C445.814 247.39 445.9 247.39 445.999 247.489Z" fill="#2775CA"/>
</g>
</g>
<rect x="471.21" y="202.282" width="79.268" height="79.268" rx="26.2176" transform="rotate(90 471.21 202.282)" stroke="white" stroke-width="2.14926"/>
<g clip-path="url(#clip1_173_163)">
<mask id="mask1_173_163" style="mask-type:luminance" maskUnits="userSpaceOnUse" x="281" y="350" width="112" height="112">
<path d="M392.456 420.909L322.054 461.802L281.16 391.4L351.563 350.507L392.456 420.909Z" fill="white"/>
</mask>
<g mask="url(#mask1_173_163)">
<path d="M322.054 461.802L392.456 420.909L351.563 350.507L281.16 391.4L322.054 461.802Z" fill="#009393" fill-opacity="0.2"/>
<path d="M323.729 386.05L362.399 396.022L361.781 416.552L331.371 434.215L313.232 424.581L323.729 386.05ZM334.122 409.603L335.864 412.602C331.311 414.951 326.681 416.49 324.753 416.114C325.483 413.947 330.256 409.909 335.738 406.725C341.22 403.541 347.092 401.396 349.336 401.835C348.72 403.688 345.07 406.943 340.788 409.759L339.039 406.747L334.122 409.603ZM349.343 401.847L348.294 400.04C346.378 399.657 341.755 401.208 337.175 403.539L333.327 396.914L328.411 399.77L332.266 406.407C327.969 409.199 324.327 412.465 323.711 414.319L325.803 417.921C327.718 418.304 332.36 416.758 336.921 414.421L338.406 416.978L331.031 421.262L333.173 424.949L352.839 413.526L350.698 409.838L343.323 414.122L341.838 411.566C346.139 408.755 349.769 405.495 350.386 403.641L349.343 401.847Z" fill="#009393"/>
</g>
</g>
<rect x="390.986" y="420.519" width="79.268" height="79.268" rx="26.2176" transform="rotate(149.85 390.986 420.519)" stroke="white" stroke-width="2.14926"/>
<g clip-path="url(#clip2_173_163)">
<mask id="mask2_173_163" style="mask-type:luminance" maskUnits="userSpaceOnUse" x="90" y="350" width="113" height="112">
<path d="M161.264 461.478L90.8612 420.584L131.755 350.182L202.157 391.075L161.264 461.478Z" fill="white"/>
</mask>
<g mask="url(#mask2_173_163)">
<path d="M90.8612 420.584L161.264 461.478L202.157 391.075L131.755 350.182L90.8612 420.584Z" fill="#FDC134" fill-opacity="0.2"/>
<path fill-rule="evenodd" clip-rule="evenodd" d="M137.351 421.423L151.309 429.53L157.42 419.008L160.926 421.045L163.642 416.368L160.137 414.332L161.494 411.995L165 414.031L167.716 409.354L164.211 407.318L170.321 396.799L156.364 388.692C153.042 386.759 149.213 385.877 145.381 386.162C141.549 386.447 137.893 387.886 134.894 390.29L131.481 388.307L128.765 392.984L131.15 394.369C130.64 395.114 130.187 395.895 129.792 396.706L127.407 395.321L124.69 400L128.103 401.982C127.503 405.778 128.065 409.666 129.716 413.135C131.366 416.605 134.028 419.494 137.351 421.423ZM135.848 397.101C135.316 397.831 134.861 398.614 134.49 399.438L155.461 411.619L156.819 409.282L135.834 397.093L135.848 397.101ZM159.535 404.605L162.929 398.762L153.904 393.52C149.461 390.939 144.206 391.028 140.106 393.32L159.535 404.605ZM152.745 416.296L133.305 405.004C133.343 407.422 134.009 409.789 135.238 411.872C136.466 413.956 138.215 415.684 140.312 416.889L149.349 422.137L152.745 416.296Z" fill="#FDC134"/>
</g>
</g>
<rect x="160.874" y="460.008" width="79.268" height="79.268" rx="26.2176" transform="rotate(-149.85 160.874 460.008)" stroke="white" stroke-width="2.14926"/>
<g clip-path="url(#clip3_173_163)">
<mask id="mask3_173_163" style="mask-type:luminance" maskUnits="userSpaceOnUse" x="11" y="199" width="83" height="83">
<path d="M11.2842 280.815L11.9127 199.4L93.3275 200.028L92.699 281.443L11.2842 280.815Z" fill="white"/>
</mask>
<g mask="url(#mask3_173_163)">
<path d="M11.9127 199.4L11.2842 280.815L92.699 281.443L93.3275 200.028L11.9127 199.4Z" fill="#2EB6EA" fill-opacity="0.2"/>
<path d="M71.6821 236.258C70.116 227.696 62.322 221.155 53.298 221.085C44.274 221.015 36.7087 227.438 35.0106 235.975L39.9111 236.013C40.6276 234.275 42.0507 232.596 44.6977 231.098C44.856 231.099 46.9351 234.19 47.9106 235.651C43.5574 237.414 43.4906 240.201 45.0439 241.373C47.2676 243.049 48.7741 240.162 50.0392 236.852C51.466 233.107 54.7933 230.294 59.0089 230.38C63.1279 230.463 65.2635 233.423 66.3047 236.217L71.6821 236.258Z" fill="#745DDF"/>
<path d="M34.6367 241.754L34.5117 257.942L53.3449 258.088C62.6539 257.993 70.4778 251.087 71.6371 242.04L66.3954 242C65.6271 245.129 63.2478 248.167 58.3692 248.485L56.9085 243.306C58.5157 243.351 61.734 242.683 61.7368 239.649C61.7397 236.615 59.5576 235.94 58.4678 235.981C57.7533 235.86 56.0182 236.414 54.7705 239.595C53.2144 243.571 50.2822 247.142 46.3416 247.112C42.0968 247.079 40.5111 244.517 39.7222 241.794L34.6367 241.754Z" fill="#2EB6EA"/>
</g>
</g>
<rect x="12.3681" y="279.748" width="79.268" height="79.268" rx="26.2176" transform="rotate(-89.5577 12.3681 279.748)" stroke="white" stroke-width="2.14926"/>
<g clip-path="url(#clip4_173_163)">
<mask id="mask4_173_163" style="mask-type:luminance" maskUnits="userSpaceOnUse" x="92" y="21" width="112" height="112">
<path d="M92.1797 62.1382L162.882 21.7648L203.255 92.4667L132.553 132.84L92.1797 62.1382Z" fill="white"/>
</mask>
<g mask="url(#mask4_173_163)">
<path d="M162.882 21.7648L92.1797 62.1382L132.553 132.84L203.255 92.4667L162.882 21.7648Z" fill="#1B5AFF" fill-opacity="0.2"/>
<path d="M131.508 61.7637L118.342 69.282L125.86 82.448C129.352 80.454 131.909 77.1546 132.968 73.2755C134.027 69.3965 133.502 65.2556 131.508 61.7637ZM154.064 101.264L139.019 74.9174C134.869 67.6493 136.947 58.658 144.333 54.44L157.842 46.7258L165.361 59.8918L152.195 67.41L167.232 93.7445L154.064 101.264Z" fill="#1B5AFF"/>
</g>
</g>
<rect x="93.6458" y="62.5395" width="79.268" height="79.268" rx="26.2176" transform="rotate(-29.7279 93.6458 62.5395)" stroke="white" stroke-width="2.14926"/>
<g clip-path="url(#clip5_173_163)">
<mask id="mask5_173_163" style="mask-type:luminance" maskUnits="userSpaceOnUse" x="282" y="22" width="112" height="113">
<path d="M323.521 22.5378L393.62 63.9485L352.209 134.048L282.11 92.6372L323.521 22.5378Z" fill="white"/>
</mask>
<g mask="url(#mask5_173_163)">
<path d="M393.62 63.9485L323.521 22.5378L282.11 92.6372L352.209 134.048L393.62 63.9485Z" fill="#00E98D" fill-opacity="0.2"/>
<path d="M314.75 79.7102L336.359 92.4753L330.775 101.928L309.166 89.1634L314.75 79.7102ZM367.417 70.7436L344.457 57.1803L330.894 80.1401L353.854 93.7034L358.64 85.6014L345.133 77.6224L349.124 70.8667L362.631 78.8456L367.417 70.7436Z" fill="#00E98D"/>
</g>
</g>
<rect x="323.898" y="24.0092" width="79.268" height="79.268" rx="26.2176" transform="rotate(30.5721 323.898 24.0092)" stroke="white" stroke-width="2.14926"/>
<defs>
<clipPath id="clip0_173_163">
<rect x="472.284" y="201.207" width="81.4172" height="81.4172" rx="27.2922" transform="rotate(90 472.284 201.207)" fill="white"/>
</clipPath>
<clipPath id="clip1_173_163">
<rect x="392.455" y="420.909" width="81.4172" height="81.4172" rx="27.2922" transform="rotate(149.85 392.455 420.909)" fill="white"/>
</clipPath>
<clipPath id="clip2_173_163">
<rect x="161.264" y="461.477" width="81.4172" height="81.4172" rx="27.2922" transform="rotate(-149.85 161.264 461.477)" fill="white"/>
</clipPath>
<clipPath id="clip3_173_163">
<rect x="11.2852" y="280.814" width="81.4172" height="81.4172" rx="27.2922" transform="rotate(-89.5577 11.2852 280.814)" fill="white"/>
</clipPath>
<clipPath id="clip4_173_163">
<rect x="92.1797" y="62.1392" width="81.4172" height="81.4172" rx="27.2922" transform="rotate(-29.7279 92.1797 62.1392)" fill="white"/>
</clipPath>
<clipPath id="clip5_173_163">
<rect x="323.52" y="22.5374" width="81.4172" height="81.4172" rx="27.2922" transform="rotate(30.5721 323.52 22.5374)" fill="white"/>
</clipPath>
</defs>
</svg>
