<svg width="462" height="462" viewBox="0 0 462 462" fill="none" xmlns="http://www.w3.org/2000/svg">
<g clip-path="url(#clip0_173_163)">
<mask id="mask0_173_163" style="mask-type:luminance" maskUnits="userSpaceOnUse" x="373" y="192" width="79" height="79">
<path d="M451.226 192.234V270.02H373.44V192.234H451.226Z" fill="white"/>
</mask>
<g mask="url(#mask0_173_163)">
<path d="M451.226 270.02V192.234H373.44V270.02H451.226Z" fill="#2775CA" fill-opacity="0.2"/>
<path fill-rule="evenodd" clip-rule="evenodd" d="M388.561 232.154C388.561 244.763 398.696 254.898 411.304 254.898C423.913 254.898 434.048 244.763 434.048 232.154C434.048 219.546 423.913 209.411 411.304 209.411C398.696 209.411 388.561 219.546 388.561 232.154ZM407.708 238.409C411.02 238.409 412.157 236.419 412.626 232.439C413.01 229.596 413.763 229.027 415.1 229.027C416.422 229.027 417.275 229.98 417.275 231.87C417.275 233.576 416.706 234.528 415.284 234.997C415 235.097 414.815 235.381 414.815 235.665V237.172C414.815 237.556 415.1 237.84 415.469 237.84H415.572C417.658 237.456 419.648 235.751 419.836 233.576H421.923C422.307 233.576 422.591 233.292 422.676 232.822V231.572C422.676 231.188 422.392 230.832 421.923 230.733H419.833C419.449 227.89 417.275 225.999 414.901 225.999C411.773 225.999 410.551 227.89 410.068 231.87C409.599 234.528 409.03 235.381 407.509 235.381C406.002 235.381 404.95 234.045 404.95 232.254C404.95 229.781 406.002 228.928 407.424 228.643C407.793 228.558 407.992 228.274 407.992 227.989V226.369C407.992 225.999 407.708 225.715 407.324 225.715H407.225C404.865 226.085 403.245 227.606 402.776 230.733H400.672C400.288 230.733 400.035 231.017 399.933 231.486V232.851C399.933 233.22 400.188 233.476 400.672 233.576H402.776C403.245 236.419 405.149 238.409 407.708 238.409ZM400.629 222.585C399.37 223.958 398.395 225.57 397.758 227.321C397.559 227.606 397.189 227.89 396.905 227.89H395.569C395.387 227.89 395.284 227.89 395.199 227.79C394.818 227.705 394.631 227.321 394.818 226.938C395.916 223.488 398.082 220.477 401.005 218.341C403.927 216.204 407.453 215.052 411.073 215.052C414.693 215.052 418.219 216.204 421.141 218.341C424.063 220.477 426.229 223.488 427.327 226.938C427.412 227.037 427.412 227.222 427.412 227.321C427.327 227.705 427.043 227.89 426.659 227.89H425.337C424.854 227.89 424.569 227.705 424.385 227.321C423.686 225.383 422.568 223.623 421.111 222.166C419.654 220.709 417.894 219.591 415.955 218.892C413.323 217.913 410.459 217.742 407.729 218.4C404.998 219.057 402.527 220.515 400.629 222.585ZM426.941 236.518C427.324 236.604 427.509 236.987 427.324 237.371C426.477 239.977 425.02 242.342 423.075 244.271C421.129 246.199 418.75 247.635 416.137 248.459C407.139 251.302 397.559 246.369 394.716 237.371C394.631 237.272 394.631 237.087 394.631 236.987C394.716 236.604 395 236.419 395.384 236.419H396.706C397.189 236.419 397.473 236.604 397.658 236.987C398.357 238.926 399.475 240.686 400.932 242.143C402.389 243.6 404.149 244.718 406.088 245.417C407.835 246.066 409.694 246.363 411.557 246.29C413.419 246.217 415.249 245.776 416.941 244.992C418.632 244.209 420.152 243.098 421.412 241.724C422.672 240.35 423.648 238.74 424.282 236.987C424.481 236.703 424.851 236.419 425.235 236.419H426.557C426.756 236.419 426.841 236.419 426.941 236.518Z" fill="#2775CA"/>
</g>
</g>
<rect x="450.151" y="193.31" width="75.6366" height="75.6366" rx="26.2176" transform="rotate(90 450.151 193.31)" stroke="white" stroke-width="2.14926"/>
<g clip-path="url(#clip1_173_163)">
<mask id="mask1_173_163" style="mask-type:luminance" maskUnits="userSpaceOnUse" x="268" y="334" width="107" height="108">
<path d="M374.957 402.141L307.695 441.211L268.625 373.948L335.888 334.879L374.957 402.141Z" fill="white"/>
</mask>
<g mask="url(#mask1_173_163)">
<path d="M307.695 441.211L374.957 402.141L335.888 334.879L268.625 373.948L307.695 441.211Z" fill="#009393" fill-opacity="0.2"/>
<path d="M308.964 368.007L347.633 377.979L347.015 398.508L316.606 416.172L298.467 406.537L308.964 368.007ZM319.357 391.56L321.099 394.559C316.545 396.908 311.915 398.446 309.987 398.07C310.718 395.903 315.49 391.866 320.972 388.681C326.454 385.497 332.327 383.352 334.571 383.791C333.954 385.645 330.305 388.899 326.022 391.715L324.273 388.704L319.357 391.56ZM334.578 383.803L333.528 381.997C331.612 381.613 326.99 383.164 322.41 385.496L318.562 378.871L313.645 381.726L317.5 388.364C313.204 391.155 309.561 394.422 308.945 396.276L311.037 399.877C312.953 400.26 317.595 398.715 322.155 396.378L323.64 398.935L316.265 403.218L318.407 406.906L338.074 395.482L335.932 391.795L328.557 396.079L327.072 393.522C331.374 390.711 335.004 387.452 335.62 385.598L334.578 383.803Z" fill="#009393"/>
</g>
</g>
<rect x="373.487" y="401.751" width="75.6367" height="75.6367" rx="26.2176" transform="rotate(149.85 373.487 401.751)" stroke="white" stroke-width="2.14926"/>
<g clip-path="url(#clip2_173_163)">
<mask id="mask2_173_163" style="mask-type:luminance" maskUnits="userSpaceOnUse" x="86" y="334" width="108" height="107">
<path d="M154.073 440.901L86.8109 401.831L125.88 334.569L193.143 373.638L154.073 440.901Z" fill="white"/>
</mask>
<g mask="url(#mask2_173_163)">
<path d="M86.8109 401.831L154.073 440.901L193.143 373.638L125.88 334.569L86.8109 401.831Z" fill="#FDC134" fill-opacity="0.2"/>
<path fill-rule="evenodd" clip-rule="evenodd" d="M130.886 403.58L144.843 411.687L150.954 401.165L154.46 403.202L157.177 398.525L153.671 396.489L155.028 394.152L158.534 396.188L161.25 391.511L157.745 389.475L163.855 378.956L149.898 370.849C146.576 368.916 142.748 368.034 138.915 368.319C135.083 368.604 131.427 370.043 128.428 372.447L125.016 370.464L122.299 375.141L124.684 376.526C124.174 377.271 123.721 378.052 123.326 378.863L120.942 377.478L118.224 382.157L121.637 384.139C121.037 387.935 121.599 391.823 123.25 395.292C124.901 398.762 127.562 401.651 130.886 403.58ZM129.382 379.258C128.85 379.988 128.395 380.771 128.024 381.595L148.995 393.776L150.353 391.439L129.368 379.25L129.382 379.258ZM153.069 386.762L156.463 380.919L147.438 375.677C142.995 373.096 137.74 373.185 133.64 375.477L153.069 386.762ZM146.279 398.453L126.839 387.161C126.877 389.579 127.543 391.946 128.772 394.029C130 396.113 131.749 397.841 133.847 399.046L142.883 404.294L146.279 398.453Z" fill="#FDC134"/>
</g>
</g>
<rect x="153.684" y="439.431" width="75.6367" height="75.6367" rx="26.2176" transform="rotate(-149.85 153.684 439.431)" stroke="white" stroke-width="2.14926"/>
<g clip-path="url(#clip3_173_163)">
<mask id="mask3_173_163" style="mask-type:luminance" maskUnits="userSpaceOnUse" x="10" y="190" width="80" height="79">
<path d="M10.7812 268.293L11.3818 190.51L89.1654 191.11L88.5648 268.894L10.7812 268.293Z" fill="white"/>
</mask>
<g mask="url(#mask3_173_163)">
<path d="M11.3818 190.51L10.7812 268.293L88.5648 268.894L89.1654 191.11L11.3818 190.51Z" fill="#2EB6EA" fill-opacity="0.2"/>
<path d="M69.1636 225.721C67.5975 217.159 59.8034 210.617 50.7794 210.548C41.7554 210.478 34.1902 216.901 32.4921 225.438L37.3926 225.476C38.109 223.738 39.5322 222.059 42.1792 220.56C42.3375 220.562 44.4166 223.653 45.392 225.114C41.0388 226.877 40.9721 229.664 42.5254 230.836C44.749 232.512 46.2555 229.625 47.5207 226.315C48.9475 222.57 52.2748 219.757 56.4903 219.843C60.6093 219.926 62.745 222.886 63.7862 225.679L69.1636 225.721Z" fill="#745DDF"/>
<path d="M32.1181 231.218L31.9932 247.406L50.8264 247.551C60.1353 247.457 67.9592 240.55 69.1186 231.504L63.8768 231.463C63.1085 234.592 60.7292 237.631 55.8506 237.949L54.39 232.769C55.9972 232.815 59.2154 232.147 59.2183 229.113C59.2211 226.078 57.0391 225.404 55.9492 225.445C55.2348 225.324 53.4996 225.878 52.2519 229.059C50.6959 233.035 47.7636 236.606 43.8231 236.575C39.5783 236.542 37.9926 233.981 37.2036 231.257L32.1181 231.218Z" fill="#2EB6EA"/>
</g>
</g>
<rect x="11.8651" y="267.227" width="75.6367" height="75.6367" rx="26.2176" transform="rotate(-89.5577 11.8651 267.227)" stroke="white" stroke-width="2.14926"/>
<g clip-path="url(#clip4_173_163)">
<mask id="mask4_173_163" style="mask-type:luminance" maskUnits="userSpaceOnUse" x="88" y="20" width="107" height="107">
<path d="M88.0693 59.3674L155.618 20.7948L194.19 88.3433L126.642 126.916L88.0693 59.3674Z" fill="white"/>
</mask>
<g mask="url(#mask4_173_163)">
<path d="M155.618 20.7948L88.0693 59.3674L126.642 126.916L194.19 88.3433L155.618 20.7948Z" fill="#1B5AFF" fill-opacity="0.2"/>
<path d="M124.668 58.2481L111.502 65.7664L119.02 78.9324C122.512 76.9384 125.069 73.639 126.128 69.7599C127.187 65.8809 126.662 61.7399 124.668 58.2481ZM147.224 97.7486L132.179 71.4017C128.029 64.1337 130.107 55.1424 137.493 50.9244L151.002 43.2102L158.521 56.3762L145.355 63.8944L160.393 90.2289L147.224 97.7486Z" fill="#1B5AFF"/>
</g>
</g>
<rect x="89.5354" y="59.7687" width="75.6366" height="75.6366" rx="26.2176" transform="rotate(-29.7279 89.5354 59.7687)" stroke="white" stroke-width="2.14926"/>
<g clip-path="url(#clip5_173_163)">
<mask id="mask5_173_163" style="mask-type:luminance" maskUnits="userSpaceOnUse" x="269" y="21" width="108" height="108">
<path d="M309.095 21.5332L376.068 61.0969L336.504 128.07L269.531 88.5061L309.095 21.5332Z" fill="white"/>
</mask>
<g mask="url(#mask5_173_163)">
<path d="M376.068 61.0969L309.095 21.5332L269.531 88.5061L336.504 128.07L376.068 61.0969Z" fill="#00E98D" fill-opacity="0.2"/>
<path d="M299.62 75.966L321.228 88.7312L315.644 98.1844L294.035 85.4192L299.62 75.966ZM352.286 66.9994L329.326 53.4361L315.763 76.3959L338.723 89.9592L343.509 81.8572L330.002 73.8783L333.993 67.1225L347.5 75.1015L352.286 66.9994Z" fill="#00E98D"/>
</g>
</g>
<rect x="309.472" y="23.0043" width="75.6367" height="75.6367" rx="26.2176" transform="rotate(30.5721 309.472 23.0043)" stroke="white" stroke-width="2.14926"/>
<defs>
<clipPath id="clip0_173_163">
<rect x="451.226" y="192.235" width="77.7859" height="77.7859" rx="27.2922" transform="rotate(90 451.226 192.235)" fill="white"/>
</clipPath>
<clipPath id="clip1_173_163">
<rect x="374.956" y="402.141" width="77.7859" height="77.7859" rx="27.2922" transform="rotate(149.85 374.956 402.141)" fill="white"/>
</clipPath>
<clipPath id="clip2_173_163">
<rect x="154.073" y="440.9" width="77.7859" height="77.7859" rx="27.2922" transform="rotate(-149.85 154.073 440.9)" fill="white"/>
</clipPath>
<clipPath id="clip3_173_163">
<rect x="10.7822" y="268.293" width="77.7859" height="77.7859" rx="27.2922" transform="rotate(-89.5577 10.7822 268.293)" fill="white"/>
</clipPath>
<clipPath id="clip4_173_163">
<rect x="88.0693" y="59.3684" width="77.7859" height="77.7859" rx="27.2922" transform="rotate(-29.7279 88.0693 59.3684)" fill="white"/>
</clipPath>
<clipPath id="clip5_173_163">
<rect x="309.094" y="21.5325" width="77.7859" height="77.7859" rx="27.2922" transform="rotate(30.5721 309.094 21.5325)" fill="white"/>
</clipPath>
</defs>
</svg>
