<?xml version="1.0" encoding="UTF-8"?>
<svg xmlns="http://www.w3.org/2000/svg" version="1.1" viewBox="0 0 800 800">
  <defs>
    <style>
      .cls-1 {
        fill: #ffffff;
      }

      .cls-2 {
        fill: #19c0de;
      }
    </style>
  </defs>
  <!-- Generator: Adobe Illustrator 28.7.3, SVG Export Plug-In . SVG Version: 1.2.0 Build 164)  -->
  <g>
    <g id="Layer_1">
      <g>
        <path class="cls-1" d="M77.66,464.67v-82.36h164.72c22.71,0,42.09-8.07,58.14-24.21,16.14-16.05,24.21-35.43,24.21-58.14h82.36c0,45.52-16.1,84.38-48.29,116.57-32.19,32.1-71,48.15-116.43,48.15H77.66Z"/>
        <path class="cls-1" d="M242.38,135.24c-45.52,0-84.38,16.1-116.57,48.29-32.1,32.19-48.15,71-48.15,116.43h82.36c0-22.71,8.07-42.09,24.21-58.14,16.05-16.14,35.43-24.21,58.14-24.21h164.72v-82.36h-164.72Z"/>
        <path class="cls-2" d="M406.71,135.24h82.36c0,22.71,8.07,42.09,24.21,58.14,16.05,16.14,35.43,24.21,58.14,24.21v82.36c-45.52,0-84.38-16.1-116.57-48.29-32.1-32.19-48.15-71-48.15-116.43"/>
        <path class="cls-2" d="M406.71,464.67c0-45.43,16.05-84.23,48.15-116.43,32.19-32.19,71.05-48.29,116.57-48.29s84.23,16.1,116.43,48.29c32.19,32.19,48.29,71,48.29,116.43h-82.36c0-22.71-8.07-42.09-24.21-58.14-16.05-16.14-35.43-24.21-58.14-24.21s-42.09,8.07-58.14,24.21c-16.14,16.05-24.21,35.43-24.21,58.14h-82.36"/>
        <rect class="cls-1" x="653.78" y="135.24" width="82.36" height="82.36" rx="41.18" ry="41.18"/>
        <g>
          <path class="cls-1" d="M94.17,523.61v10.92h64.93c6.16,0,9.29,3.14,9.29,9.41v29.62c0,6.27-3.14,9.41-9.29,9.41h-74.34c-5.92,0-9.18-4.18-9.18-9.41s3.25-9.29,9.18-9.29h65.04v-11.03h-65.04c-6.16,0-9.18-3.14-9.18-9.29v-29.73c0-6.27,3.02-9.41,9.18-9.41h74.34c5.69,0,9.29,4.3,9.29,9.41s-3.6,9.41-9.29,9.41h-64.93Z"/>
          <path class="cls-1" d="M191.03,582.96c-6.16,0-9.18-3.14-9.18-9.41v-59.35c0-6.27,3.02-9.41,9.18-9.41h73.99c5.92,0,9.41,4.3,9.41,9.41s-3.48,9.41-9.41,9.41h-64.7v10.92h63.65c5.92,0,9.29,4.3,9.29,9.41s-3.37,9.29-9.29,9.29h-63.65v11.03h65.04c5.92,0,9.29,4.18,9.29,9.29s-3.37,9.41-9.29,9.41h-74.34Z"/>
          <path class="cls-1" d="M337.96,523.61v50.87c0,5.69-4.18,9.18-9.29,9.18s-9.29-3.48-9.29-9.18v-50.87h-27.88c-5.92,0-9.29-4.3-9.29-9.41s3.37-9.41,9.29-9.41h74.22c5.92,0,9.41,4.3,9.41,9.41s-3.48,9.41-9.41,9.41h-27.76Z"/>
          <path class="cls-1" d="M434.95,523.61v50.87c0,5.69-4.18,9.18-9.29,9.18s-9.29-3.48-9.29-9.18v-50.87h-27.88c-5.92,0-9.29-4.3-9.29-9.41s3.37-9.41,9.29-9.41h74.22c5.92,0,9.41,4.3,9.41,9.41s-3.48,9.41-9.41,9.41h-27.76Z"/>
          <path class="cls-1" d="M499.41,513.39v50.87h63.65c5.46,0,8.6,4.18,8.6,9.29s-3.14,9.41-8.6,9.41h-72.94c-6.16,0-9.18-3.14-9.18-9.41v-60.17c0-5.92,4.18-9.18,9.18-9.18s9.29,3.25,9.29,9.18Z"/>
          <path class="cls-1" d="M588.85,582.96c-6.16,0-9.18-3.14-9.18-9.41v-59.35c0-6.27,3.02-9.41,9.18-9.41h73.99c5.92,0,9.41,4.3,9.41,9.41s-3.49,9.41-9.41,9.41h-64.7v10.92h63.65c5.92,0,9.29,4.3,9.29,9.41s-3.37,9.29-9.29,9.29h-63.65v11.03h65.04c5.92,0,9.29,4.18,9.29,9.29s-3.37,9.41-9.29,9.41h-74.34Z"/>
          <path class="cls-2" d="M734.73,504.06c0,1.56-.75,2.98-2.17,4.06l-17.34,13.54,17.4,13.14c1.35,1.08,2.17,2.64,2.17,4.2,0,2.98-2.51,5.69-5.49,5.69-1.49,0-2.44-.41-3.39-1.22l-18.69-15.37-18.69,15.37c-1.08.88-2.37,1.22-3.39,1.22-2.91,0-5.42-2.71-5.42-5.69,0-1.56.54-2.98,2.1-4.2l17.4-13.54-17.34-13.07c-1.42-1.02-2.1-2.24-2.1-4.13,0-2.91,2.57-5.69,5.49-5.69,1.22,0,2.23.41,3.32,1.29l18.62,15.37,18.62-15.51c.88-.75,2.1-1.08,3.32-1.15,3.05,0,5.55,2.64,5.55,5.69Z"/>
        </g>
      </g>
    </g>
  </g>
</svg>