<svg width="661" height="449" viewBox="0 0 661 449" fill="none" xmlns="http://www.w3.org/2000/svg">
<path d="M2.08008 329.44V247.08H166.8C189.51 247.08 208.89 239.01 224.94 222.87C241.08 206.82 249.15 187.44 249.15 164.73H331.51C331.51 210.25 315.41 249.11 283.22 281.3C251.03 313.4 212.22 329.45 166.79 329.45H2.08008V329.44Z" fill="white"/>
<path d="M166.8 0.0100098C121.28 0.0100098 82.4201 16.11 50.2301 48.3C18.1301 80.49 2.08008 119.3 2.08008 164.73H84.4401C84.4401 142.02 92.5101 122.64 108.65 106.59C124.7 90.45 144.08 82.38 166.79 82.38H331.51V0.0200043H166.79L166.8 0.0100098Z" fill="white"/>
<path d="M331.13 0.0100098H413.49C413.49 22.72 421.56 42.1 437.7 58.15C453.75 74.29 473.13 82.36 495.84 82.36V164.72C450.32 164.72 411.46 148.62 379.27 116.43C347.17 84.24 331.12 45.43 331.12 0" fill="white"/>
<path d="M331.13 329.44C331.13 284.01 347.18 245.21 379.28 213.01C411.47 180.82 450.33 164.72 495.85 164.72C541.37 164.72 580.08 180.82 612.28 213.01C644.47 245.2 660.57 284.01 660.57 329.44H578.21C578.21 306.73 570.14 287.35 554 271.3C537.95 255.16 518.57 247.09 495.86 247.09C473.15 247.09 453.77 255.16 437.72 271.3C421.58 287.35 413.51 306.73 413.51 329.44H331.15" fill="white"/>
<path d="M660.56 41.19C660.56 18.4469 642.123 0.0100098 619.38 0.0100098C596.637 0.0100098 578.2 18.4469 578.2 41.19C578.2 63.9331 596.637 82.37 619.38 82.37C642.123 82.37 660.56 63.9331 660.56 41.19Z" fill="white"/>
<path d="M18.59 388.38V399.3H83.52C89.68 399.3 92.81 402.44 92.81 408.71V438.33C92.81 444.6 89.67 447.74 83.52 447.74H9.18C3.26 447.74 0 443.56 0 438.33C0 433.1 3.25 429.04 9.18 429.04H74.22V418.01H9.18C3.02 418.01 0 414.87 0 408.72V378.99C0 372.72 3.02 369.58 9.18 369.58H83.52C89.21 369.58 92.81 373.88 92.81 378.99C92.81 384.1 89.21 388.4 83.52 388.4H18.59V388.38Z" fill="white"/>
<path d="M115.45 447.73C109.29 447.73 106.27 444.59 106.27 438.32V378.97C106.27 372.7 109.29 369.56 115.45 369.56H189.44C195.36 369.56 198.85 373.86 198.85 378.97C198.85 384.08 195.37 388.38 189.44 388.38H124.74V399.3H188.39C194.31 399.3 197.68 403.6 197.68 408.71C197.68 413.82 194.31 418 188.39 418H124.74V429.03H189.78C195.7 429.03 199.07 433.21 199.07 438.32C199.07 443.43 195.7 447.73 189.78 447.73H115.44H115.45Z" fill="white"/>
<path d="M262.38 388.38V439.25C262.38 444.94 258.2 448.43 253.09 448.43C247.98 448.43 243.8 444.95 243.8 439.25V388.38H215.92C210 388.38 206.63 384.08 206.63 378.97C206.63 373.86 210 369.56 215.92 369.56H290.14C296.06 369.56 299.55 373.86 299.55 378.97C299.55 384.08 296.07 388.38 290.14 388.38H262.38Z" fill="white"/>
<path d="M359.37 388.38V439.25C359.37 444.94 355.19 448.43 350.08 448.43C344.97 448.43 340.79 444.95 340.79 439.25V388.38H312.91C306.99 388.38 303.62 384.08 303.62 378.97C303.62 373.86 306.99 369.56 312.91 369.56H387.13C393.05 369.56 396.54 373.86 396.54 378.97C396.54 384.08 393.06 388.38 387.13 388.38H359.37Z" fill="white"/>
<path d="M423.83 378.16V429.03H487.48C492.94 429.03 496.08 433.21 496.08 438.32C496.08 443.43 492.94 447.73 487.48 447.73H414.54C408.38 447.73 405.36 444.59 405.36 438.32V378.15C405.36 372.23 409.54 368.97 414.54 368.97C419.54 368.97 423.83 372.22 423.83 378.15V378.16Z" fill="white"/>
<path d="M513.27 447.73C507.11 447.73 504.09 444.59 504.09 438.32V378.97C504.09 372.7 507.11 369.56 513.27 369.56H587.26C593.18 369.56 596.67 373.86 596.67 378.97C596.67 384.08 593.18 388.38 587.26 388.38H522.56V399.3H586.21C592.13 399.3 595.5 403.6 595.5 408.71C595.5 413.82 592.13 418 586.21 418H522.56V429.03H587.6C593.52 429.03 596.89 433.21 596.89 438.32C596.89 443.43 593.52 447.73 587.6 447.73H513.26H513.27Z" fill="white"/>
<path d="M659.15 368.83C659.15 370.39 658.4 371.81 656.98 372.89L639.64 386.43L657.04 399.57C658.39 400.65 659.21 402.21 659.21 403.77C659.21 406.75 656.7 409.46 653.72 409.46C652.23 409.46 651.28 409.05 650.33 408.24L631.64 392.87L612.95 408.24C611.87 409.12 610.58 409.46 609.56 409.46C606.65 409.46 604.14 406.75 604.14 403.77C604.14 402.21 604.68 400.79 606.24 399.57L623.64 386.03L606.3 372.96C604.88 371.94 604.2 370.72 604.2 368.83C604.2 365.92 606.77 363.14 609.69 363.14C610.91 363.14 611.92 363.55 613.01 364.43L631.63 379.8L650.25 364.29C651.13 363.54 652.35 363.21 653.57 363.14C656.62 363.14 659.12 365.78 659.12 368.83H659.15Z" fill="white"/>
</svg>
