<svg width="485" height="212" viewBox="0 0 485 212" fill="none" xmlns="http://www.w3.org/2000/svg">
<path d="M467.551 211.099L485 201.026V163.609L467.552 173.683L467.551 211.099Z" fill="#242424"/>
<path d="M467.552 173.683L442.626 159.292V196.709L467.551 211.099L467.552 173.683Z" fill="#4B4B4B"/>
<path d="M442.626 159.292L467.552 173.682L485 163.609L460.075 149.218L442.626 159.292Z" fill="#3B3B3B"/>
<path d="M465.518 192.658L445.577 181.145L445.578 195.004L445.12 195.27L465.06 206.781L465.519 206.517L465.518 192.658Z" fill="#242424"/>
<path d="M465.06 192.923L445.119 181.41L445.12 195.27L465.061 206.781L465.06 192.923Z" fill="#3B3B3B"/>
<path d="M457.243 190.759L453.853 188.801C453.412 188.546 453.056 188.663 453.056 189.061C453.056 189.458 453.412 189.986 453.853 190.241L457.244 192.198C457.685 192.452 458.041 192.336 458.041 191.939C458.04 191.541 457.684 191.013 457.243 190.759Z" fill="#242424"/>
<path d="M465.518 175.929L445.577 164.416L445.578 178.276L445.12 178.541L465.06 190.052L465.519 189.788L465.518 175.929Z" fill="#242424"/>
<path d="M465.06 176.193L445.119 164.681L445.12 178.54L465.061 190.052L465.06 176.193Z" fill="#3B3B3B"/>
<path d="M457.243 174.03L453.853 172.072C453.412 171.817 453.056 171.934 453.056 172.332C453.056 172.729 453.412 173.257 453.853 173.512L457.244 175.469C457.685 175.723 458.041 175.607 458.041 175.21C458.04 174.812 457.684 174.284 457.243 174.03Z" fill="#242424"/>
<path d="M352.264 148.528L433.845 195.626L438.798 198.485C438.877 198.528 438.955 198.571 439.027 198.607C439.164 198.671 439.3 198.729 439.443 198.771C439.608 198.835 439.787 198.886 439.959 198.915C440.073 198.944 440.189 198.958 440.303 198.972C440.324 198.979 440.353 198.986 440.374 198.979C440.518 199 440.668 199.008 440.812 199.008C441.313 199.015 441.772 198.915 442.116 198.721C442.919 198.255 443.75 196.937 443.973 195.768L457.72 124.351C457.749 124.2 457.763 124.036 457.763 123.878C457.763 123.748 457.756 123.62 457.734 123.49C457.734 123.483 457.734 123.483 457.734 123.476C457.705 123.283 457.663 123.082 457.598 122.896C457.534 122.702 457.448 122.516 457.354 122.337C457.297 122.223 457.225 122.107 457.154 122C457.067 121.878 456.974 121.763 456.874 121.656C456.788 121.556 456.687 121.462 456.587 121.383C456.487 121.297 456.372 121.226 456.264 121.161L369.73 71.2033C369.659 71.1602 369.58 71.1171 369.501 71.0811C369.422 71.045 369.343 71.0019 369.257 70.9737C369.221 70.9596 369.186 70.9447 369.143 70.9377C369.035 70.9095 368.928 70.8946 368.828 70.9016C368.29 70.9447 367.832 71.3099 367.294 71.6257C366.269 72.2276 365.373 72.751 365.373 72.751V72.7581C365.23 72.8153 365.101 72.9085 364.986 73.0308C364.836 73.1883 364.713 73.3889 364.635 73.6256C364.599 73.7259 364.578 73.8262 364.556 73.9195L350.808 145.337C350.587 146.506 351.239 147.932 352.264 148.528Z" fill="#17C1DE"/>
<path d="M352.264 148.528L433.845 195.626L438.798 198.485C438.877 198.528 438.955 198.571 439.027 198.607C439.164 198.671 439.3 198.729 439.443 198.771C439.608 198.835 439.787 198.886 439.959 198.915C440.073 198.944 440.189 198.958 440.303 198.972C440.324 198.979 440.353 198.986 440.374 198.979C440.518 199 440.668 199.008 440.812 199.008C441.313 199.015 441.772 198.915 442.116 198.721C442.919 198.255 443.75 196.937 443.973 195.768L457.72 124.351C457.749 124.2 457.763 124.036 457.763 123.878C457.763 123.748 457.756 123.62 457.734 123.49C457.734 123.483 457.734 123.483 457.734 123.476C457.705 123.283 457.663 123.082 457.598 122.896C457.534 122.702 457.448 122.516 457.354 122.337C457.297 122.223 457.225 122.107 457.154 122C457.067 121.878 456.974 121.763 456.874 121.656C456.788 121.556 456.687 121.462 456.587 121.383C456.487 121.297 456.372 121.226 456.264 121.161L369.73 71.2033C369.659 71.1602 369.58 71.1171 369.501 71.0811C369.422 71.045 369.343 71.0019 369.257 70.9737C369.221 70.9596 369.186 70.9447 369.143 70.9377C369.035 70.9095 368.928 70.8946 368.828 70.9016C368.29 70.9447 367.832 71.3099 367.294 71.6257C366.269 72.2276 365.373 72.751 365.373 72.751V72.7581C365.23 72.8153 365.101 72.9085 364.986 73.0308C364.836 73.1883 364.713 73.3889 364.635 73.6256C364.599 73.7259 364.578 73.8262 364.556 73.9195L350.808 145.337C350.587 146.506 351.239 147.932 352.264 148.528Z" fill="#17C1DE"/>
<path d="M439.027 198.608C440.038 199.095 441.364 199.152 442.116 198.722C442.919 198.256 443.75 196.938 443.973 195.769L457.72 124.352C457.842 123.7 457.691 122.962 457.355 122.338L454.445 124.015C454.782 124.639 454.932 125.377 454.81 126.029L441.062 197.453C440.855 198.528 439.973 199.009 439.027 198.608Z" fill="#1B1B1B"/>
<path d="M367.294 71.6274C366.269 72.2292 365.374 72.7527 365.374 72.7527V72.7597C365.79 72.5591 366.305 72.5873 366.822 72.889L453.356 122.847C453.807 123.105 454.18 123.528 454.445 124.016L457.355 122.339C457.298 122.224 457.226 122.109 457.155 122.002C457.069 121.879 456.975 121.765 456.875 121.658C456.696 121.464 456.488 121.292 456.266 121.163L369.732 71.2058C369.582 71.1196 369.424 71.0412 369.259 70.9762C369.223 70.9621 369.188 70.9472 369.144 70.9401C369.037 70.9119 368.93 70.897 368.829 70.9041C368.291 70.9464 367.833 71.3116 367.294 71.6274Z" fill="#272727"/>
<path opacity="0.5" d="M367.294 71.6274C366.269 72.2292 365.374 72.7527 365.374 72.7527V72.7597C365.79 72.5591 366.305 72.5873 366.822 72.889L453.356 122.847C453.807 123.105 454.18 123.528 454.445 124.016L457.355 122.339C457.298 122.224 457.226 122.109 457.155 122.002C457.069 121.879 456.975 121.765 456.875 121.658C456.696 121.464 456.488 121.292 456.266 121.163L369.732 71.2058C369.582 71.1196 369.424 71.0412 369.259 70.9762C369.223 70.9621 369.188 70.9472 369.144 70.9401C369.037 70.9119 368.93 70.897 368.829 70.9041C368.291 70.9464 367.833 71.3116 367.294 71.6274Z" fill="#303030"/>
<path d="M441.064 197.451L454.809 126.031C455.033 124.865 454.382 123.438 453.353 122.844L366.821 72.8856C365.793 72.2916 364.778 72.7555 364.553 73.9216L350.808 145.341C350.584 146.507 351.235 147.934 352.264 148.527L438.795 198.486C439.824 199.081 440.84 198.617 441.064 197.451Z" fill="#17C1DE"/>
<path d="M441.064 197.451L454.809 126.031C455.033 124.865 454.382 123.438 453.353 122.844L366.821 72.8856C365.793 72.2916 364.778 72.7555 364.553 73.9216L350.808 145.341C350.584 146.507 351.235 147.934 352.264 148.527L438.795 198.486C439.824 199.081 440.84 198.617 441.064 197.451Z" fill="#272727"/>
<path opacity="0.5" d="M441.064 197.451L454.809 126.031C455.033 124.865 454.382 123.438 453.353 122.844L366.821 72.8856C365.793 72.2916 364.778 72.7555 364.553 73.9216L350.808 145.341C350.584 146.507 351.235 147.934 352.264 148.527L438.795 198.486C439.824 199.081 440.84 198.617 441.064 197.451Z" fill="#1B1B1B"/>
<path d="M375.468 145.642L434.157 179.524L437.72 181.581C437.776 181.613 437.833 181.643 437.885 181.669C437.983 181.715 438.081 181.757 438.184 181.788C438.303 181.834 438.432 181.87 438.556 181.891C438.638 181.911 438.721 181.922 438.804 181.932C438.819 181.938 438.84 181.943 438.855 181.938C438.959 181.954 439.067 181.958 439.169 181.958C439.531 181.964 439.861 181.891 440.108 181.752C440.686 181.417 441.284 180.469 441.444 179.628L451.333 128.25C451.354 128.142 451.364 128.023 451.364 127.91C451.364 127.818 451.358 127.725 451.343 127.632C451.343 127.627 451.343 127.627 451.343 127.622C451.323 127.483 451.292 127.338 451.245 127.204C451.199 127.065 451.137 126.931 451.07 126.802C451.028 126.72 450.977 126.637 450.926 126.56C450.864 126.472 450.797 126.39 450.724 126.313C450.662 126.24 450.59 126.173 450.518 126.117C450.446 126.055 450.364 126.003 450.286 125.957L388.034 90.0173C387.983 89.9867 387.926 89.9554 387.869 89.9295C387.813 89.9036 387.755 89.8731 387.693 89.8519C387.668 89.8417 387.642 89.8315 387.611 89.8261C387.534 89.8057 387.457 89.7955 387.384 89.8002C386.998 89.8316 386.667 90.0941 386.281 90.3213C385.543 90.7547 384.898 91.1308 384.898 91.1308V91.1363C384.795 91.1779 384.702 91.2445 384.62 91.3322C384.512 91.4459 384.424 91.59 384.368 91.7601C384.342 91.8322 384.326 91.9043 384.311 91.9717L374.422 143.349C374.261 144.188 374.73 145.214 375.468 145.642Z" fill="#17C1DE"/>
<path d="M375.468 145.642L434.157 179.524L437.72 181.581C437.776 181.613 437.833 181.643 437.885 181.669C437.983 181.715 438.081 181.757 438.184 181.788C438.303 181.834 438.432 181.87 438.556 181.891C438.638 181.911 438.721 181.922 438.804 181.932C438.819 181.938 438.84 181.943 438.855 181.938C438.959 181.954 439.067 181.958 439.169 181.958C439.531 181.964 439.861 181.891 440.108 181.752C440.686 181.417 441.284 180.469 441.444 179.628L451.333 128.25C451.354 128.142 451.364 128.023 451.364 127.91C451.364 127.818 451.358 127.725 451.343 127.632C451.343 127.627 451.343 127.627 451.343 127.622C451.323 127.483 451.292 127.338 451.245 127.204C451.199 127.065 451.137 126.931 451.07 126.802C451.028 126.72 450.977 126.637 450.926 126.56C450.864 126.472 450.797 126.39 450.724 126.313C450.662 126.24 450.59 126.173 450.518 126.117C450.446 126.055 450.364 126.003 450.286 125.957L388.034 90.0173C387.983 89.9867 387.926 89.9554 387.869 89.9295C387.813 89.9036 387.755 89.8731 387.693 89.8519C387.668 89.8417 387.642 89.8315 387.611 89.8261C387.534 89.8057 387.457 89.7955 387.384 89.8002C386.998 89.8316 386.667 90.0941 386.281 90.3213C385.543 90.7547 384.898 91.1308 384.898 91.1308V91.1363C384.795 91.1779 384.702 91.2445 384.62 91.3322C384.512 91.4459 384.424 91.59 384.368 91.7601C384.342 91.8322 384.326 91.9043 384.311 91.9717L374.422 143.349C374.261 144.188 374.73 145.214 375.468 145.642Z" fill="#17C1DE"/>
<path d="M437.885 181.67C438.612 182.02 439.566 182.062 440.108 181.752C440.685 181.417 441.283 180.468 441.443 179.628L451.333 128.25C451.42 127.781 451.312 127.25 451.069 126.801L448.976 128.008C449.218 128.456 449.326 128.988 449.239 129.457L439.349 180.84C439.2 181.613 438.565 181.959 437.885 181.67Z" fill="#2C2C2C"/>
<path d="M386.281 90.3211C385.543 90.7545 384.898 91.1306 384.898 91.1306V91.1361C385.198 90.9919 385.568 91.0123 385.94 91.2286L448.192 127.168C448.517 127.354 448.785 127.658 448.975 128.008L451.069 126.801C451.027 126.719 450.976 126.636 450.924 126.559C450.862 126.471 450.796 126.389 450.723 126.312C450.594 126.172 450.445 126.048 450.285 125.956L388.033 90.0163C387.925 89.9544 387.811 89.898 387.693 89.8509C387.667 89.8408 387.641 89.8306 387.611 89.8251C387.533 89.8047 387.456 89.7945 387.383 89.7992C386.998 89.8314 386.668 90.0939 386.281 90.3211Z" fill="#5F5F5F"/>
<path d="M439.351 180.838L449.239 129.46C449.4 128.621 448.931 127.595 448.192 127.167L385.941 91.2272C385.202 90.8001 384.471 91.1339 384.309 91.9724L374.421 143.351C374.26 144.191 374.728 145.216 375.468 145.643L437.718 181.584C438.458 182.011 439.189 181.677 439.351 180.838Z" fill="#3D3D3D"/>
<path d="M393.309 130.535C393.747 130.281 394.103 129.638 394.103 129.098V35.6611C394.103 35.1211 393.724 34.4645 393.256 34.1941L334.58 0.317154C334.112 0.0467967 333.378 0.0334736 332.939 0.286591C332.5 0.539708 332.144 1.18308 332.144 1.72301L332.144 95.16C332.144 95.7 332.523 96.3567 332.991 96.627L391.668 130.504C392.135 130.774 392.871 130.788 393.309 130.535Z" fill="#EBEBEB"/>
<path d="M332.151 1.57535C332.223 1.14513 332.567 0.994666 332.99 1.23838L391.671 35.1122C391.907 35.2485 392.122 35.4852 392.266 35.7501L393.857 34.8324C393.707 34.5676 393.491 34.3309 393.255 34.1945L334.582 0.320733C334.117 0.0480249 333.379 0.0339212 332.94 0.284687C332.546 0.521348 332.209 1.06598 332.151 1.57535Z" fill="#707070"/>
<path d="M391.785 130.561C392.244 130.777 392.903 130.769 393.312 130.533C393.749 130.282 394.1 129.637 394.1 129.1V35.6635C394.1 35.3908 394.007 35.0969 393.856 34.832L392.265 35.7497C392.422 36.0153 392.516 36.3084 392.516 36.5811V130.017C392.516 130.512 392.193 130.741 391.785 130.561Z" fill="#232323"/>
<path d="M332.694 1.52686L332.796 1.57373L391.473 35.4507C391.633 35.543 391.8 35.7173 391.928 35.939C392.056 36.1604 392.124 36.3923 392.124 36.5776L392.123 130.015L392.113 130.126C392.108 130.156 392.1 130.178 392.093 130.193C392.086 130.207 392.08 130.215 392.076 130.219C392.073 130.223 392.071 130.224 392.07 130.224C392.07 130.225 392.068 130.226 392.063 130.227C392.058 130.228 392.048 130.228 392.032 130.227C392.016 130.226 391.993 130.222 391.965 130.212L391.863 130.165L333.187 96.2876C333.026 96.1948 332.859 96.0199 332.731 95.7983C332.603 95.5767 332.535 95.3446 332.535 95.1597L332.536 1.72314L332.546 1.61182C332.552 1.5828 332.559 1.56141 332.566 1.54639C332.573 1.5318 332.58 1.52393 332.583 1.52002C332.586 1.51666 332.587 1.51459 332.588 1.51416C332.588 1.51386 332.591 1.5132 332.596 1.51221C332.601 1.51117 332.611 1.50982 332.627 1.51123C332.644 1.5127 332.666 1.51728 332.694 1.52686Z" fill="#3C3C3C"/>
<path d="M332.694 1.52686L332.796 1.57373L391.473 35.4507C391.633 35.543 391.8 35.7173 391.928 35.939C392.056 36.1604 392.124 36.3923 392.124 36.5776L392.123 130.015L392.113 130.126C392.108 130.156 392.1 130.178 392.093 130.193C392.086 130.207 392.08 130.215 392.076 130.219C392.073 130.223 392.071 130.224 392.07 130.224C392.07 130.225 392.068 130.226 392.063 130.227C392.058 130.228 392.048 130.228 392.032 130.227C392.016 130.226 391.993 130.222 391.965 130.212L391.863 130.165L333.187 96.2876C333.026 96.1948 332.859 96.0199 332.731 95.7983C332.603 95.5767 332.535 95.3446 332.535 95.1597L332.536 1.72314L332.546 1.61182C332.552 1.5828 332.559 1.56141 332.566 1.54639C332.573 1.5318 332.58 1.52393 332.583 1.52002C332.586 1.51666 332.587 1.51459 332.588 1.51416C332.588 1.51386 332.591 1.5132 332.596 1.51221C332.601 1.51117 332.611 1.50982 332.627 1.51123C332.644 1.5127 332.666 1.51728 332.694 1.52686Z" fill="url(#paint0_radial_24_291)" fill-opacity="0.2" style="mix-blend-mode:exclusion"/>
<path d="M332.694 1.52686L332.796 1.57373L391.473 35.4507C391.633 35.543 391.8 35.7173 391.928 35.939C392.056 36.1604 392.124 36.3923 392.124 36.5776L392.123 130.015L392.113 130.126C392.108 130.156 392.1 130.178 392.093 130.193C392.086 130.207 392.08 130.215 392.076 130.219C392.073 130.223 392.071 130.224 392.07 130.224C392.07 130.225 392.068 130.226 392.063 130.227C392.058 130.228 392.048 130.228 392.032 130.227C392.016 130.226 391.993 130.222 391.965 130.212L391.863 130.165L333.187 96.2876C333.026 96.1948 332.859 96.0199 332.731 95.7983C332.603 95.5767 332.535 95.3446 332.535 95.1597L332.536 1.72314L332.546 1.61182C332.552 1.5828 332.559 1.56141 332.566 1.54639C332.573 1.5318 332.58 1.52393 332.583 1.52002C332.586 1.51666 332.587 1.51459 332.588 1.51416C332.588 1.51386 332.591 1.5132 332.596 1.51221C332.601 1.51117 332.611 1.50982 332.627 1.51123C332.644 1.5127 332.666 1.51728 332.694 1.52686Z" fill="url(#paint1_radial_24_291)" fill-opacity="0.1" style="mix-blend-mode:exclusion"/>
<path d="M332.694 1.52686L332.796 1.57373L391.473 35.4507C391.633 35.543 391.8 35.7173 391.928 35.939C392.056 36.1604 392.124 36.3923 392.124 36.5776L392.123 130.015L392.113 130.126C392.108 130.156 392.1 130.178 392.093 130.193C392.086 130.207 392.08 130.215 392.076 130.219C392.073 130.223 392.071 130.224 392.07 130.224C392.07 130.225 392.068 130.226 392.063 130.227C392.058 130.228 392.048 130.228 392.032 130.227C392.016 130.226 391.993 130.222 391.965 130.212L391.863 130.165L333.187 96.2876C333.026 96.1948 332.859 96.0199 332.731 95.7983C332.603 95.5767 332.535 95.3446 332.535 95.1597L332.536 1.72314L332.546 1.61182C332.552 1.5828 332.559 1.56141 332.566 1.54639C332.573 1.5318 332.58 1.52393 332.583 1.52002C332.586 1.51666 332.587 1.51459 332.588 1.51416C332.588 1.51386 332.591 1.5132 332.596 1.51221C332.601 1.51117 332.611 1.50982 332.627 1.51123C332.644 1.5127 332.666 1.51728 332.694 1.52686Z" stroke="url(#paint2_linear_24_291)" stroke-width="0.783644"/>
<g opacity="0.3">
<path d="M388.23 77.6761C388.23 78.3947 387.585 78.604 386.79 78.1448L337.871 49.8991C337.075 49.4399 336.43 48.4854 336.43 47.7668C336.43 47.0482 337.075 46.839 337.871 47.2982L386.79 75.5438C387.585 76.0031 388.23 76.9575 388.23 77.6761Z" fill="#898989"/>
<path d="M388.23 85.4777C388.23 86.1963 387.585 86.4055 386.79 85.9463L337.871 57.7006C337.075 57.2414 336.43 56.2869 336.43 55.5683C336.43 54.8497 337.075 54.6405 337.871 55.0997L386.79 83.3454C387.585 83.8054 388.23 84.7598 388.23 85.4777Z" fill="#898989"/>
<path d="M388.23 93.2794C388.23 93.9972 387.585 94.2072 386.79 93.748L337.871 65.5024C337.075 65.0431 336.43 64.0887 336.43 63.3701C336.43 62.6515 337.075 62.4422 337.871 62.9014L386.79 91.1471C387.585 91.6071 388.23 92.5616 388.23 93.2794Z" fill="#898989"/>
<path d="M388.23 101.081C388.23 101.8 387.585 102.009 386.79 101.55L337.871 73.3044C337.075 72.8451 336.43 71.8907 336.43 71.1721C336.43 70.4535 337.075 70.2442 337.871 70.7034L386.79 98.9491C387.585 99.4091 388.23 100.364 388.23 101.081Z" fill="#898989"/>
<path d="M388.23 54.2704C388.23 54.9882 387.585 55.1983 386.79 54.739L337.871 26.4934C337.075 26.0342 336.43 25.0797 336.43 24.3611C336.43 23.6433 337.075 23.4332 337.871 23.8925L386.79 52.1381C387.585 52.5981 388.23 53.5526 388.23 54.2704Z" fill="#898989"/>
<path d="M388.23 62.0724C388.23 62.7902 387.585 63.0002 386.79 62.541L337.871 34.2953C337.075 33.8361 336.43 32.8816 336.43 32.163C336.43 31.4444 337.075 31.2352 337.871 31.6944L386.79 59.9401C387.585 60.3993 388.23 61.3538 388.23 62.0724Z" fill="#898989"/>
<path d="M388.23 46.4794C388.23 47.198 387.585 47.4072 386.79 46.948L337.871 18.7024C337.075 18.2431 336.43 17.2887 336.43 16.5701C336.43 15.8522 337.075 15.6422 337.871 16.1014L386.79 44.3471C387.585 44.8063 388.23 45.7616 388.23 46.4794Z" fill="#898989"/>
<path d="M388.23 69.8744C388.23 70.5922 387.585 70.8022 386.79 70.343L337.871 42.0973C337.075 41.6381 336.43 40.6836 336.43 39.965C336.43 39.2464 337.075 39.0372 337.871 39.4964L386.79 67.7421C387.585 68.2013 388.23 69.1558 388.23 69.8744Z" fill="#898989"/>
<path d="M388.23 108.883C388.23 109.602 387.585 109.811 386.79 109.352L337.871 81.1061C337.075 80.6469 336.43 79.6924 336.43 78.9738C336.43 78.2552 337.075 78.046 337.871 78.5052L386.79 106.751C387.585 107.21 388.23 108.165 388.23 108.883Z" fill="#898989"/>
<path d="M388.23 116.685C388.23 117.404 387.585 117.613 386.79 117.154L337.871 88.9084C337.075 88.4492 336.43 87.4947 336.43 86.7761C336.43 86.0583 337.075 85.8483 337.871 86.3075L386.79 114.553C387.585 115.012 388.23 115.967 388.23 116.685Z" fill="#898989"/>
</g>
<path d="M348.766 80.5757C348.766 79.9801 348.971 79.5609 349.298 79.3493C349.298 79.3493 349.345 79.3101 349.436 79.2694L352.241 77.6323C352.241 77.6323 352.242 77.6316 352.244 77.6308L352.25 77.6268V77.6284C352.6 77.4302 353.082 77.4599 353.614 77.7671L409.698 110.108L411.331 103.522C411.48 103.026 411.775 102.665 412.141 102.45L412.13 102.445L415.049 100.75L415.048 100.762C415.554 100.462 416.201 100.448 416.823 100.808L440.684 114.58C441.756 115.199 442.625 116.702 442.625 117.94L442.622 197.506C442.622 198.1 442.427 198.523 442.101 198.735L439.098 200.476C438.75 200.65 438.289 200.611 437.777 200.316L350.673 150.026C349.601 149.408 348.732 147.903 348.732 146.667L348.766 80.5757Z" fill="#17C1DE"/>
<path d="M412.181 102.419C412.683 102.141 413.31 102.15 413.919 102.499L437.778 116.27C438.307 116.584 438.791 117.113 439.149 117.722L442.055 116.028C441.706 115.419 441.221 114.881 440.685 114.577L416.826 100.806C416.199 100.448 415.554 100.466 415.052 100.761V100.753L412.181 102.419Z" fill="#303030"/>
<path d="M349.436 79.2682C349.776 79.1248 350.224 79.1789 350.708 79.4563L406.847 111.844C407.923 112.463 409.078 112.006 409.437 110.814L409.698 110.106L353.614 77.7629C353.309 77.5834 353.013 77.5027 352.753 77.5027C352.565 77.5027 352.395 77.5474 352.252 77.6281H352.243L349.436 79.2682Z" fill="#303030"/>
<path d="M348.768 80.5783L348.733 146.667C348.733 147.907 349.601 149.412 350.676 150.029L438.003 200.445C438.765 200.886 439.718 200.336 439.718 199.455V119.631C439.718 119.015 439.504 118.326 439.152 117.725C438.794 117.116 438.306 116.585 437.783 116.276L413.922 102.501C413.314 102.157 412.683 102.143 412.18 102.422L412.13 102.45H412.144C411.779 102.665 411.485 103.023 411.334 103.525L409.699 110.108L409.441 110.818C409.083 112.007 407.928 112.466 406.853 111.85L350.71 79.4593C350.229 79.1795 349.778 79.1294 349.441 79.2728L349.362 79.3159C349.348 79.3229 349.334 79.33 349.319 79.337L349.298 79.3511C348.976 79.5612 348.768 79.9835 348.768 80.5783Z" fill="#2E2E2E"/>
<path d="M349.603 79.6294C349.766 79.5633 350.027 79.5599 350.362 79.7183L350.513 79.7983H350.514L406.657 112.189L406.658 112.19C407.287 112.551 407.969 112.61 408.561 112.375C409.152 112.139 409.607 111.626 409.816 110.93L409.815 110.929L410.066 110.242L410.074 110.222L410.079 110.202L411.709 103.638C411.833 103.226 412.067 102.95 412.343 102.788L412.428 102.737C412.738 102.586 413.126 102.57 413.54 102.748L413.729 102.842L437.587 116.616C438.038 116.883 438.481 117.356 438.813 117.921V117.922C439.138 118.478 439.326 119.099 439.326 119.631V199.455C439.326 199.998 438.776 200.35 438.294 200.153L438.199 200.106L350.872 149.69L350.871 149.689L350.698 149.58C350.299 149.303 349.926 148.879 349.641 148.385C349.315 147.821 349.125 147.202 349.125 146.667L349.16 80.5786L349.168 80.3979C349.199 80.0583 349.316 79.8467 349.446 79.73L349.512 79.6792L349.516 79.6772L349.517 79.6753L349.537 79.6665L349.549 79.6597L349.603 79.6294Z" stroke="#656565" stroke-opacity="0.2" stroke-width="0.783644"/>
<path d="M389.474 144.094C389.601 144.035 389.734 144.006 389.866 144.006C390.21 144.006 390.54 144.201 390.697 144.533L393.306 150.055V140.262C393.306 139.754 393.717 139.343 394.225 139.343C394.733 139.343 395.144 139.754 395.144 140.262V151.994L397.947 149.297C398.314 148.943 398.896 148.957 399.247 149.322C399.599 149.688 399.588 150.27 399.222 150.622L394.863 154.816C394.649 155.021 394.355 155.112 394.059 155.058C393.768 155.004 393.521 154.814 393.394 154.547L389.036 145.319C388.819 144.858 389.015 144.311 389.474 144.094Z" fill="#17C1DE"/>
<path d="M400.486 146.191C399.978 146.191 399.567 145.779 399.567 145.272V139.726L388.885 133.558V138.042C388.885 138.55 388.473 138.962 387.966 138.962C387.458 138.962 387.046 138.55 387.046 138.042V131.966C387.046 131.638 387.222 131.334 387.506 131.17C387.648 131.088 387.807 131.047 387.966 131.047C388.124 131.047 388.283 131.088 388.425 131.17L400.945 138.398C401.23 138.562 401.404 138.865 401.404 139.194V145.271C401.405 145.779 400.993 146.191 400.486 146.191Z" fill="#17C1DE"/>
<path d="M439.013 200.506C439.042 200.499 439.07 200.492 439.099 200.477L442.102 198.735C442.425 198.52 442.626 198.097 442.626 197.502V117.936C442.626 117.312 442.403 116.638 442.052 116.03L439.15 117.721V117.728C439.501 118.33 439.716 119.018 439.716 119.635V199.452C439.715 199.947 439.414 200.341 439.013 200.506Z" fill="#1B1B1B"/>
<path d="M25.4729 211.099L42.9215 201.026V163.609L25.4737 173.683L25.4729 211.099Z" fill="#242424"/>
<path d="M25.4735 173.683L0.547363 159.292V196.709L25.4727 211.099L25.4735 173.683Z" fill="#4B4B4B"/>
<path d="M0.547363 159.292L25.4735 173.682L42.9214 163.609L17.996 149.218L0.547363 159.292Z" fill="#3B3B3B"/>
<path d="M23.4393 192.658L3.49866 181.145L3.49945 195.004L3.04102 195.27L22.9816 206.781L23.4401 206.517L23.4393 192.658Z" fill="#242424"/>
<path d="M22.9811 192.923L3.04053 181.41L3.04131 195.27L22.9819 206.781L22.9811 192.923Z" fill="#3B3B3B"/>
<path d="M15.1648 190.759L11.774 188.801C11.3336 188.546 10.9771 188.663 10.9771 189.061C10.9771 189.458 11.3336 189.986 11.774 190.241L15.1656 192.198C15.606 192.452 15.9626 192.336 15.9626 191.939C15.9618 191.541 15.6053 191.013 15.1648 190.759Z" fill="#242424"/>
<path d="M23.4393 175.929L3.49866 164.416L3.49945 178.276L3.04102 178.541L22.9816 190.052L23.4401 189.788L23.4393 175.929Z" fill="#242424"/>
<path d="M22.9811 176.193L3.04053 164.681L3.04131 178.54L22.9819 190.052L22.9811 176.193Z" fill="#3B3B3B"/>
<path d="M15.1648 174.03L11.774 172.072C11.3336 171.817 10.9771 171.934 10.9771 172.332C10.9771 172.729 11.3336 173.257 11.774 173.512L15.1656 175.469C15.606 175.723 15.9626 175.607 15.9626 175.21C15.9618 174.812 15.6053 174.284 15.1648 174.03Z" fill="#242424"/>
<path d="M132.712 150.243L51.1316 197.341L46.179 200.201C46.0998 200.244 46.0214 200.287 45.9494 200.322C45.813 200.386 45.6766 200.444 45.5332 200.487C45.3687 200.551 45.1892 200.601 45.0176 200.63C44.9032 200.659 44.788 200.673 44.6736 200.687C44.6524 200.694 44.6234 200.701 44.6023 200.694C44.4589 200.715 44.3084 200.723 44.165 200.723C43.6635 200.73 43.2043 200.63 42.8602 200.436C42.0578 199.97 41.2263 198.652 41.0038 197.484L27.2563 126.066C27.2273 125.916 27.2132 125.751 27.2132 125.593C27.2132 125.464 27.2202 125.335 27.2422 125.206C27.2422 125.199 27.2422 125.199 27.2422 125.192C27.2712 124.998 27.3135 124.797 27.3785 124.611C27.4428 124.417 27.529 124.231 27.6223 124.052C27.6795 123.938 27.7516 123.823 27.8229 123.715C27.9091 123.593 28.0023 123.479 28.1026 123.371C28.1888 123.271 28.2892 123.178 28.3895 123.099C28.4898 123.012 28.6042 122.941 28.7123 122.876L115.246 72.9187C115.318 72.8756 115.397 72.8325 115.476 72.7964C115.555 72.7604 115.633 72.7173 115.72 72.6891C115.756 72.675 115.791 72.6601 115.834 72.653C115.941 72.6248 116.049 72.6099 116.149 72.617C116.687 72.6601 117.145 73.0252 117.683 73.3411C118.708 73.9429 119.603 74.4664 119.603 74.4664V74.4734C119.747 74.5306 119.876 74.6239 119.99 74.7461C120.141 74.9036 120.263 75.1043 120.341 75.3409C120.378 75.4412 120.399 75.5415 120.421 75.6348L134.168 147.052C134.39 148.221 133.738 149.648 132.712 150.243Z" fill="#17C1DE"/>
<path d="M132.712 150.243L51.1316 197.341L46.179 200.201C46.0998 200.244 46.0214 200.287 45.9494 200.322C45.813 200.386 45.6766 200.444 45.5332 200.487C45.3687 200.551 45.1892 200.601 45.0176 200.63C44.9032 200.659 44.788 200.673 44.6736 200.687C44.6524 200.694 44.6234 200.701 44.6023 200.694C44.4589 200.715 44.3084 200.723 44.165 200.723C43.6635 200.73 43.2043 200.63 42.8602 200.436C42.0578 199.97 41.2263 198.652 41.0038 197.484L27.2563 126.066C27.2273 125.916 27.2132 125.751 27.2132 125.593C27.2132 125.464 27.2202 125.335 27.2422 125.206C27.2422 125.199 27.2422 125.199 27.2422 125.192C27.2712 124.998 27.3135 124.797 27.3785 124.611C27.4428 124.417 27.529 124.231 27.6223 124.052C27.6795 123.938 27.7516 123.823 27.8229 123.715C27.9091 123.593 28.0023 123.479 28.1026 123.371C28.1888 123.271 28.2892 123.178 28.3895 123.099C28.4898 123.012 28.6042 122.941 28.7123 122.876L115.246 72.9187C115.318 72.8756 115.397 72.8325 115.476 72.7964C115.555 72.7604 115.633 72.7173 115.72 72.6891C115.756 72.675 115.791 72.6601 115.834 72.653C115.941 72.6248 116.049 72.6099 116.149 72.617C116.687 72.6601 117.145 73.0252 117.683 73.3411C118.708 73.9429 119.603 74.4664 119.603 74.4664V74.4734C119.747 74.5306 119.876 74.6239 119.99 74.7461C120.141 74.9036 120.263 75.1043 120.341 75.3409C120.378 75.4412 120.399 75.5415 120.421 75.6348L134.168 147.052C134.39 148.221 133.738 149.648 132.712 150.243Z" fill="#17C1DE"/>
<path d="M45.9495 200.323C44.9386 200.81 43.6126 200.868 42.8603 200.437C42.0579 199.971 41.2264 198.653 41.0039 197.485L27.2564 126.067C27.1349 125.415 27.2854 124.677 27.6216 124.053L30.5321 125.73C30.1951 126.354 30.0446 127.092 30.1669 127.744L43.9144 199.169C44.122 200.244 45.0036 200.724 45.9495 200.323Z" fill="#1B1B1B"/>
<path d="M117.682 73.3427C118.707 73.9445 119.603 74.468 119.603 74.468V74.4751C119.187 74.2745 118.671 74.3027 118.155 74.6044L31.6209 124.562C31.1695 124.82 30.7965 125.243 30.5317 125.731L27.6212 124.054C27.6784 123.939 27.7505 123.824 27.8218 123.717C27.908 123.595 28.0013 123.48 28.1016 123.373C28.281 123.179 28.4887 123.008 28.7105 122.878L115.244 72.9211C115.395 72.8349 115.552 72.7565 115.718 72.6915C115.754 72.6774 115.789 72.6625 115.832 72.6555C115.939 72.6272 116.047 72.6124 116.147 72.6194C116.686 72.6617 117.144 73.0269 117.682 73.3427Z" fill="#272727"/>
<path opacity="0.5" d="M117.682 73.3427C118.707 73.9445 119.603 74.468 119.603 74.468V74.4751C119.187 74.2745 118.671 74.3027 118.155 74.6044L31.6209 124.562C31.1695 124.82 30.7965 125.243 30.5317 125.731L27.6212 124.054C27.6784 123.939 27.7505 123.824 27.8218 123.717C27.908 123.595 28.0013 123.48 28.1016 123.373C28.281 123.179 28.4887 123.008 28.7105 122.878L115.244 72.9211C115.395 72.8349 115.552 72.7565 115.718 72.6915C115.754 72.6774 115.789 72.6625 115.832 72.6555C115.939 72.6272 116.047 72.6124 116.147 72.6194C116.686 72.6617 117.144 73.0269 117.682 73.3427Z" fill="#303030"/>
<path d="M43.9128 199.166L30.1677 127.746C29.9435 126.58 30.5948 125.153 31.6237 124.56L118.155 74.6009C119.183 74.0069 120.199 74.4708 120.424 75.6369L134.168 147.056C134.392 148.222 133.741 149.649 132.712 150.242L46.1814 200.201C45.1525 200.796 44.1369 200.332 43.9128 199.166Z" fill="#17C1DE"/>
<path d="M43.9128 199.166L30.1677 127.746C29.9435 126.58 30.5948 125.153 31.6237 124.56L118.155 74.6009C119.183 74.0069 120.199 74.4708 120.424 75.6369L134.168 147.056C134.392 148.222 133.741 149.649 132.712 150.242L46.1814 200.201C45.1525 200.796 44.1369 200.332 43.9128 199.166Z" fill="#272727"/>
<path opacity="0.5" d="M43.9128 199.166L30.1677 127.746C29.9435 126.58 30.5948 125.153 31.6237 124.56L118.155 74.6009C119.183 74.0069 120.199 74.4708 120.424 75.6369L134.168 147.056C134.392 148.222 133.741 149.649 132.712 150.242L46.1814 200.201C45.1525 200.796 44.1369 200.332 43.9128 199.166Z" fill="#1B1B1B"/>
<path d="M109.509 147.357L50.82 181.24L47.2568 183.297C47.2004 183.328 47.1432 183.359 47.0915 183.385C46.9935 183.431 46.8956 183.472 46.7921 183.503C46.6738 183.549 46.5445 183.585 46.4207 183.606C46.3384 183.627 46.2553 183.637 46.173 183.648C46.1574 183.653 46.137 183.658 46.1213 183.653C46.0179 183.669 45.9097 183.674 45.8071 183.674C45.4458 183.679 45.1159 183.606 44.8683 183.468C44.2907 183.132 43.6928 182.184 43.533 181.343L33.6433 129.966C33.623 129.858 33.6128 129.739 33.6128 129.626C33.6128 129.533 33.6183 129.44 33.6332 129.348C33.6332 129.342 33.6332 129.342 33.6332 129.337C33.6535 129.198 33.6849 129.054 33.7311 128.92C33.7773 128.78 33.8393 128.646 33.9067 128.518C33.9482 128.435 33.9991 128.352 34.0508 128.276C34.1128 128.188 34.1794 128.105 34.2522 128.028C34.3141 127.956 34.3862 127.888 34.4583 127.832C34.5304 127.77 34.6127 127.718 34.6903 127.672L96.9422 91.7326C96.9939 91.702 97.0504 91.6707 97.1076 91.6448C97.164 91.619 97.2212 91.5884 97.2831 91.5673C97.309 91.5571 97.3348 91.5469 97.3654 91.5414C97.443 91.521 97.5198 91.5108 97.5926 91.5155C97.979 91.5469 98.3097 91.8094 98.696 92.0367C99.4334 92.47 100.078 92.8462 100.078 92.8462V92.8517C100.182 92.8932 100.274 92.9598 100.357 93.0476C100.465 93.1612 100.552 93.3054 100.609 93.4754C100.635 93.5475 100.65 93.6196 100.665 93.687L110.555 145.064C110.716 145.904 110.246 146.929 109.509 147.357Z" fill="#17C1DE"/>
<path d="M109.509 147.357L50.82 181.24L47.2568 183.297C47.2004 183.328 47.1432 183.359 47.0915 183.385C46.9935 183.431 46.8956 183.472 46.7921 183.503C46.6738 183.549 46.5445 183.585 46.4207 183.606C46.3384 183.627 46.2553 183.637 46.173 183.648C46.1574 183.653 46.137 183.658 46.1213 183.653C46.0179 183.669 45.9097 183.674 45.8071 183.674C45.4458 183.679 45.1159 183.606 44.8683 183.468C44.2907 183.132 43.6928 182.184 43.533 181.343L33.6433 129.966C33.623 129.858 33.6128 129.739 33.6128 129.626C33.6128 129.533 33.6183 129.44 33.6332 129.348C33.6332 129.342 33.6332 129.342 33.6332 129.337C33.6535 129.198 33.6849 129.054 33.7311 128.92C33.7773 128.78 33.8393 128.646 33.9067 128.518C33.9482 128.435 33.9991 128.352 34.0508 128.276C34.1128 128.188 34.1794 128.105 34.2522 128.028C34.3141 127.956 34.3862 127.888 34.4583 127.832C34.5304 127.77 34.6127 127.718 34.6903 127.672L96.9422 91.7326C96.9939 91.702 97.0504 91.6707 97.1076 91.6448C97.164 91.619 97.2212 91.5884 97.2831 91.5673C97.309 91.5571 97.3348 91.5469 97.3654 91.5414C97.443 91.521 97.5198 91.5108 97.5926 91.5155C97.979 91.5469 98.3097 91.8094 98.696 92.0367C99.4334 92.47 100.078 92.8462 100.078 92.8462V92.8517C100.182 92.8932 100.274 92.9598 100.357 93.0476C100.465 93.1612 100.552 93.3054 100.609 93.4754C100.635 93.5475 100.65 93.6196 100.665 93.687L110.555 145.064C110.716 145.904 110.246 146.929 109.509 147.357Z" fill="#17C1DE"/>
<path d="M47.0916 183.385C46.3643 183.735 45.4106 183.777 44.8691 183.467C44.2916 183.132 43.6937 182.184 43.5338 181.343L33.6442 129.966C33.5564 129.496 33.6646 128.965 33.9075 128.517L36.0006 129.723C35.7585 130.172 35.6503 130.703 35.7381 131.172L45.6277 182.555C45.7766 183.329 46.4113 183.674 47.0916 183.385Z" fill="#2C2C2C"/>
<path d="M98.696 92.0365C99.4334 92.4698 100.078 92.846 100.078 92.846V92.8515C99.779 92.7073 99.4084 92.7276 99.0369 92.9439L36.785 128.883C36.4598 129.069 36.1918 129.373 36.0013 129.723L33.9082 128.517C33.9498 128.434 34.0007 128.351 34.0524 128.275C34.1143 128.187 34.181 128.104 34.2538 128.027C34.3831 127.887 34.532 127.764 34.6919 127.671L96.9438 91.7316C97.0519 91.6697 97.1656 91.6133 97.2839 91.5663C97.3098 91.5561 97.3356 91.5459 97.3662 91.5404C97.4438 91.52 97.5206 91.5099 97.5934 91.5146C97.979 91.5467 98.3089 91.8092 98.696 92.0365Z" fill="#5F5F5F"/>
<path d="M45.626 182.554L35.7379 131.175C35.5765 130.336 36.0451 129.31 36.7849 128.883L99.0352 92.9425C99.775 92.5154 100.505 92.8492 100.668 93.6877L110.556 145.067C110.717 145.906 110.248 146.932 109.509 147.359L47.2583 183.299C46.5185 183.726 45.7874 183.392 45.626 182.554Z" fill="#3D3D3D"/>
<path d="M91.668 132.25C91.2292 131.997 90.8734 131.353 90.8734 130.813V37.3764C90.8734 36.8365 91.2527 36.1798 91.7205 35.9094L150.397 2.03249C150.864 1.76213 151.599 1.74881 152.038 2.00192C152.476 2.25504 152.832 2.89841 152.832 3.43834L152.833 96.8754C152.833 97.4153 152.454 98.072 151.986 98.3424L93.3089 132.219C92.8411 132.49 92.1061 132.503 91.668 132.25Z" fill="#EBEBEB"/>
<path d="M152.825 3.29068C152.754 2.86046 152.409 2.71 151.987 2.95371L93.3058 36.8275C93.0692 36.9639 92.8545 37.2005 92.7111 37.4654L91.1195 36.5478C91.2699 36.2829 91.4854 36.0462 91.7213 35.9099L150.394 2.03607C150.86 1.76336 151.598 1.74925 152.036 2.00002C152.431 2.23668 152.768 2.78131 152.825 3.29068Z" fill="#707070"/>
<path d="M93.1917 132.277C92.7332 132.492 92.0734 132.484 91.6651 132.248C91.2278 131.998 90.8768 131.353 90.8768 130.815V37.3788C90.8768 37.1061 90.97 36.8122 91.1205 36.5474L92.7121 37.465C92.5545 37.7307 92.4613 38.0237 92.4613 38.2965V131.733C92.4605 132.227 92.7834 132.456 93.1917 132.277Z" fill="#232323"/>
<path d="M152.282 3.24219L152.181 3.28906L93.5039 37.166C93.3437 37.2583 93.1768 37.4327 93.0488 37.6543C92.9209 37.8758 92.8526 38.1076 92.8525 38.293L92.8535 131.73L92.8633 131.842C92.8691 131.871 92.8768 131.893 92.8838 131.908C92.8906 131.923 92.897 131.931 92.9004 131.935C92.9036 131.938 92.9058 131.939 92.9062 131.939C92.907 131.94 92.9089 131.942 92.9131 131.942C92.9182 131.943 92.9284 131.944 92.9443 131.942C92.9609 131.941 92.9836 131.937 93.0117 131.928L93.1133 131.88L151.79 98.0029C151.95 97.9102 152.117 97.7352 152.245 97.5137C152.373 97.292 152.441 97.0599 152.441 96.875L152.44 3.43848L152.431 3.32715C152.425 3.29813 152.417 3.27674 152.41 3.26172C152.403 3.24713 152.397 3.23926 152.394 3.23535C152.391 3.232 152.389 3.22992 152.389 3.22949C152.388 3.22919 152.386 3.22854 152.381 3.22754C152.376 3.2265 152.366 3.22516 152.35 3.22656C152.333 3.22803 152.31 3.23261 152.282 3.24219Z" fill="#3C3C3C"/>
<path d="M152.282 3.24219L152.181 3.28906L93.5039 37.166C93.3437 37.2583 93.1768 37.4327 93.0488 37.6543C92.9209 37.8758 92.8526 38.1076 92.8525 38.293L92.8535 131.73L92.8633 131.842C92.8691 131.871 92.8768 131.893 92.8838 131.908C92.8906 131.923 92.897 131.931 92.9004 131.935C92.9036 131.938 92.9058 131.939 92.9062 131.939C92.907 131.94 92.9089 131.942 92.9131 131.942C92.9182 131.943 92.9284 131.944 92.9443 131.942C92.9609 131.941 92.9836 131.937 93.0117 131.928L93.1133 131.88L151.79 98.0029C151.95 97.9102 152.117 97.7352 152.245 97.5137C152.373 97.292 152.441 97.0599 152.441 96.875L152.44 3.43848L152.431 3.32715C152.425 3.29813 152.417 3.27674 152.41 3.26172C152.403 3.24713 152.397 3.23926 152.394 3.23535C152.391 3.232 152.389 3.22992 152.389 3.22949C152.388 3.22919 152.386 3.22854 152.381 3.22754C152.376 3.2265 152.366 3.22516 152.35 3.22656C152.333 3.22803 152.31 3.23261 152.282 3.24219Z" fill="url(#paint3_radial_24_291)" fill-opacity="0.2" style="mix-blend-mode:exclusion"/>
<path d="M152.282 3.24219L152.181 3.28906L93.5039 37.166C93.3437 37.2583 93.1768 37.4327 93.0488 37.6543C92.9209 37.8758 92.8526 38.1076 92.8525 38.293L92.8535 131.73L92.8633 131.842C92.8691 131.871 92.8768 131.893 92.8838 131.908C92.8906 131.923 92.897 131.931 92.9004 131.935C92.9036 131.938 92.9058 131.939 92.9062 131.939C92.907 131.94 92.9089 131.942 92.9131 131.942C92.9182 131.943 92.9284 131.944 92.9443 131.942C92.9609 131.941 92.9836 131.937 93.0117 131.928L93.1133 131.88L151.79 98.0029C151.95 97.9102 152.117 97.7352 152.245 97.5137C152.373 97.292 152.441 97.0599 152.441 96.875L152.44 3.43848L152.431 3.32715C152.425 3.29813 152.417 3.27674 152.41 3.26172C152.403 3.24713 152.397 3.23926 152.394 3.23535C152.391 3.232 152.389 3.22992 152.389 3.22949C152.388 3.22919 152.386 3.22854 152.381 3.22754C152.376 3.2265 152.366 3.22516 152.35 3.22656C152.333 3.22803 152.31 3.23261 152.282 3.24219Z" fill="url(#paint4_radial_24_291)" fill-opacity="0.1" style="mix-blend-mode:exclusion"/>
<path d="M152.282 3.24219L152.181 3.28906L93.5039 37.166C93.3437 37.2583 93.1768 37.4327 93.0488 37.6543C92.9209 37.8758 92.8526 38.1076 92.8525 38.293L92.8535 131.73L92.8633 131.842C92.8691 131.871 92.8768 131.893 92.8838 131.908C92.8906 131.923 92.897 131.931 92.9004 131.935C92.9036 131.938 92.9058 131.939 92.9062 131.939C92.907 131.94 92.9089 131.942 92.9131 131.942C92.9182 131.943 92.9284 131.944 92.9443 131.942C92.9609 131.941 92.9836 131.937 93.0117 131.928L93.1133 131.88L151.79 98.0029C151.95 97.9102 152.117 97.7352 152.245 97.5137C152.373 97.292 152.441 97.0599 152.441 96.875L152.44 3.43848L152.431 3.32715C152.425 3.29813 152.417 3.27674 152.41 3.26172C152.403 3.24713 152.397 3.23926 152.394 3.23535C152.391 3.232 152.389 3.22992 152.389 3.22949C152.388 3.22919 152.386 3.22854 152.381 3.22754C152.376 3.2265 152.366 3.22516 152.35 3.22656C152.333 3.22803 152.31 3.23261 152.282 3.24219Z" stroke="url(#paint5_linear_24_291)" stroke-width="0.783644"/>
<g opacity="0.3">
<path d="M96.7467 79.3915C96.7467 80.1101 97.3916 80.3193 98.187 79.8601L147.106 51.6144C147.901 51.1552 148.546 50.2007 148.546 49.4821C148.546 48.7635 147.901 48.5543 147.106 49.0135L98.1863 77.2592C97.3916 77.7184 96.7467 78.6729 96.7467 79.3915Z" fill="#898989"/>
<path d="M96.7467 87.193C96.7467 87.9116 97.3916 88.1208 98.187 87.6616L147.106 59.4159C147.901 58.9567 148.546 58.0022 148.546 57.2836C148.546 56.565 147.901 56.3558 147.106 56.815L98.1863 85.0607C97.3916 85.5207 96.7467 86.4752 96.7467 87.193Z" fill="#898989"/>
<path d="M96.7467 94.9947C96.7467 95.7126 97.3916 95.9226 98.187 95.4634L147.106 67.2177C147.901 66.7585 148.546 65.804 148.546 65.0854C148.546 64.3668 147.901 64.1576 147.106 64.6168L98.1863 92.8625C97.3916 93.3225 96.7467 94.2769 96.7467 94.9947Z" fill="#898989"/>
<path d="M96.7467 102.797C96.7467 103.515 97.3916 103.725 98.187 103.265L147.106 75.0197C147.901 74.5605 148.546 73.606 148.546 72.8874C148.546 72.1688 147.901 71.9596 147.106 72.4188L98.1863 100.664C97.3916 101.124 96.7467 102.079 96.7467 102.797Z" fill="#898989"/>
<path d="M96.7467 55.9858C96.7467 56.7036 97.3916 56.9136 98.187 56.4544L147.106 28.2087C147.901 27.7495 148.546 26.795 148.546 26.0764C148.546 25.3586 147.901 25.1486 147.106 25.6078L98.1863 53.8535C97.3916 54.3135 96.7467 55.2679 96.7467 55.9858Z" fill="#898989"/>
<path d="M96.7467 63.7877C96.7467 64.5055 97.3916 64.7155 98.187 64.2563L147.106 36.0107C147.901 35.5514 148.546 34.597 148.546 33.8784C148.546 33.1598 147.901 32.9505 147.106 33.4097L98.1863 61.6554C97.3916 62.1146 96.7467 63.0691 96.7467 63.7877Z" fill="#898989"/>
<path d="M96.7467 48.1948C96.7467 48.9134 97.3916 49.1226 98.187 48.6634L147.106 20.4177C147.901 19.9585 148.546 19.004 148.546 18.2854C148.546 17.5676 147.901 17.3576 147.106 17.8168L98.1863 46.0625C97.3916 46.5217 96.7467 47.4769 96.7467 48.1948Z" fill="#898989"/>
<path d="M96.7467 71.5897C96.7467 72.3075 97.3916 72.5176 98.187 72.0583L147.106 43.8127C147.901 43.3534 148.546 42.399 148.546 41.6804C148.546 40.9618 147.901 40.7525 147.106 41.2117L98.1863 69.4574C97.3916 69.9166 96.7467 70.8711 96.7467 71.5897Z" fill="#898989"/>
<path d="M96.7467 110.599C96.7467 111.317 97.3916 111.526 98.187 111.067L147.106 82.8215C147.901 82.3622 148.546 81.4078 148.546 80.6892C148.546 79.9705 147.901 79.7613 147.106 80.2205L98.1863 108.466C97.3916 108.925 96.7467 109.881 96.7467 110.599Z" fill="#898989"/>
<path d="M96.7467 118.401C96.7467 119.119 97.3916 119.329 98.187 118.869L147.106 90.6237C147.901 90.1645 148.546 89.2101 148.546 88.4915C148.546 87.7736 147.901 87.5636 147.106 88.0228L98.1863 116.269C97.3916 116.728 96.7467 117.682 96.7467 118.401Z" fill="#898989"/>
</g>
<path d="M136.21 82.291C136.21 81.6955 136.006 81.2762 135.678 81.0646C135.678 81.0646 135.631 81.0254 135.54 80.9847L132.736 79.3477C132.736 79.3477 132.734 79.3469 132.733 79.3461L132.726 79.3422V79.3437C132.376 79.1455 131.895 79.1753 131.363 79.4825L75.2782 111.823L73.6459 105.238C73.497 104.741 73.2015 104.38 72.8356 104.165L72.8465 104.16L69.9275 102.465L69.929 102.477C69.4228 102.178 68.7755 102.163 68.1533 102.523L44.2921 116.296C43.2209 116.914 42.3518 118.418 42.3518 119.655L42.3542 199.222C42.3542 199.815 42.5493 200.238 42.8753 200.451L45.879 202.192C46.2261 202.366 46.6877 202.327 47.1994 202.031L134.304 151.742C135.375 151.123 136.244 149.619 136.244 148.382L136.21 82.291Z" fill="#17C1DE"/>
<path d="M72.7954 104.134C72.2939 103.857 71.667 103.865 71.0573 104.215L47.1985 117.986C46.6695 118.299 46.186 118.828 45.8279 119.437L42.9213 117.743C43.2708 117.135 43.7551 116.596 44.2919 116.292L68.1507 102.521C68.7777 102.163 69.4226 102.181 69.9249 102.477V102.468L72.7954 104.134Z" fill="#303030"/>
<path d="M135.541 80.9836C135.2 80.8402 134.752 80.8942 134.269 81.1716L78.1292 113.56C77.054 114.178 75.8981 113.721 75.54 112.529L75.279 111.822L131.363 79.4782C131.668 79.2987 131.963 79.218 132.223 79.218C132.411 79.218 132.581 79.2627 132.725 79.3434H132.734L135.541 80.9836Z" fill="#303030"/>
<path d="M136.209 82.2936L136.243 148.382C136.243 149.622 135.376 151.127 134.301 151.744L46.9735 202.161C46.2111 202.601 45.2582 202.051 45.2582 201.17V121.347C45.2582 120.731 45.4729 120.042 45.8247 119.44C46.1828 118.831 46.6703 118.301 47.1938 117.992L71.0542 104.216C71.663 103.872 72.2939 103.858 72.7962 104.137L72.8463 104.165H72.8322C73.1974 104.38 73.4913 104.739 73.6425 105.24L75.278 111.823L75.5358 112.533C75.8939 113.722 77.0483 114.182 78.1234 113.565L134.267 81.1746C134.747 80.8948 135.199 80.8447 135.536 80.9881L135.615 81.0312C135.629 81.0383 135.643 81.0453 135.658 81.0524L135.679 81.0665C136.001 81.2765 136.209 81.6989 136.209 82.2936Z" fill="#2E2E2E"/>
<path d="M135.374 81.3447C135.21 81.2786 134.949 81.2753 134.614 81.4336L134.464 81.5137H134.463L78.3193 113.904L78.3184 113.905C77.6893 114.266 77.0072 114.325 76.416 114.09C75.8248 113.854 75.3696 113.341 75.1602 112.646L75.1611 112.645L74.9102 111.957L74.9023 111.938L74.8975 111.917L73.2676 105.354C73.1432 104.941 72.9092 104.665 72.6338 104.503L72.5488 104.452C72.2381 104.301 71.8502 104.285 71.4365 104.463L71.2471 104.558L47.3896 118.331C46.9386 118.598 46.4957 119.072 46.1631 119.637V119.638C45.8383 120.193 45.6504 120.815 45.6504 121.347V201.17C45.6504 201.713 46.2008 202.065 46.6826 201.868L46.7773 201.821L134.104 151.405L134.105 151.404L134.278 151.295C134.678 151.019 135.051 150.594 135.336 150.101C135.662 149.536 135.851 148.918 135.852 148.383L135.816 82.2939L135.809 82.1133C135.778 81.7736 135.66 81.5621 135.53 81.4453L135.465 81.3945L135.461 81.3926L135.46 81.3906L135.439 81.3818L135.428 81.375L135.374 81.3447Z" stroke="#656565" stroke-opacity="0.2" stroke-width="0.783644"/>
<path d="M85.9995 143.741C86.1264 143.801 86.2596 143.829 86.3913 143.829C86.7361 143.829 87.066 143.635 87.2227 143.303L89.8315 137.78V147.573C89.8315 148.081 90.2429 148.493 90.7507 148.493C91.2585 148.493 91.6699 148.081 91.6699 147.573V135.842L94.473 138.539C94.8398 138.892 95.4212 138.879 95.7731 138.514C96.1249 138.148 96.114 137.566 95.748 137.214L91.3886 133.02C91.1747 132.814 90.8808 132.723 90.5846 132.777C90.2938 132.832 90.0462 133.022 89.92 133.289L85.5614 142.517C85.3443 142.977 85.5402 143.525 85.9995 143.741Z" fill="#17C1DE"/>
<path d="M97.0115 141.645C96.5037 141.645 96.0923 142.056 96.0923 142.564V148.11L85.4105 154.278V149.793C85.4105 149.285 84.999 148.874 84.4912 148.874C83.9834 148.874 83.572 149.285 83.572 149.793V155.87C83.572 156.198 83.7476 156.501 84.0312 156.666C84.1739 156.748 84.3322 156.789 84.4912 156.789C84.6495 156.789 84.8086 156.747 84.9505 156.666L97.4707 149.437C97.7552 149.274 97.9299 148.97 97.9299 148.641V142.565C97.9307 142.056 97.5185 141.645 97.0115 141.645Z" fill="#17C1DE"/>
<path d="M45.9634 202.221C45.9344 202.214 45.9062 202.207 45.8772 202.192L42.8743 200.45C42.5514 200.235 42.3508 199.812 42.3508 199.217V119.651C42.3508 119.028 42.5733 118.354 42.9244 117.745L45.827 119.437V119.444C45.4759 120.046 45.2604 120.734 45.2604 121.35V201.168C45.2612 201.662 45.5622 202.056 45.9634 202.221Z" fill="#1B1B1B"/>
<path d="M188.578 172.056H297.423C303.735 172.056 308.851 177.174 308.851 183.485C308.851 189.797 303.735 194.913 297.423 194.913H188.578C182.266 194.913 177.149 189.797 177.149 183.485C177.149 177.174 182.266 172.056 188.578 172.056Z" fill="#265B64"/>
<path d="M188.578 172.056H297.423C303.735 172.056 308.851 177.174 308.851 183.485C308.851 189.797 303.735 194.913 297.423 194.913H188.578C182.266 194.913 177.149 189.797 177.149 183.485C177.149 177.174 182.266 172.056 188.578 172.056Z" stroke="url(#paint6_linear_24_291)" stroke-width="0.914756"/>
<path d="M192.857 184.272C192.786 185.153 192.476 185.854 191.916 186.374C191.355 186.895 190.635 187.155 189.754 187.155C188.743 187.155 187.932 186.815 187.332 186.134C186.721 185.454 186.421 184.553 186.421 183.422C186.421 182.741 186.551 182.131 186.811 181.57C187.071 181.01 187.462 180.559 187.982 180.219C188.503 179.879 189.113 179.698 189.814 179.698C190.565 179.698 191.225 179.909 191.786 180.329C192.346 180.749 192.676 181.35 192.796 182.131H191.555C191.465 181.71 191.265 181.37 190.955 181.13C190.635 180.889 190.254 180.759 189.794 180.759C189.313 180.759 188.913 180.9 188.583 181.16C188.252 181.43 188.022 181.76 187.882 182.151C187.742 182.541 187.682 182.961 187.682 183.422C187.682 183.772 187.722 184.102 187.802 184.403C187.882 184.713 188.002 184.993 188.162 185.253C188.323 185.514 188.533 185.714 188.813 185.864C189.093 186.024 189.413 186.094 189.784 186.094C190.845 186.094 191.445 185.494 191.605 184.272H192.857ZM196.216 181.67C196.997 181.67 197.628 181.92 198.098 182.411C198.558 182.911 198.799 183.572 198.799 184.403C198.799 185.243 198.558 185.914 198.098 186.404C197.638 186.905 197.007 187.145 196.216 187.145C195.406 187.145 194.765 186.905 194.295 186.404C193.814 185.914 193.584 185.243 193.584 184.403C193.584 183.572 193.814 182.911 194.295 182.411C194.775 181.92 195.416 181.67 196.216 181.67ZM196.196 182.571C195.736 182.571 195.386 182.741 195.125 183.061C194.865 183.392 194.735 183.842 194.735 184.403C194.735 184.983 194.865 185.444 195.125 185.764C195.386 186.094 195.746 186.254 196.206 186.254C196.647 186.254 196.997 186.094 197.257 185.764C197.517 185.433 197.648 184.973 197.648 184.393C197.648 183.832 197.517 183.382 197.257 183.061C196.997 182.741 196.647 182.571 196.196 182.571ZM200.848 181.82V182.581C201.258 181.98 201.829 181.68 202.56 181.68C203.14 181.68 203.581 181.84 203.871 182.161C204.161 182.481 204.311 182.941 204.311 183.542V186.985H203.17V183.982C203.17 183.782 203.16 183.612 203.14 183.472C203.12 183.332 203.07 183.192 203.01 183.051C202.95 182.911 202.85 182.811 202.71 182.741C202.57 182.671 202.389 182.631 202.169 182.631C201.329 182.631 200.908 183.161 200.908 184.202V186.985H199.767V181.82H200.848ZM208.687 180.92V179.839H209.828V180.92H208.687ZM204.994 182.661V181.81H205.845V181.38C205.845 180.779 205.965 180.379 206.225 180.159C206.485 179.949 206.836 179.839 207.276 179.839C207.646 179.839 207.917 179.869 208.077 179.909V180.799C207.917 180.759 207.746 180.739 207.546 180.739C207.166 180.739 206.986 180.92 206.986 181.28V181.81H207.957V182.661H206.986V186.985H205.845V182.661H204.994ZM208.687 186.985V181.81H209.828V186.985H208.687ZM215.96 179.859V186.985H214.889V186.274C214.559 186.845 214.009 187.125 213.238 187.125C212.507 187.125 211.927 186.885 211.496 186.384C211.066 185.894 210.856 185.233 210.856 184.393C210.856 183.572 211.066 182.911 211.486 182.421C211.907 181.93 212.477 181.68 213.198 181.68C213.918 181.68 214.469 181.95 214.839 182.491V179.859H215.96ZM213.408 182.601C212.968 182.601 212.627 182.761 212.377 183.081C212.127 183.402 212.007 183.832 212.007 184.373C212.007 184.943 212.127 185.393 212.387 185.714C212.647 186.044 212.998 186.204 213.448 186.204C213.888 186.204 214.239 186.044 214.489 185.724C214.739 185.403 214.869 184.963 214.869 184.393C214.869 183.832 214.739 183.392 214.479 183.071C214.219 182.761 213.868 182.601 213.408 182.601ZM221.809 185.373C221.679 185.934 221.398 186.374 220.978 186.685C220.558 187.005 220.047 187.155 219.467 187.155C218.686 187.155 218.065 186.905 217.605 186.404C217.145 185.904 216.924 185.253 216.924 184.463C216.924 183.662 217.155 182.991 217.625 182.461C218.095 181.94 218.696 181.67 219.427 181.67C220.177 181.67 220.778 181.93 221.218 182.451C221.659 182.971 221.879 183.672 221.879 184.563V184.683H218.065C218.075 185.203 218.205 185.614 218.456 185.894C218.696 186.174 219.046 186.314 219.487 186.314C219.797 186.314 220.047 186.244 220.247 186.094C220.447 185.944 220.598 185.704 220.718 185.373H221.809ZM220.738 183.922C220.698 183.492 220.568 183.151 220.327 182.901C220.087 182.651 219.787 182.521 219.417 182.521C219.036 182.521 218.736 182.641 218.506 182.881C218.276 183.121 218.135 183.472 218.085 183.922H220.738ZM223.837 181.82V182.581C224.247 181.98 224.818 181.68 225.549 181.68C226.129 181.68 226.569 181.84 226.86 182.161C227.15 182.481 227.3 182.941 227.3 183.542V186.985H226.159V183.982C226.159 183.782 226.149 183.612 226.129 183.472C226.109 183.332 226.059 183.192 225.999 183.051C225.939 182.911 225.839 182.811 225.699 182.741C225.559 182.671 225.378 182.631 225.158 182.631C224.318 182.631 223.897 183.161 223.897 184.202V186.985H222.756V181.82H223.837ZM231.016 181.82V182.651H229.975V185.373C229.975 185.534 229.975 185.654 229.985 185.714C229.985 185.774 230.005 185.844 230.045 185.924C230.075 186.004 230.135 186.054 230.215 186.074C230.295 186.104 230.415 186.114 230.565 186.114C230.745 186.114 230.895 186.114 231.016 186.094V186.995C230.785 187.025 230.525 187.035 230.245 187.035C230.045 187.035 229.865 187.025 229.714 186.995C229.564 186.965 229.444 186.925 229.344 186.885C229.244 186.845 229.154 186.785 229.094 186.685C229.024 186.585 228.974 186.504 228.934 186.444C228.894 186.384 228.874 186.264 228.854 186.104C228.834 185.944 228.834 185.824 228.834 185.744V185.303V185.243V185.183V185.113V182.651H227.973V181.82H228.834V180.269H229.975V181.82H231.016ZM232.997 179.829V180.95H231.856V179.829H232.997ZM232.997 181.82V186.985H231.856V181.82H232.997ZM234.191 183.412C234.311 182.251 235.061 181.66 236.453 181.66C237.093 181.66 237.614 181.79 237.994 182.041C238.374 182.301 238.574 182.691 238.574 183.222V185.844C238.574 185.994 238.584 186.094 238.624 186.144C238.665 186.204 238.735 186.224 238.845 186.224C238.925 186.224 239.005 186.224 239.105 186.204V187.005C238.805 187.085 238.564 187.115 238.364 187.115C237.874 187.115 237.594 186.915 237.524 186.494C237.083 186.915 236.483 187.115 235.712 187.115C235.171 187.115 234.751 186.985 234.441 186.705C234.121 186.424 233.97 186.054 233.97 185.574C233.97 185.433 233.98 185.293 234.02 185.163C234.05 185.043 234.09 184.933 234.131 184.833C234.171 184.743 234.241 184.653 234.341 184.573C234.441 184.493 234.521 184.433 234.581 184.373C234.641 184.323 234.751 184.272 234.891 184.222C235.031 184.182 235.141 184.142 235.211 184.122C235.282 184.102 235.402 184.072 235.582 184.042C235.752 184.022 235.862 184.002 235.922 183.992C235.982 183.982 236.102 183.962 236.282 183.942C236.683 183.892 236.963 183.852 237.113 183.812C237.253 183.772 237.353 183.722 237.413 183.642C237.453 183.592 237.483 183.472 237.483 183.272C237.483 182.751 237.123 182.491 236.423 182.491C236.042 182.491 235.772 182.561 235.602 182.701C235.422 182.841 235.312 183.081 235.272 183.412H234.191ZM237.473 184.393C237.383 184.443 237.283 184.483 237.173 184.523C237.053 184.563 236.963 184.583 236.893 184.593C236.823 184.603 236.713 184.613 236.563 184.633C236.413 184.653 236.312 184.673 236.272 184.673C236.132 184.693 236.022 184.713 235.942 184.733C235.862 184.753 235.762 184.773 235.642 184.813C235.522 184.853 235.432 184.903 235.372 184.963C235.312 185.023 235.252 185.093 235.211 185.193C235.161 185.293 235.141 185.403 235.141 185.534C235.141 185.784 235.221 185.974 235.382 186.104C235.542 186.244 235.772 186.304 236.072 186.304C236.573 186.304 236.963 186.174 237.243 185.894C237.393 185.744 237.473 185.444 237.473 185.003V184.393ZM240.973 179.859V186.985H239.842V179.859H240.973ZM250.277 181.96H249.086C249.006 181.13 248.495 180.709 247.534 180.709C247.104 180.709 246.774 180.799 246.533 180.98C246.293 181.16 246.173 181.4 246.173 181.7C246.173 181.99 246.253 182.191 246.433 182.291C246.613 182.401 247.004 182.531 247.614 182.681C247.775 182.731 247.895 182.761 247.985 182.781C248.775 182.981 249.316 183.161 249.606 183.322C250.237 183.662 250.557 184.192 250.557 184.913C250.557 185.233 250.497 185.514 250.397 185.764C250.287 186.024 250.147 186.234 249.966 186.404C249.786 186.575 249.566 186.715 249.326 186.825C249.076 186.945 248.815 187.025 248.555 187.075C248.285 187.125 248.005 187.145 247.724 187.145C246.824 187.145 246.103 186.935 245.553 186.504C244.992 186.084 244.722 185.454 244.722 184.623H245.953C245.953 185.143 246.123 185.534 246.463 185.784C246.804 186.034 247.244 186.154 247.795 186.154C248.275 186.154 248.645 186.064 248.916 185.864C249.186 185.664 249.326 185.393 249.326 185.033C249.326 184.813 249.246 184.623 249.106 184.483C248.966 184.343 248.805 184.232 248.645 184.172C248.475 184.112 248.185 184.032 247.775 183.922C247.724 183.912 247.684 183.902 247.664 183.892C246.774 183.672 246.193 183.482 245.913 183.332C245.332 183.031 245.022 182.571 244.982 181.94V181.8C244.982 181.17 245.212 180.669 245.693 180.289C246.173 179.909 246.814 179.718 247.614 179.718C248.385 179.718 249.016 179.909 249.506 180.269C249.986 180.639 250.247 181.2 250.277 181.96ZM256.116 185.373C255.986 185.934 255.706 186.374 255.285 186.685C254.865 187.005 254.355 187.155 253.774 187.155C252.993 187.155 252.373 186.905 251.913 186.404C251.452 185.904 251.232 185.253 251.232 184.463C251.232 183.662 251.462 182.991 251.933 182.461C252.403 181.94 253.003 181.67 253.734 181.67C254.485 181.67 255.085 181.93 255.526 182.451C255.966 182.971 256.186 183.672 256.186 184.563V184.683H252.373C252.383 185.203 252.513 185.614 252.763 185.894C253.003 186.174 253.354 186.314 253.794 186.314C254.104 186.314 254.355 186.244 254.555 186.094C254.755 185.944 254.905 185.704 255.025 185.373H256.116ZM255.045 183.922C255.005 183.492 254.875 183.151 254.635 182.901C254.395 182.651 254.094 182.521 253.724 182.521C253.344 182.521 253.044 182.641 252.813 182.881C252.583 183.121 252.443 183.472 252.393 183.922H255.045ZM259.576 181.82V182.651H258.535V185.373C258.535 185.534 258.535 185.654 258.545 185.714C258.545 185.774 258.565 185.844 258.605 185.924C258.635 186.004 258.695 186.054 258.775 186.074C258.855 186.104 258.975 186.114 259.126 186.114C259.306 186.114 259.456 186.114 259.576 186.094V186.995C259.346 187.025 259.085 187.035 258.805 187.035C258.605 187.035 258.425 187.025 258.275 186.995C258.125 186.965 258.005 186.925 257.904 186.885C257.804 186.845 257.714 186.785 257.654 186.685C257.584 186.585 257.534 186.504 257.494 186.444C257.454 186.384 257.434 186.264 257.414 186.104C257.394 185.944 257.394 185.824 257.394 185.744V185.303V185.243V185.183V185.113V182.651H256.533V181.82H257.394V180.269H258.535V181.82H259.576ZM262.909 181.82V182.651H261.868V185.373C261.868 185.534 261.868 185.654 261.878 185.714C261.878 185.774 261.898 185.844 261.938 185.924C261.968 186.004 262.028 186.054 262.108 186.074C262.188 186.104 262.308 186.114 262.459 186.114C262.639 186.114 262.789 186.114 262.909 186.094V186.995C262.679 187.025 262.418 187.035 262.138 187.035C261.938 187.035 261.758 187.025 261.608 186.995C261.458 186.965 261.338 186.925 261.237 186.885C261.137 186.845 261.047 186.785 260.987 186.685C260.917 186.585 260.867 186.504 260.827 186.444C260.787 186.384 260.767 186.264 260.747 186.104C260.727 185.944 260.727 185.824 260.727 185.744V185.303V185.243V185.183V185.113V182.651H259.866V181.82H260.727V180.269H261.868V181.82H262.909ZM264.891 179.859V186.985H263.76V179.859H264.891ZM270.758 185.373C270.628 185.934 270.348 186.374 269.927 186.685C269.507 187.005 268.996 187.155 268.416 187.155C267.635 187.155 267.015 186.905 266.554 186.404C266.094 185.904 265.874 185.253 265.874 184.463C265.874 183.662 266.104 182.991 266.574 182.461C267.045 181.94 267.645 181.67 268.376 181.67C269.127 181.67 269.727 181.93 270.168 182.451C270.608 182.971 270.828 183.672 270.828 184.563V184.683H267.015C267.025 185.203 267.155 185.614 267.405 185.894C267.645 186.174 267.996 186.314 268.436 186.314C268.746 186.314 268.996 186.244 269.197 186.094C269.397 185.944 269.547 185.704 269.667 185.373H270.758ZM269.687 183.922C269.647 183.492 269.517 183.151 269.277 182.901C269.037 182.651 268.736 182.521 268.366 182.521C267.986 182.521 267.685 182.641 267.455 182.881C267.225 183.121 267.085 183.472 267.035 183.922H269.687ZM272.786 181.82V182.551C273.207 181.97 273.747 181.68 274.408 181.68C274.748 181.68 275.038 181.76 275.289 181.91C275.539 182.071 275.729 182.281 275.849 182.561C276.26 181.98 276.82 181.68 277.521 181.68C278.001 181.68 278.411 181.83 278.732 182.121C279.052 182.411 279.212 182.811 279.212 183.322V186.985H278.071V183.812C278.071 183.452 278.001 183.161 277.881 182.951C277.751 182.751 277.511 182.641 277.15 182.641C276.78 182.641 276.5 182.761 276.31 182.991C276.109 183.222 276.019 183.542 276.019 183.952V186.985H274.878V183.752C274.878 183.392 274.818 183.111 274.708 182.921C274.598 182.741 274.368 182.641 274.028 182.641C273.637 182.641 273.347 182.771 273.147 183.021C272.947 183.272 272.847 183.602 272.847 184.012V186.985H271.706V181.82H272.786ZM285.028 185.373C284.898 185.934 284.618 186.374 284.198 186.685C283.777 187.005 283.267 187.155 282.686 187.155C281.906 187.155 281.285 186.905 280.825 186.404C280.364 185.904 280.144 185.253 280.144 184.463C280.144 183.662 280.374 182.991 280.845 182.461C281.315 181.94 281.916 181.67 282.646 181.67C283.397 181.67 283.997 181.93 284.438 182.451C284.878 182.971 285.098 183.672 285.098 184.563V184.683H281.285C281.295 185.203 281.425 185.614 281.675 185.894C281.916 186.174 282.266 186.314 282.706 186.314C283.017 186.314 283.267 186.244 283.467 186.094C283.667 185.944 283.817 185.704 283.937 185.373H285.028ZM283.957 183.922C283.917 183.492 283.787 183.151 283.547 182.901C283.307 182.651 283.007 182.521 282.636 182.521C282.256 182.521 281.956 182.641 281.725 182.881C281.495 183.121 281.355 183.472 281.305 183.922H283.957ZM287.057 181.82V182.581C287.467 181.98 288.038 181.68 288.768 181.68C289.349 181.68 289.789 181.84 290.079 182.161C290.37 182.481 290.52 182.941 290.52 183.542V186.985H289.379V183.982C289.379 183.782 289.369 183.612 289.349 183.472C289.329 183.332 289.279 183.192 289.219 183.051C289.159 182.911 289.059 182.811 288.918 182.741C288.778 182.671 288.598 182.631 288.378 182.631C287.537 182.631 287.117 183.161 287.117 184.202V186.985H285.976V181.82H287.057ZM294.235 181.82V182.651H293.194V185.373C293.194 185.534 293.194 185.654 293.204 185.714C293.204 185.774 293.224 185.844 293.264 185.924C293.295 186.004 293.355 186.054 293.435 186.074C293.515 186.104 293.635 186.114 293.785 186.114C293.965 186.114 294.115 186.114 294.235 186.094V186.995C294.005 187.025 293.745 187.035 293.465 187.035C293.264 187.035 293.084 187.025 292.934 186.995C292.784 186.965 292.664 186.925 292.564 186.885C292.464 186.845 292.374 186.785 292.314 186.685C292.244 186.585 292.194 186.504 292.154 186.444C292.113 186.384 292.093 186.264 292.073 186.104C292.053 185.944 292.053 185.824 292.053 185.744V185.303V185.243V185.183V185.113V182.651H291.193V181.82H292.053V180.269H293.194V181.82H294.235ZM299.14 183.322H298.049C297.979 182.781 297.608 182.501 296.928 182.501C296.628 182.501 296.407 182.561 296.247 182.661C296.087 182.771 296.007 182.921 296.007 183.101C296.007 183.161 296.007 183.222 296.017 183.262C296.027 183.312 296.047 183.352 296.077 183.392C296.107 183.432 296.137 183.462 296.157 183.482C296.177 183.512 296.227 183.542 296.287 183.562C296.347 183.592 296.387 183.612 296.427 183.632C296.467 183.652 296.527 183.672 296.618 183.692C296.698 183.712 296.768 183.732 296.818 183.742C296.868 183.762 296.948 183.782 297.068 183.802C297.178 183.822 297.268 183.842 297.328 183.852C297.588 183.912 297.769 183.962 297.889 183.992C298.009 184.022 298.179 184.082 298.399 184.172C298.619 184.262 298.789 184.353 298.9 184.453C299 184.553 299.1 184.683 299.19 184.853C299.28 185.023 299.33 185.213 299.33 185.433C299.33 185.954 299.12 186.374 298.719 186.675C298.309 186.985 297.759 187.135 297.078 187.135C296.337 187.135 295.777 186.985 295.386 186.675C294.986 186.374 294.776 185.924 294.756 185.333H295.847C295.907 185.984 296.317 186.304 297.098 186.304C297.428 186.304 297.698 186.244 297.899 186.104C298.099 185.964 298.209 185.784 298.209 185.554C298.209 185.444 298.179 185.343 298.129 185.263C298.079 185.183 297.999 185.123 297.889 185.063C297.769 185.003 297.658 184.963 297.558 184.933C297.458 184.903 297.318 184.863 297.148 184.823L297.088 184.813C297.068 184.813 297.058 184.803 297.038 184.803C297.018 184.803 296.998 184.793 296.978 184.783C296.237 184.603 295.777 184.463 295.577 184.363C295.096 184.142 294.866 183.762 294.866 183.232C294.866 182.751 295.046 182.371 295.426 182.091C295.797 181.81 296.317 181.67 296.978 181.67C297.608 181.67 298.129 181.81 298.529 182.081C298.93 182.361 299.14 182.771 299.14 183.322Z" fill="white"/>
<path d="M166.5 70.9023H220.096C225.289 70.9023 229.499 75.1122 229.499 80.3055L229.5 92.1466" stroke="url(#paint7_linear_24_291)" stroke-width="0.783644"/>
<path d="M315.5 70.9023H261.904C256.711 70.9023 252.501 75.1122 252.501 80.3055L252.5 92.1466" stroke="url(#paint8_linear_24_291)" stroke-width="0.783644"/>
<path d="M173.013 100.998C174.194 100.998 174.792 101.881 174.792 103.645C174.792 104.499 174.639 105.148 174.347 105.585C174.048 106.03 173.611 106.249 173.042 106.249C171.853 106.249 171.263 105.381 171.263 103.631C171.263 102.77 171.408 102.121 171.707 101.669C171.999 101.224 172.437 100.998 173.013 100.998ZM173.02 101.698C172.874 101.698 172.743 101.727 172.641 101.786C172.531 101.844 172.444 101.924 172.378 102.041C172.313 102.158 172.262 102.267 172.225 102.384C172.181 102.5 172.152 102.639 172.138 102.814C172.123 102.989 172.108 103.135 172.108 103.252C172.101 103.368 172.101 103.507 172.101 103.682C172.101 104.338 172.174 104.819 172.32 105.111C172.466 105.41 172.706 105.556 173.035 105.556C173.159 105.556 173.268 105.534 173.37 105.483C173.472 105.432 173.552 105.366 173.618 105.293C173.676 105.221 173.735 105.126 173.778 105.002C173.822 104.885 173.851 104.776 173.873 104.674C173.895 104.572 173.91 104.448 173.924 104.302C173.939 104.156 173.946 104.039 173.946 103.959C173.946 103.879 173.954 103.777 173.954 103.645C173.954 103.485 173.946 103.354 173.946 103.266C173.946 103.179 173.939 103.04 173.924 102.858C173.91 102.675 173.881 102.53 173.837 102.413C173.793 102.304 173.742 102.187 173.676 102.063C173.611 101.946 173.523 101.851 173.414 101.793C173.297 101.735 173.166 101.698 173.02 101.698Z" fill="white" fill-opacity="0.4"/>
<path d="M182.749 101.013V106.147H181.86V102.617H180.591V102.005C181.473 102.005 181.969 101.676 182.078 101.013H182.749Z" fill="white" fill-opacity="0.4"/>
<path d="M191.013 100.998C192.194 100.998 192.792 101.881 192.792 103.645C192.792 104.499 192.639 105.148 192.347 105.585C192.048 106.03 191.611 106.249 191.042 106.249C189.853 106.249 189.263 105.381 189.263 103.631C189.263 102.77 189.408 102.121 189.707 101.669C189.999 101.224 190.437 100.998 191.013 100.998ZM191.02 101.698C190.874 101.698 190.743 101.727 190.641 101.786C190.531 101.844 190.444 101.924 190.378 102.041C190.313 102.158 190.262 102.267 190.225 102.384C190.181 102.5 190.152 102.639 190.138 102.814C190.123 102.989 190.108 103.135 190.108 103.252C190.101 103.368 190.101 103.507 190.101 103.682C190.101 104.338 190.174 104.819 190.32 105.111C190.466 105.41 190.706 105.556 191.035 105.556C191.159 105.556 191.268 105.534 191.37 105.483C191.472 105.432 191.552 105.366 191.618 105.293C191.676 105.221 191.735 105.126 191.778 105.002C191.822 104.885 191.851 104.776 191.873 104.674C191.895 104.572 191.91 104.448 191.924 104.302C191.939 104.156 191.946 104.039 191.946 103.959C191.946 103.879 191.954 103.777 191.954 103.645C191.954 103.485 191.946 103.354 191.946 103.266C191.946 103.179 191.939 103.04 191.924 102.858C191.91 102.675 191.881 102.53 191.837 102.413C191.793 102.304 191.742 102.187 191.676 102.063C191.611 101.946 191.523 101.851 191.414 101.793C191.297 101.735 191.166 101.698 191.02 101.698Z" fill="white" fill-opacity="0.4"/>
<path d="M200.749 101.013V106.147H199.86V102.617H198.591V102.005C199.473 102.005 199.969 101.676 200.078 101.013H200.749Z" fill="white" fill-opacity="0.4"/>
<path d="M209.013 100.998C210.194 100.998 210.792 101.881 210.792 103.645C210.792 104.499 210.639 105.148 210.347 105.585C210.048 106.03 209.611 106.249 209.042 106.249C207.853 106.249 207.263 105.381 207.263 103.631C207.263 102.77 207.408 102.121 207.707 101.669C207.999 101.224 208.437 100.998 209.013 100.998ZM209.02 101.698C208.874 101.698 208.743 101.727 208.641 101.786C208.531 101.844 208.444 101.924 208.378 102.041C208.313 102.158 208.262 102.267 208.225 102.384C208.181 102.5 208.152 102.639 208.138 102.814C208.123 102.989 208.108 103.135 208.108 103.252C208.101 103.368 208.101 103.507 208.101 103.682C208.101 104.338 208.174 104.819 208.32 105.111C208.466 105.41 208.706 105.556 209.035 105.556C209.159 105.556 209.268 105.534 209.37 105.483C209.472 105.432 209.552 105.366 209.618 105.293C209.676 105.221 209.735 105.126 209.778 105.002C209.822 104.885 209.851 104.776 209.873 104.674C209.895 104.572 209.91 104.448 209.924 104.302C209.939 104.156 209.946 104.039 209.946 103.959C209.946 103.879 209.954 103.777 209.954 103.645C209.954 103.485 209.946 103.354 209.946 103.266C209.946 103.179 209.939 103.04 209.924 102.858C209.91 102.675 209.881 102.53 209.837 102.413C209.793 102.304 209.742 102.187 209.676 102.063C209.611 101.946 209.523 101.851 209.414 101.793C209.297 101.735 209.166 101.698 209.02 101.698Z" fill="white" fill-opacity="0.4"/>
<path d="M218.749 101.013V106.147H217.86V102.617H216.591V102.005C217.473 102.005 217.969 101.676 218.078 101.013H218.749Z" fill="white" fill-opacity="0.4"/>
<path d="M227.013 100.998C228.194 100.998 228.792 101.881 228.792 103.645C228.792 104.499 228.639 105.148 228.347 105.585C228.048 106.03 227.611 106.249 227.042 106.249C225.853 106.249 225.263 105.381 225.263 103.631C225.263 102.77 225.408 102.121 225.707 101.669C225.999 101.224 226.437 100.998 227.013 100.998ZM227.02 101.698C226.874 101.698 226.743 101.727 226.641 101.786C226.531 101.844 226.444 101.924 226.378 102.041C226.313 102.158 226.262 102.267 226.225 102.384C226.181 102.5 226.152 102.639 226.138 102.814C226.123 102.989 226.108 103.135 226.108 103.252C226.101 103.368 226.101 103.507 226.101 103.682C226.101 104.338 226.174 104.819 226.32 105.111C226.466 105.41 226.706 105.556 227.035 105.556C227.159 105.556 227.268 105.534 227.37 105.483C227.472 105.432 227.552 105.366 227.618 105.293C227.676 105.221 227.735 105.126 227.778 105.002C227.822 104.885 227.851 104.776 227.873 104.674C227.895 104.572 227.91 104.448 227.924 104.302C227.939 104.156 227.946 104.039 227.946 103.959C227.946 103.879 227.954 103.777 227.954 103.645C227.954 103.485 227.946 103.354 227.946 103.266C227.946 103.179 227.939 103.04 227.924 102.858C227.91 102.675 227.881 102.53 227.837 102.413C227.793 102.304 227.742 102.187 227.676 102.063C227.611 101.946 227.523 101.851 227.414 101.793C227.297 101.735 227.166 101.698 227.02 101.698Z" fill="white" fill-opacity="0.4"/>
<path d="M236.749 101.013V106.147H235.86V102.617H234.591V102.005C235.473 102.005 235.969 101.676 236.078 101.013H236.749Z" fill="white" fill-opacity="0.4"/>
<path d="M245.013 100.998C246.194 100.998 246.792 101.881 246.792 103.645C246.792 104.499 246.639 105.148 246.347 105.585C246.048 106.03 245.611 106.249 245.042 106.249C243.853 106.249 243.263 105.381 243.263 103.631C243.263 102.77 243.408 102.121 243.707 101.669C243.999 101.224 244.437 100.998 245.013 100.998ZM245.02 101.698C244.874 101.698 244.743 101.727 244.641 101.786C244.531 101.844 244.444 101.924 244.378 102.041C244.313 102.158 244.262 102.267 244.225 102.384C244.181 102.5 244.152 102.639 244.138 102.814C244.123 102.989 244.108 103.135 244.108 103.252C244.101 103.368 244.101 103.507 244.101 103.682C244.101 104.338 244.174 104.819 244.32 105.111C244.466 105.41 244.706 105.556 245.035 105.556C245.159 105.556 245.268 105.534 245.37 105.483C245.472 105.432 245.552 105.366 245.618 105.293C245.676 105.221 245.735 105.126 245.778 105.002C245.822 104.885 245.851 104.776 245.873 104.674C245.895 104.572 245.91 104.448 245.924 104.302C245.939 104.156 245.946 104.039 245.946 103.959C245.946 103.879 245.954 103.777 245.954 103.645C245.954 103.485 245.946 103.354 245.946 103.266C245.946 103.179 245.939 103.04 245.924 102.858C245.91 102.675 245.881 102.53 245.837 102.413C245.793 102.304 245.742 102.187 245.676 102.063C245.611 101.946 245.523 101.851 245.414 101.793C245.297 101.735 245.166 101.698 245.02 101.698Z" fill="white" fill-opacity="0.4"/>
<path d="M254.749 101.013V106.147H253.86V102.617H252.591V102.005C253.473 102.005 253.969 101.676 254.078 101.013H254.749Z" fill="white" fill-opacity="0.4"/>
<path d="M263.013 100.998C264.194 100.998 264.792 101.881 264.792 103.645C264.792 104.499 264.639 105.148 264.347 105.585C264.048 106.03 263.611 106.249 263.042 106.249C261.853 106.249 261.263 105.381 261.263 103.631C261.263 102.77 261.408 102.121 261.707 101.669C261.999 101.224 262.437 100.998 263.013 100.998ZM263.02 101.698C262.874 101.698 262.743 101.727 262.641 101.786C262.531 101.844 262.444 101.924 262.378 102.041C262.313 102.158 262.262 102.267 262.225 102.384C262.181 102.5 262.152 102.639 262.138 102.814C262.123 102.989 262.108 103.135 262.108 103.252C262.101 103.368 262.101 103.507 262.101 103.682C262.101 104.338 262.174 104.819 262.32 105.111C262.466 105.41 262.706 105.556 263.035 105.556C263.159 105.556 263.268 105.534 263.37 105.483C263.472 105.432 263.552 105.366 263.618 105.293C263.676 105.221 263.735 105.126 263.778 105.002C263.822 104.885 263.851 104.776 263.873 104.674C263.895 104.572 263.91 104.448 263.924 104.302C263.939 104.156 263.946 104.039 263.946 103.959C263.946 103.879 263.954 103.777 263.954 103.645C263.954 103.485 263.946 103.354 263.946 103.266C263.946 103.179 263.939 103.04 263.924 102.858C263.91 102.675 263.881 102.53 263.837 102.413C263.793 102.304 263.742 102.187 263.676 102.063C263.611 101.946 263.523 101.851 263.414 101.793C263.297 101.735 263.166 101.698 263.02 101.698Z" fill="white" fill-opacity="0.4"/>
<path d="M272.749 101.013V106.147H271.86V102.617H270.591V102.005C271.473 102.005 271.969 101.676 272.078 101.013H272.749Z" fill="white" fill-opacity="0.4"/>
<path d="M281.013 100.998C282.194 100.998 282.792 101.881 282.792 103.645C282.792 104.499 282.639 105.148 282.347 105.585C282.048 106.03 281.611 106.249 281.042 106.249C279.853 106.249 279.263 105.381 279.263 103.631C279.263 102.77 279.408 102.121 279.707 101.669C279.999 101.224 280.437 100.998 281.013 100.998ZM281.02 101.698C280.874 101.698 280.743 101.727 280.641 101.786C280.531 101.844 280.444 101.924 280.378 102.041C280.313 102.158 280.262 102.267 280.225 102.384C280.181 102.5 280.152 102.639 280.138 102.814C280.123 102.989 280.108 103.135 280.108 103.252C280.101 103.368 280.101 103.507 280.101 103.682C280.101 104.338 280.174 104.819 280.32 105.111C280.466 105.41 280.706 105.556 281.035 105.556C281.159 105.556 281.268 105.534 281.37 105.483C281.472 105.432 281.552 105.366 281.618 105.293C281.676 105.221 281.735 105.126 281.778 105.002C281.822 104.885 281.851 104.776 281.873 104.674C281.895 104.572 281.91 104.448 281.924 104.302C281.939 104.156 281.946 104.039 281.946 103.959C281.946 103.879 281.954 103.777 281.954 103.645C281.954 103.485 281.946 103.354 281.946 103.266C281.946 103.179 281.939 103.04 281.924 102.858C281.91 102.675 281.881 102.53 281.837 102.413C281.793 102.304 281.742 102.187 281.676 102.063C281.611 101.946 281.523 101.851 281.414 101.793C281.297 101.735 281.166 101.698 281.02 101.698Z" fill="white" fill-opacity="0.4"/>
<path d="M290.749 101.013V106.147H289.86V102.617H288.591V102.005C289.473 102.005 289.969 101.676 290.078 101.013H290.749Z" fill="white" fill-opacity="0.4"/>
<path d="M299.013 100.998C300.194 100.998 300.792 101.881 300.792 103.645C300.792 104.499 300.639 105.148 300.347 105.585C300.048 106.03 299.611 106.249 299.042 106.249C297.853 106.249 297.263 105.381 297.263 103.631C297.263 102.77 297.408 102.121 297.707 101.669C297.999 101.224 298.437 100.998 299.013 100.998ZM299.02 101.698C298.874 101.698 298.743 101.727 298.641 101.786C298.531 101.844 298.444 101.924 298.378 102.041C298.313 102.158 298.262 102.267 298.225 102.384C298.181 102.5 298.152 102.639 298.138 102.814C298.123 102.989 298.108 103.135 298.108 103.252C298.101 103.368 298.101 103.507 298.101 103.682C298.101 104.338 298.174 104.819 298.32 105.111C298.466 105.41 298.706 105.556 299.035 105.556C299.159 105.556 299.268 105.534 299.37 105.483C299.472 105.432 299.552 105.366 299.618 105.293C299.676 105.221 299.735 105.126 299.778 105.002C299.822 104.885 299.851 104.776 299.873 104.674C299.895 104.572 299.91 104.448 299.924 104.302C299.939 104.156 299.946 104.039 299.946 103.959C299.946 103.879 299.954 103.777 299.954 103.645C299.954 103.485 299.946 103.354 299.946 103.266C299.946 103.179 299.939 103.04 299.924 102.858C299.91 102.675 299.881 102.53 299.837 102.413C299.793 102.304 299.742 102.187 299.676 102.063C299.611 101.946 299.523 101.851 299.414 101.793C299.297 101.735 299.166 101.698 299.02 101.698Z" fill="white" fill-opacity="0.4"/>
<path d="M308.749 101.013V106.147H307.86V102.617H306.591V102.005C307.473 102.005 307.969 101.676 308.078 101.013H308.749Z" fill="white" fill-opacity="0.4"/>
<path d="M164.013 110.998C165.194 110.998 165.792 111.881 165.792 113.645C165.792 114.499 165.639 115.148 165.347 115.585C165.048 116.03 164.611 116.249 164.042 116.249C162.853 116.249 162.263 115.381 162.263 113.631C162.263 112.77 162.408 112.121 162.707 111.669C162.999 111.224 163.437 110.998 164.013 110.998ZM164.02 111.698C163.874 111.698 163.743 111.727 163.641 111.786C163.531 111.844 163.444 111.924 163.378 112.041C163.313 112.158 163.262 112.267 163.225 112.384C163.181 112.5 163.152 112.639 163.138 112.814C163.123 112.989 163.108 113.135 163.108 113.252C163.101 113.368 163.101 113.507 163.101 113.682C163.101 114.338 163.174 114.819 163.32 115.111C163.466 115.41 163.706 115.556 164.035 115.556C164.159 115.556 164.268 115.534 164.37 115.483C164.472 115.432 164.552 115.366 164.618 115.293C164.676 115.221 164.735 115.126 164.778 115.002C164.822 114.885 164.851 114.776 164.873 114.674C164.895 114.572 164.91 114.448 164.924 114.302C164.939 114.156 164.946 114.039 164.946 113.959C164.946 113.879 164.954 113.777 164.954 113.645C164.954 113.485 164.946 113.354 164.946 113.266C164.946 113.179 164.939 113.04 164.924 112.858C164.91 112.675 164.881 112.53 164.837 112.413C164.793 112.304 164.742 112.187 164.676 112.063C164.611 111.946 164.523 111.851 164.414 111.793C164.297 111.735 164.166 111.698 164.02 111.698Z" fill="white" fill-opacity="0.4"/>
<path d="M173.749 111.013V116.147H172.86V112.617H171.591V112.005C172.473 112.005 172.969 111.676 173.078 111.013H173.749Z" fill="white" fill-opacity="0.4"/>
<path d="M182.013 110.998C183.194 110.998 183.792 111.881 183.792 113.645C183.792 114.499 183.639 115.148 183.347 115.585C183.048 116.03 182.611 116.249 182.042 116.249C180.853 116.249 180.263 115.381 180.263 113.631C180.263 112.77 180.408 112.121 180.707 111.669C180.999 111.224 181.437 110.998 182.013 110.998ZM182.02 111.698C181.874 111.698 181.743 111.727 181.641 111.786C181.531 111.844 181.444 111.924 181.378 112.041C181.313 112.158 181.262 112.267 181.225 112.384C181.181 112.5 181.152 112.639 181.138 112.814C181.123 112.989 181.108 113.135 181.108 113.252C181.101 113.368 181.101 113.507 181.101 113.682C181.101 114.338 181.174 114.819 181.32 115.111C181.466 115.41 181.706 115.556 182.035 115.556C182.159 115.556 182.268 115.534 182.37 115.483C182.472 115.432 182.552 115.366 182.618 115.293C182.676 115.221 182.735 115.126 182.778 115.002C182.822 114.885 182.851 114.776 182.873 114.674C182.895 114.572 182.91 114.448 182.924 114.302C182.939 114.156 182.946 114.039 182.946 113.959C182.946 113.879 182.954 113.777 182.954 113.645C182.954 113.485 182.946 113.354 182.946 113.266C182.946 113.179 182.939 113.04 182.924 112.858C182.91 112.675 182.881 112.53 182.837 112.413C182.793 112.304 182.742 112.187 182.676 112.063C182.611 111.946 182.523 111.851 182.414 111.793C182.297 111.735 182.166 111.698 182.02 111.698Z" fill="white" fill-opacity="0.4"/>
<path d="M191.749 111.013V116.147H190.86V112.617H189.591V112.005C190.473 112.005 190.969 111.676 191.078 111.013H191.749Z" fill="white" fill-opacity="0.4"/>
<path d="M200.013 110.998C201.194 110.998 201.792 111.881 201.792 113.645C201.792 114.499 201.639 115.148 201.347 115.585C201.048 116.03 200.611 116.249 200.042 116.249C198.853 116.249 198.263 115.381 198.263 113.631C198.263 112.77 198.408 112.121 198.707 111.669C198.999 111.224 199.437 110.998 200.013 110.998ZM200.02 111.698C199.874 111.698 199.743 111.727 199.641 111.786C199.531 111.844 199.444 111.924 199.378 112.041C199.313 112.158 199.262 112.267 199.225 112.384C199.181 112.5 199.152 112.639 199.138 112.814C199.123 112.989 199.108 113.135 199.108 113.252C199.101 113.368 199.101 113.507 199.101 113.682C199.101 114.338 199.174 114.819 199.32 115.111C199.466 115.41 199.706 115.556 200.035 115.556C200.159 115.556 200.268 115.534 200.37 115.483C200.472 115.432 200.552 115.366 200.618 115.293C200.676 115.221 200.735 115.126 200.778 115.002C200.822 114.885 200.851 114.776 200.873 114.674C200.895 114.572 200.91 114.448 200.924 114.302C200.939 114.156 200.946 114.039 200.946 113.959C200.946 113.879 200.954 113.777 200.954 113.645C200.954 113.485 200.946 113.354 200.946 113.266C200.946 113.179 200.939 113.04 200.924 112.858C200.91 112.675 200.881 112.53 200.837 112.413C200.793 112.304 200.742 112.187 200.676 112.063C200.611 111.946 200.523 111.851 200.414 111.793C200.297 111.735 200.166 111.698 200.02 111.698Z" fill="white" fill-opacity="0.4"/>
<path d="M209.749 111.013V116.147H208.86V112.617H207.591V112.005C208.473 112.005 208.969 111.676 209.078 111.013H209.749Z" fill="white" fill-opacity="0.4"/>
<path d="M218.013 110.998C219.194 110.998 219.792 111.881 219.792 113.645C219.792 114.499 219.639 115.148 219.347 115.585C219.048 116.03 218.611 116.249 218.042 116.249C216.853 116.249 216.263 115.381 216.263 113.631C216.263 112.77 216.408 112.121 216.707 111.669C216.999 111.224 217.437 110.998 218.013 110.998ZM218.02 111.698C217.874 111.698 217.743 111.727 217.641 111.786C217.531 111.844 217.444 111.924 217.378 112.041C217.313 112.158 217.262 112.267 217.225 112.384C217.181 112.5 217.152 112.639 217.138 112.814C217.123 112.989 217.108 113.135 217.108 113.252C217.101 113.368 217.101 113.507 217.101 113.682C217.101 114.338 217.174 114.819 217.32 115.111C217.466 115.41 217.706 115.556 218.035 115.556C218.159 115.556 218.268 115.534 218.37 115.483C218.472 115.432 218.552 115.366 218.618 115.293C218.676 115.221 218.735 115.126 218.778 115.002C218.822 114.885 218.851 114.776 218.873 114.674C218.895 114.572 218.91 114.448 218.924 114.302C218.939 114.156 218.946 114.039 218.946 113.959C218.946 113.879 218.954 113.777 218.954 113.645C218.954 113.485 218.946 113.354 218.946 113.266C218.946 113.179 218.939 113.04 218.924 112.858C218.91 112.675 218.881 112.53 218.837 112.413C218.793 112.304 218.742 112.187 218.676 112.063C218.611 111.946 218.523 111.851 218.414 111.793C218.297 111.735 218.166 111.698 218.02 111.698Z" fill="white" fill-opacity="0.4"/>
<path d="M227.749 111.013V116.147H226.86V112.617H225.591V112.005C226.473 112.005 226.969 111.676 227.078 111.013H227.749Z" fill="white" fill-opacity="0.4"/>
<path d="M236.013 110.998C237.194 110.998 237.792 111.881 237.792 113.645C237.792 114.499 237.639 115.148 237.347 115.585C237.048 116.03 236.611 116.249 236.042 116.249C234.853 116.249 234.263 115.381 234.263 113.631C234.263 112.77 234.408 112.121 234.707 111.669C234.999 111.224 235.437 110.998 236.013 110.998ZM236.02 111.698C235.874 111.698 235.743 111.727 235.641 111.786C235.531 111.844 235.444 111.924 235.378 112.041C235.313 112.158 235.262 112.267 235.225 112.384C235.181 112.5 235.152 112.639 235.138 112.814C235.123 112.989 235.108 113.135 235.108 113.252C235.101 113.368 235.101 113.507 235.101 113.682C235.101 114.338 235.174 114.819 235.32 115.111C235.466 115.41 235.706 115.556 236.035 115.556C236.159 115.556 236.268 115.534 236.37 115.483C236.472 115.432 236.552 115.366 236.618 115.293C236.676 115.221 236.735 115.126 236.778 115.002C236.822 114.885 236.851 114.776 236.873 114.674C236.895 114.572 236.91 114.448 236.924 114.302C236.939 114.156 236.946 114.039 236.946 113.959C236.946 113.879 236.954 113.777 236.954 113.645C236.954 113.485 236.946 113.354 236.946 113.266C236.946 113.179 236.939 113.04 236.924 112.858C236.91 112.675 236.881 112.53 236.837 112.413C236.793 112.304 236.742 112.187 236.676 112.063C236.611 111.946 236.523 111.851 236.414 111.793C236.297 111.735 236.166 111.698 236.02 111.698Z" fill="white" fill-opacity="0.4"/>
<path d="M245.749 111.013V116.147H244.86V112.617H243.591V112.005C244.473 112.005 244.969 111.676 245.078 111.013H245.749Z" fill="white" fill-opacity="0.4"/>
<path d="M254.013 110.998C255.194 110.998 255.792 111.881 255.792 113.645C255.792 114.499 255.639 115.148 255.347 115.585C255.048 116.03 254.611 116.249 254.042 116.249C252.853 116.249 252.263 115.381 252.263 113.631C252.263 112.77 252.408 112.121 252.707 111.669C252.999 111.224 253.437 110.998 254.013 110.998ZM254.02 111.698C253.874 111.698 253.743 111.727 253.641 111.786C253.531 111.844 253.444 111.924 253.378 112.041C253.313 112.158 253.262 112.267 253.225 112.384C253.181 112.5 253.152 112.639 253.138 112.814C253.123 112.989 253.108 113.135 253.108 113.252C253.101 113.368 253.101 113.507 253.101 113.682C253.101 114.338 253.174 114.819 253.32 115.111C253.466 115.41 253.706 115.556 254.035 115.556C254.159 115.556 254.268 115.534 254.37 115.483C254.472 115.432 254.552 115.366 254.618 115.293C254.676 115.221 254.735 115.126 254.778 115.002C254.822 114.885 254.851 114.776 254.873 114.674C254.895 114.572 254.91 114.448 254.924 114.302C254.939 114.156 254.946 114.039 254.946 113.959C254.946 113.879 254.954 113.777 254.954 113.645C254.954 113.485 254.946 113.354 254.946 113.266C254.946 113.179 254.939 113.04 254.924 112.858C254.91 112.675 254.881 112.53 254.837 112.413C254.793 112.304 254.742 112.187 254.676 112.063C254.611 111.946 254.523 111.851 254.414 111.793C254.297 111.735 254.166 111.698 254.02 111.698Z" fill="white" fill-opacity="0.4"/>
<path d="M263.749 111.013V116.147H262.86V112.617H261.591V112.005C262.473 112.005 262.969 111.676 263.078 111.013H263.749Z" fill="white" fill-opacity="0.4"/>
<path d="M272.013 110.998C273.194 110.998 273.792 111.881 273.792 113.645C273.792 114.499 273.639 115.148 273.347 115.585C273.048 116.03 272.611 116.249 272.042 116.249C270.853 116.249 270.263 115.381 270.263 113.631C270.263 112.77 270.408 112.121 270.707 111.669C270.999 111.224 271.437 110.998 272.013 110.998ZM272.02 111.698C271.874 111.698 271.743 111.727 271.641 111.786C271.531 111.844 271.444 111.924 271.378 112.041C271.313 112.158 271.262 112.267 271.225 112.384C271.181 112.5 271.152 112.639 271.138 112.814C271.123 112.989 271.108 113.135 271.108 113.252C271.101 113.368 271.101 113.507 271.101 113.682C271.101 114.338 271.174 114.819 271.32 115.111C271.466 115.41 271.706 115.556 272.035 115.556C272.159 115.556 272.268 115.534 272.37 115.483C272.472 115.432 272.552 115.366 272.618 115.293C272.676 115.221 272.735 115.126 272.778 115.002C272.822 114.885 272.851 114.776 272.873 114.674C272.895 114.572 272.91 114.448 272.924 114.302C272.939 114.156 272.946 114.039 272.946 113.959C272.946 113.879 272.954 113.777 272.954 113.645C272.954 113.485 272.946 113.354 272.946 113.266C272.946 113.179 272.939 113.04 272.924 112.858C272.91 112.675 272.881 112.53 272.837 112.413C272.793 112.304 272.742 112.187 272.676 112.063C272.611 111.946 272.523 111.851 272.414 111.793C272.297 111.735 272.166 111.698 272.02 111.698Z" fill="white" fill-opacity="0.4"/>
<path d="M281.749 111.013V116.147H280.86V112.617H279.591V112.005C280.473 112.005 280.969 111.676 281.078 111.013H281.749Z" fill="white" fill-opacity="0.4"/>
<path d="M290.013 110.998C291.194 110.998 291.792 111.881 291.792 113.645C291.792 114.499 291.639 115.148 291.347 115.585C291.048 116.03 290.611 116.249 290.042 116.249C288.853 116.249 288.263 115.381 288.263 113.631C288.263 112.77 288.408 112.121 288.707 111.669C288.999 111.224 289.437 110.998 290.013 110.998ZM290.02 111.698C289.874 111.698 289.743 111.727 289.641 111.786C289.531 111.844 289.444 111.924 289.378 112.041C289.313 112.158 289.262 112.267 289.225 112.384C289.181 112.5 289.152 112.639 289.138 112.814C289.123 112.989 289.108 113.135 289.108 113.252C289.101 113.368 289.101 113.507 289.101 113.682C289.101 114.338 289.174 114.819 289.32 115.111C289.466 115.41 289.706 115.556 290.035 115.556C290.159 115.556 290.268 115.534 290.37 115.483C290.472 115.432 290.552 115.366 290.618 115.293C290.676 115.221 290.735 115.126 290.778 115.002C290.822 114.885 290.851 114.776 290.873 114.674C290.895 114.572 290.91 114.448 290.924 114.302C290.939 114.156 290.946 114.039 290.946 113.959C290.946 113.879 290.954 113.777 290.954 113.645C290.954 113.485 290.946 113.354 290.946 113.266C290.946 113.179 290.939 113.04 290.924 112.858C290.91 112.675 290.881 112.53 290.837 112.413C290.793 112.304 290.742 112.187 290.676 112.063C290.611 111.946 290.523 111.851 290.414 111.793C290.297 111.735 290.166 111.698 290.02 111.698Z" fill="white" fill-opacity="0.4"/>
<path d="M299.749 111.013V116.147H298.86V112.617H297.591V112.005C298.473 112.005 298.969 111.676 299.078 111.013H299.749Z" fill="white" fill-opacity="0.4"/>
<path d="M308.013 110.998C309.194 110.998 309.792 111.881 309.792 113.645C309.792 114.499 309.639 115.148 309.347 115.585C309.048 116.03 308.611 116.249 308.042 116.249C306.853 116.249 306.263 115.381 306.263 113.631C306.263 112.77 306.408 112.121 306.707 111.669C306.999 111.224 307.437 110.998 308.013 110.998ZM308.02 111.698C307.874 111.698 307.743 111.727 307.641 111.786C307.531 111.844 307.444 111.924 307.378 112.041C307.313 112.158 307.262 112.267 307.225 112.384C307.181 112.5 307.152 112.639 307.138 112.814C307.123 112.989 307.108 113.135 307.108 113.252C307.101 113.368 307.101 113.507 307.101 113.682C307.101 114.338 307.174 114.819 307.32 115.111C307.466 115.41 307.706 115.556 308.035 115.556C308.159 115.556 308.268 115.534 308.37 115.483C308.472 115.432 308.552 115.366 308.618 115.293C308.676 115.221 308.735 115.126 308.778 115.002C308.822 114.885 308.851 114.776 308.873 114.674C308.895 114.572 308.91 114.448 308.924 114.302C308.939 114.156 308.946 114.039 308.946 113.959C308.946 113.879 308.954 113.777 308.954 113.645C308.954 113.485 308.946 113.354 308.946 113.266C308.946 113.179 308.939 113.04 308.924 112.858C308.91 112.675 308.881 112.53 308.837 112.413C308.793 112.304 308.742 112.187 308.676 112.063C308.611 111.946 308.523 111.851 308.414 111.793C308.297 111.735 308.166 111.698 308.02 111.698Z" fill="white" fill-opacity="0.4"/>
<path d="M317.749 111.013V116.147H316.86V112.617H315.591V112.005C316.473 112.005 316.969 111.676 317.078 111.013H317.749Z" fill="white" fill-opacity="0.4"/>
<path d="M166.5 146.391H220.096C225.289 146.391 229.499 142.181 229.499 136.988L229.5 125.147" stroke="url(#paint9_linear_24_291)" stroke-width="0.783644"/>
<path d="M315.5 146.391H261.904C256.711 146.391 252.501 142.181 252.501 136.988L252.5 125.147" stroke="url(#paint10_linear_24_291)" stroke-width="0.783644"/>
<defs>
<radialGradient id="paint0_radial_24_291" cx="0" cy="0" r="1" gradientUnits="userSpaceOnUse" gradientTransform="translate(334.621 7.04212) rotate(12.4544) scale(62.6994 69.9261)">
<stop stop-color="white"/>
<stop offset="1" stop-color="white" stop-opacity="0"/>
</radialGradient>
<radialGradient id="paint1_radial_24_291" cx="0" cy="0" r="1" gradientUnits="userSpaceOnUse" gradientTransform="translate(392.516 105.201) rotate(124.066) scale(38.6919 26.3952)">
<stop stop-color="white" stop-opacity="0.4"/>
<stop offset="1" stop-color="white" stop-opacity="0"/>
</radialGradient>
<linearGradient id="paint2_linear_24_291" x1="362.33" y1="1.11865" x2="362.33" y2="130.62" gradientUnits="userSpaceOnUse">
<stop stop-color="#666666"/>
<stop offset="1"/>
</linearGradient>
<radialGradient id="paint3_radial_24_291" cx="0" cy="0" r="1" gradientUnits="userSpaceOnUse" gradientTransform="translate(150.356 8.75746) rotate(167.546) scale(62.6994 69.9261)">
<stop stop-color="white"/>
<stop offset="1" stop-color="white" stop-opacity="0"/>
</radialGradient>
<radialGradient id="paint4_radial_24_291" cx="0" cy="0" r="1" gradientUnits="userSpaceOnUse" gradientTransform="translate(92.461 106.917) rotate(55.9338) scale(38.6919 26.3952)">
<stop stop-color="white" stop-opacity="0.4"/>
<stop offset="1" stop-color="white" stop-opacity="0"/>
</radialGradient>
<linearGradient id="paint5_linear_24_291" x1="122.647" y1="2.83398" x2="122.647" y2="132.335" gradientUnits="userSpaceOnUse">
<stop stop-color="#666666"/>
<stop offset="1"/>
</linearGradient>
<linearGradient id="paint6_linear_24_291" x1="243" y1="171.599" x2="243.529" y2="195.715" gradientUnits="userSpaceOnUse">
<stop stop-color="#246772"/>
<stop offset="1" stop-color="#17C1DE"/>
</linearGradient>
<linearGradient id="paint7_linear_24_291" x1="166.5" y1="70.9023" x2="207.102" y2="113.297" gradientUnits="userSpaceOnUse">
<stop stop-color="white" stop-opacity="0"/>
<stop offset="0.5" stop-color="white" stop-opacity="0.3"/>
<stop offset="1" stop-color="white" stop-opacity="0"/>
</linearGradient>
<linearGradient id="paint8_linear_24_291" x1="315.5" y1="70.9023" x2="274.898" y2="113.297" gradientUnits="userSpaceOnUse">
<stop stop-color="white" stop-opacity="0"/>
<stop offset="0.5" stop-color="white" stop-opacity="0.3"/>
<stop offset="1" stop-color="white" stop-opacity="0"/>
</linearGradient>
<linearGradient id="paint9_linear_24_291" x1="166.5" y1="146.391" x2="207.102" y2="103.997" gradientUnits="userSpaceOnUse">
<stop stop-color="white" stop-opacity="0"/>
<stop offset="0.5" stop-color="white" stop-opacity="0.3"/>
<stop offset="1" stop-color="white" stop-opacity="0"/>
</linearGradient>
<linearGradient id="paint10_linear_24_291" x1="315.5" y1="146.391" x2="274.898" y2="103.997" gradientUnits="userSpaceOnUse">
<stop stop-color="white" stop-opacity="0"/>
<stop offset="0.5" stop-color="white" stop-opacity="0.3"/>
<stop offset="1" stop-color="white" stop-opacity="0"/>
</linearGradient>
</defs>
</svg>
