<svg width="132" height="27" viewBox="0 0 132 27" fill="none" xmlns="http://www.w3.org/2000/svg">
<g clip-path="url(#clip0_24_537)">
<mask id="mask0_24_537" style="mask-type:luminance" maskUnits="userSpaceOnUse" x="0" y="0" width="132" height="27">
<path d="M131.199 0.218506H0.513184V26.9855H131.199V0.218506Z" fill="white"/>
</mask>
<g mask="url(#mask0_24_537)">
<mask id="mask1_24_537" style="mask-type:luminance" maskUnits="userSpaceOnUse" x="0" y="0" width="132" height="27">
<path d="M131.199 0.218506H0.513184V26.9855H131.199V0.218506Z" fill="white"/>
</mask>
<g mask="url(#mask1_24_537)">
<path d="M21.1683 15.8823C23.7516 14.5025 26.5255 13.4927 29.4048 12.8844L27.2734 6.49349C26.3601 6.8818 25.42 7.22977 24.4533 7.53741C22.6093 8.1216 20.7133 8.53617 18.79 8.77565C18.2411 5.956 18.1123 3.07394 18.4081 0.218506H11.511C11.6081 1.18462 11.6575 2.16313 11.6591 3.15404C11.6593 5.04306 11.4778 6.92792 11.117 8.78395C8.19437 8.42105 5.34079 7.64936 2.64438 6.49269L0.513184 12.883C1.48646 13.0918 2.45736 13.3485 3.42586 13.6531C5.27002 14.2363 7.054 14.9866 8.75443 15.8941C7.4969 18.4897 5.86161 20.895 3.89903 23.0357L9.47929 26.9855C9.98343 26.1482 10.5339 25.3285 11.1307 24.5261C12.2705 22.9976 13.5547 21.5766 14.9667 20.2814C17.1116 22.2484 18.9544 24.5064 20.4378 26.9855L26.0181 23.036C25.3566 22.3102 24.7264 21.5468 24.1273 20.7461C22.9872 19.2184 21.9966 17.59 21.1683 15.8823Z" fill="white"/>
<path d="M38.9136 0.218506H59.6252V6.6632H46.7695V10.9459H57.4074V16.8791H46.7695V26.3996H38.9136V0.218506Z" fill="white"/>
<path d="M59.2129 17.0988C59.2129 11.4242 63.3479 7.17578 69.7371 7.17578C76.1262 7.17578 80.187 11.4234 80.187 17.0988C80.187 22.7743 76.1285 26.9856 69.7381 26.9856C63.3479 26.9856 59.2129 22.7746 59.2129 17.0988ZM72.9707 17.0988C72.9707 13.9497 71.844 11.8257 69.6628 11.8257C67.4817 11.8257 66.4304 13.95 66.4304 17.0988C66.4304 20.2478 67.4827 22.3719 69.6628 22.3719C71.843 22.3719 72.9707 20.248 72.9707 17.0988Z" fill="white"/>
<path d="M88.722 10.5445H88.835C90.3762 8.20103 92.218 7.32227 94.6603 7.32227C95.2241 7.32227 95.6004 7.39534 95.8254 7.50535V13.4005H95.6753C91.5028 12.7046 89.0595 14.5357 89.0595 18.7467V26.3997H81.9561V7.72511H88.722V10.5445Z" fill="white"/>
<path d="M96.8789 7.72496H99.3599V1.68311H106.314V7.72496H109.96V11.9006H106.314V19.4788C106.314 21.3463 107.667 21.3831 109.886 21.2366V26.3263C108.796 26.5826 107.668 26.7656 106.39 26.7656C101.729 26.7656 99.3609 25.484 99.3609 21.0169V11.8993H96.8789V7.72496Z" fill="white"/>
<path d="M123.568 24.349H123.494C122.216 26.0701 120.185 26.8758 117.704 26.8758C114.02 26.8758 111.314 24.9352 111.314 21.2731C111.314 17.1356 114.584 15.9273 118.268 15.5244C122.328 15.0849 123.418 14.609 123.418 13.4366C123.418 12.4114 122.929 11.6432 121.388 11.6432C119.847 11.6432 119.058 12.5222 118.87 13.8769H112.141C112.291 10.1785 115.223 7.1394 121.236 7.1394C124.169 7.1394 126.048 7.50558 127.514 8.38434C129.508 9.5926 130.485 11.4965 130.485 13.9864V23.3238C130.485 24.8985 130.597 25.7405 131.199 26.1076V26.4003H124.208C123.945 25.9604 123.719 25.3745 123.568 24.349ZM123.606 19.6246V17.9776C122.929 18.3073 122.065 18.6003 120.862 18.8567C118.795 19.2959 118.156 19.8819 118.156 20.9804C118.156 22.2254 119.208 22.7737 120.373 22.7737C122.027 22.7746 123.606 21.8591 123.606 19.6246Z" fill="white"/>
</g>
</g>
</g>
<defs>
<clipPath id="clip0_24_537">
<rect width="130.686" height="26.767" fill="white" transform="translate(0.513184 0.218506)"/>
</clipPath>
</defs>
</svg>
